<svg width="405" height="218" viewBox="0 0 405 218" fill="none" xmlns="http://www.w3.org/2000/svg">
<g clip-path="url(#clip0_2063_249283)">
<rect width="405" height="218" transform="translate(0 -0.979614)" fill="url(#paint0_linear_2063_249283)"/>
<rect width="405" height="218" transform="translate(0 -0.979614)" fill="white" fill-opacity="0.9"/>
<mask id="mask0_2063_249283" style="mask-type:alpha" maskUnits="userSpaceOnUse" x="0" y="68" width="303" height="92">
<rect y="68.0204" width="303" height="91" fill="url(#paint1_linear_2063_249283)"/>
</mask>
<g mask="url(#mask0_2063_249283)">
<path opacity="0.75" d="M27.8657 124.145C-4.30877 153.293 -28.7914 158.234 -48 167.02H304V94.7597C264.526 94.7597 204.537 95.3051 143.323 75.05C80.394 60.0207 77.3279 79.3352 27.8657 124.145Z" fill="url(#paint2_linear_2063_249283)"/>
<path d="M-46 166.02C-26.7978 157.231 -2.32328 152.289 29.8405 123.132C79.2863 78.3087 82.6765 60.1754 145.585 75.2092C206.778 95.4704 264.539 94.1646 304 94.1646" stroke="url(#paint3_linear_2063_249283)" stroke-width="0.999906" stroke-linecap="round"/>
</g>
<path d="M303 184.471L303 99.4706" stroke="url(#paint4_linear_2063_249283)" stroke-width="0.5"/>
<g opacity="0.25">
<rect x="0.319905" y="-43.1147" width="50.545" height="50.545" stroke="#E9ECEF" stroke-width="0.63981"/>
<rect x="50.8648" y="-43.1145" width="50.545" height="50.545" stroke="#E9ECEF" stroke-width="0.63981"/>
<rect x="101.41" y="-43.1145" width="50.545" height="50.545" stroke="#E9ECEF" stroke-width="0.63981"/>
<rect x="151.955" y="-43.1145" width="50.545" height="50.545" stroke="#E9ECEF" stroke-width="0.63981"/>
<rect x="202.5" y="-43.1145" width="50.545" height="50.545" stroke="#E9ECEF" stroke-width="0.63981"/>
<rect x="253.045" y="-43.1145" width="50.545" height="50.545" stroke="#E9ECEF" stroke-width="0.63981"/>
<rect x="303.59" y="-43.1145" width="50.545" height="50.545" stroke="#E9ECEF" stroke-width="0.63981"/>
<rect x="354.135" y="-43.1145" width="50.545" height="50.545" stroke="#E9ECEF" stroke-width="0.63981"/>
<rect x="0.319905" y="7.43038" width="50.545" height="50.545" stroke="#E9ECEF" stroke-width="0.63981"/>
<rect opacity="0.5" x="50.8648" y="7.43062" width="50.545" height="50.545" fill="url(#paint5_linear_2063_249283)" stroke="#E9ECEF" stroke-width="0.63981"/>
<rect x="101.41" y="7.43062" width="50.545" height="50.545" stroke="#E9ECEF" stroke-width="0.63981"/>
<rect x="151.955" y="7.43062" width="50.545" height="50.545" stroke="#E9ECEF" stroke-width="0.63981"/>
<rect x="202.5" y="7.43062" width="50.545" height="50.545" stroke="#E9ECEF" stroke-width="0.63981"/>
<rect x="253.045" y="7.43062" width="50.545" height="50.545" stroke="#E9ECEF" stroke-width="0.63981"/>
<rect x="303.59" y="7.43062" width="50.545" height="50.545" fill="url(#paint6_linear_2063_249283)" stroke="#E9ECEF" stroke-width="0.63981"/>
<rect x="354.135" y="7.43062" width="50.545" height="50.545" fill="url(#paint7_linear_2063_249283)" stroke="#E9ECEF" stroke-width="0.63981"/>
<rect x="0.319905" y="57.9754" width="50.545" height="50.545" stroke="#E9ECEF" stroke-width="0.63981"/>
<rect x="50.8648" y="57.9754" width="50.545" height="50.545" stroke="#E9ECEF" stroke-width="0.63981"/>
<rect x="101.41" y="57.9754" width="50.545" height="50.545" stroke="#E9ECEF" stroke-width="0.63981"/>
<rect x="151.955" y="57.9754" width="50.545" height="50.545" stroke="#E9ECEF" stroke-width="0.63981"/>
<rect x="202.5" y="57.9754" width="50.545" height="50.545" stroke="#E9ECEF" stroke-width="0.63981"/>
<rect x="253.045" y="57.9754" width="50.545" height="50.545" stroke="#E9ECEF" stroke-width="0.63981"/>
<rect x="303.59" y="57.9754" width="50.545" height="50.545" stroke="#E9ECEF" stroke-width="0.63981"/>
<rect x="354.135" y="57.9754" width="50.545" height="50.545" stroke="#E9ECEF" stroke-width="0.63981"/>
<rect opacity="0.5" x="0.319905" y="108.52" width="50.545" height="50.545" fill="url(#paint8_linear_2063_249283)" stroke="#E9ECEF" stroke-width="0.63981"/>
<rect x="50.8648" y="108.52" width="50.545" height="50.545" stroke="#E9ECEF" stroke-width="0.63981"/>
<rect x="101.41" y="108.52" width="50.545" height="50.545" stroke="#E9ECEF" stroke-width="0.63981"/>
<rect x="151.955" y="108.52" width="50.545" height="50.545" fill="url(#paint9_linear_2063_249283)" stroke="#E9ECEF" stroke-width="0.63981"/>
<rect x="202.5" y="108.52" width="50.545" height="50.545" stroke="#E9ECEF" stroke-width="0.63981"/>
<rect x="253.045" y="108.52" width="50.545" height="50.545" fill="url(#paint10_linear_2063_249283)" stroke="#E9ECEF" stroke-width="0.63981"/>
<rect x="303.59" y="108.52" width="50.545" height="50.545" fill="url(#paint11_linear_2063_249283)" stroke="#E9ECEF" stroke-width="0.63981"/>
<rect x="354.135" y="108.52" width="50.545" height="50.545" stroke="#E9ECEF" stroke-width="0.63981"/>
<rect x="0.319905" y="159.065" width="50.545" height="50.545" stroke="#E9ECEF" stroke-width="0.63981"/>
<rect x="50.8648" y="159.065" width="50.545" height="50.545" fill="url(#paint12_linear_2063_249283)" stroke="#E9ECEF" stroke-width="0.63981"/>
<rect x="101.41" y="159.065" width="50.545" height="50.545" stroke="#E9ECEF" stroke-width="0.63981"/>
<rect x="151.955" y="159.065" width="50.545" height="50.545" stroke="#E9ECEF" stroke-width="0.63981"/>
<rect x="202.5" y="159.065" width="50.545" height="50.545" stroke="#E9ECEF" stroke-width="0.63981"/>
<rect x="253.045" y="159.065" width="50.545" height="50.545" stroke="#E9ECEF" stroke-width="0.63981"/>
<rect x="303.59" y="159.065" width="50.545" height="50.545" stroke="#E9ECEF" stroke-width="0.63981"/>
<rect x="354.135" y="159.065" width="50.545" height="50.545" fill="url(#paint13_linear_2063_249283)" stroke="#E9ECEF" stroke-width="0.63981"/>
<rect x="0.319905" y="209.61" width="50.545" height="50.545" stroke="#E9ECEF" stroke-width="0.63981"/>
<rect opacity="0.5" x="50.8648" y="209.61" width="50.545" height="50.545" fill="url(#paint14_linear_2063_249283)" stroke="#E9ECEF" stroke-width="0.63981"/>
<rect x="101.41" y="209.61" width="50.545" height="50.545" stroke="#E9ECEF" stroke-width="0.63981"/>
<rect x="151.955" y="209.61" width="50.545" height="50.545" stroke="#E9ECEF" stroke-width="0.63981"/>
<rect x="202.5" y="209.61" width="50.545" height="50.545" stroke="#E9ECEF" stroke-width="0.63981"/>
<rect x="253.045" y="209.61" width="50.545" height="50.545" stroke="#E9ECEF" stroke-width="0.63981"/>
<rect opacity="0.5" x="303.59" y="209.61" width="50.545" height="50.545" fill="url(#paint15_linear_2063_249283)" stroke="#E9ECEF" stroke-width="0.63981"/>
<rect x="354.135" y="209.61" width="50.545" height="50.545" stroke="#E9ECEF" stroke-width="0.63981"/>
</g>
<line x1="308" y1="93.6354" x2="405" y2="93.6354" stroke="url(#paint16_linear_2063_249283)" stroke-width="0.77" stroke-dasharray="5 5"/>
<circle cx="303" cy="95.0204" r="4.5" fill="#F8F9FA" stroke="#0784C3"/>
<path d="M303 10.4706L303 90.4706" stroke="url(#paint17_linear_2063_249283)" stroke-width="0.5"/>
</g>
<defs>
<linearGradient id="paint0_linear_2063_249283" x1="201.416" y1="2.31133" x2="162.638" y2="296.346" gradientUnits="userSpaceOnUse">
<stop stop-color="#E7E7E7"/>
<stop offset="1" stop-color="white" stop-opacity="0"/>
</linearGradient>
<linearGradient id="paint1_linear_2063_249283" x1="147" y1="68.0204" x2="152.388" y2="229.507" gradientUnits="userSpaceOnUse">
<stop stop-color="#9C9C9C"/>
<stop offset="1" stop-color="#D9D9D9" stop-opacity="0"/>
</linearGradient>
<linearGradient id="paint2_linear_2063_249283" x1="127.058" y1="71.0488" x2="125.897" y2="204.952" gradientUnits="userSpaceOnUse">
<stop stop-color="#F0F0F0"/>
<stop offset="1" stop-color="white" stop-opacity="0"/>
</linearGradient>
<linearGradient id="paint3_linear_2063_249283" x1="130.144" y1="80.3977" x2="-66.749" y2="163.656" gradientUnits="userSpaceOnUse">
<stop stop-color="#ADB5BD"/>
<stop offset="0.66663" stop-color="#ADB5BD" stop-opacity="0"/>
</linearGradient>
<linearGradient id="paint4_linear_2063_249283" x1="299.5" y1="95.2206" x2="300.392" y2="184.472" gradientUnits="userSpaceOnUse">
<stop stop-color="#4B91E2"/>
<stop offset="1" stop-color="#4B91E2" stop-opacity="0"/>
</linearGradient>
<linearGradient id="paint5_linear_2063_249283" x1="78.5" y1="-8.47913" x2="80" y2="67.5209" gradientUnits="userSpaceOnUse">
<stop stop-color="#9CC5ED" stop-opacity="0.11"/>
<stop offset="0.821091" stop-color="#ADB5BD" stop-opacity="0"/>
</linearGradient>
<linearGradient id="paint6_linear_2063_249283" x1="331.225" y1="-8.47913" x2="332.725" y2="67.5209" gradientUnits="userSpaceOnUse">
<stop stop-color="#9CC5ED" stop-opacity="0.11"/>
<stop offset="0.821091" stop-color="#ADB5BD" stop-opacity="0"/>
</linearGradient>
<linearGradient id="paint7_linear_2063_249283" x1="381.77" y1="-8.47913" x2="383.27" y2="67.5209" gradientUnits="userSpaceOnUse">
<stop stop-color="#9CC5ED" stop-opacity="0.11"/>
<stop offset="0.821091" stop-color="#ADB5BD" stop-opacity="0"/>
</linearGradient>
<linearGradient id="paint8_linear_2063_249283" x1="27.9551" y1="92.6106" x2="29.4551" y2="168.611" gradientUnits="userSpaceOnUse">
<stop stop-color="#9CC5ED" stop-opacity="0.11"/>
<stop offset="0.821091" stop-color="#ADB5BD" stop-opacity="0"/>
</linearGradient>
<linearGradient id="paint9_linear_2063_249283" x1="179.59" y1="92.6106" x2="181.09" y2="168.611" gradientUnits="userSpaceOnUse">
<stop stop-color="#9CC5ED" stop-opacity="0.11"/>
<stop offset="0.821091" stop-color="#ADB5BD" stop-opacity="0"/>
</linearGradient>
<linearGradient id="paint10_linear_2063_249283" x1="280.68" y1="92.6106" x2="282.18" y2="168.611" gradientUnits="userSpaceOnUse">
<stop stop-color="#9CC5ED" stop-opacity="0.11"/>
<stop offset="0.821091" stop-color="#ADB5BD" stop-opacity="0"/>
</linearGradient>
<linearGradient id="paint11_linear_2063_249283" x1="331.225" y1="92.6106" x2="332.725" y2="168.611" gradientUnits="userSpaceOnUse">
<stop stop-color="#9CC5ED" stop-opacity="0.11"/>
<stop offset="0.821091" stop-color="#ADB5BD" stop-opacity="0"/>
</linearGradient>
<linearGradient id="paint12_linear_2063_249283" x1="78.5" y1="143.156" x2="80" y2="219.156" gradientUnits="userSpaceOnUse">
<stop stop-color="#9CC5ED" stop-opacity="0.11"/>
<stop offset="0.821091" stop-color="#ADB5BD" stop-opacity="0"/>
</linearGradient>
<linearGradient id="paint13_linear_2063_249283" x1="381.77" y1="143.156" x2="383.27" y2="219.156" gradientUnits="userSpaceOnUse">
<stop stop-color="#9CC5ED" stop-opacity="0.11"/>
<stop offset="0.821091" stop-color="#ADB5BD" stop-opacity="0"/>
</linearGradient>
<linearGradient id="paint14_linear_2063_249283" x1="78.5" y1="193.701" x2="80" y2="269.701" gradientUnits="userSpaceOnUse">
<stop stop-color="#9CC5ED" stop-opacity="0.11"/>
<stop offset="0.821091" stop-color="#ADB5BD" stop-opacity="0"/>
</linearGradient>
<linearGradient id="paint15_linear_2063_249283" x1="331.225" y1="193.701" x2="332.725" y2="269.701" gradientUnits="userSpaceOnUse">
<stop stop-color="#9CC5ED" stop-opacity="0.11"/>
<stop offset="0.821091" stop-color="#ADB5BD" stop-opacity="0"/>
</linearGradient>
<linearGradient id="paint16_linear_2063_249283" x1="325" y1="94.0204" x2="403.5" y2="94.0203" gradientUnits="userSpaceOnUse">
<stop stop-color="#CED4DA"/>
<stop offset="1" stop-color="#CED4DA" stop-opacity="0"/>
</linearGradient>
<linearGradient id="paint17_linear_2063_249283" x1="306.5" y1="94.4706" x2="305.71" y2="10.4686" gradientUnits="userSpaceOnUse">
<stop stop-color="#4B91E2"/>
<stop offset="1" stop-color="#4B91E2" stop-opacity="0"/>
</linearGradient>
<clipPath id="clip0_2063_249283">
<rect width="405" height="218" fill="white" transform="translate(0 -0.979614)"/>
</clipPath>
</defs>
</svg>
