<svg width="405" height="218" viewBox="0 0 405 218" fill="none" xmlns="http://www.w3.org/2000/svg">
<g clip-path="url(#clip0_2063_249189)">
<rect width="405" height="218" transform="translate(0 -0.979614)" fill="white"/>
<path d="M-2 109.02L292 109.02" stroke="url(#paint0_linear_2063_249189)" stroke-width="0.5"/>
<g opacity="0.2">
<rect x="0.319905" y="-43.1147" width="50.545" height="50.545" stroke="#E9ECEF" stroke-width="0.63981"/>
<rect x="50.8648" y="-43.1145" width="50.545" height="50.545" stroke="#E9ECEF" stroke-width="0.63981"/>
<rect x="101.41" y="-43.1145" width="50.545" height="50.545" stroke="#E9ECEF" stroke-width="0.63981"/>
<rect x="151.955" y="-43.1145" width="50.545" height="50.545" stroke="#E9ECEF" stroke-width="0.63981"/>
<rect x="202.5" y="-43.1145" width="50.545" height="50.545" stroke="#E9ECEF" stroke-width="0.63981"/>
<rect x="253.045" y="-43.1145" width="50.545" height="50.545" stroke="#E9ECEF" stroke-width="0.63981"/>
<rect x="303.59" y="-43.1145" width="50.545" height="50.545" stroke="#E9ECEF" stroke-width="0.63981"/>
<rect x="354.135" y="-43.1145" width="50.545" height="50.545" stroke="#E9ECEF" stroke-width="0.63981"/>
<rect x="0.319905" y="7.43038" width="50.545" height="50.545" stroke="#E9ECEF" stroke-width="0.63981"/>
<rect opacity="0.5" x="50.8648" y="7.43062" width="50.545" height="50.545" fill="url(#paint1_linear_2063_249189)" stroke="#E9ECEF" stroke-width="0.63981"/>
<rect x="101.41" y="7.43062" width="50.545" height="50.545" stroke="#E9ECEF" stroke-width="0.63981"/>
<rect x="151.955" y="7.43062" width="50.545" height="50.545" stroke="#E9ECEF" stroke-width="0.63981"/>
<rect x="202.5" y="7.43062" width="50.545" height="50.545" stroke="#E9ECEF" stroke-width="0.63981"/>
<rect x="253.045" y="7.43062" width="50.545" height="50.545" stroke="#E9ECEF" stroke-width="0.63981"/>
<rect x="303.59" y="7.43062" width="50.545" height="50.545" fill="url(#paint2_linear_2063_249189)" stroke="#E9ECEF" stroke-width="0.63981"/>
<rect x="354.135" y="7.43062" width="50.545" height="50.545" fill="url(#paint3_linear_2063_249189)" stroke="#E9ECEF" stroke-width="0.63981"/>
<rect x="0.319905" y="57.9754" width="50.545" height="50.545" stroke="#E9ECEF" stroke-width="0.63981"/>
<rect x="50.8648" y="57.9754" width="50.545" height="50.545" stroke="#E9ECEF" stroke-width="0.63981"/>
<rect x="101.41" y="57.9754" width="50.545" height="50.545" stroke="#E9ECEF" stroke-width="0.63981"/>
<rect x="151.955" y="57.9754" width="50.545" height="50.545" stroke="#E9ECEF" stroke-width="0.63981"/>
<rect x="202.5" y="57.9754" width="50.545" height="50.545" stroke="#E9ECEF" stroke-width="0.63981"/>
<rect x="253.045" y="57.9754" width="50.545" height="50.545" stroke="#E9ECEF" stroke-width="0.63981"/>
<rect x="303.59" y="57.9754" width="50.545" height="50.545" stroke="#E9ECEF" stroke-width="0.63981"/>
<rect x="354.135" y="57.9754" width="50.545" height="50.545" stroke="#E9ECEF" stroke-width="0.63981"/>
<rect opacity="0.5" x="0.319905" y="108.52" width="50.545" height="50.545" fill="url(#paint4_linear_2063_249189)" stroke="#E9ECEF" stroke-width="0.63981"/>
<rect x="50.8648" y="108.52" width="50.545" height="50.545" stroke="#E9ECEF" stroke-width="0.63981"/>
<rect x="101.41" y="108.52" width="50.545" height="50.545" stroke="#E9ECEF" stroke-width="0.63981"/>
<rect x="151.955" y="108.52" width="50.545" height="50.545" fill="url(#paint5_linear_2063_249189)" stroke="#E9ECEF" stroke-width="0.63981"/>
<rect x="202.5" y="108.52" width="50.545" height="50.545" stroke="#E9ECEF" stroke-width="0.63981"/>
<rect x="253.045" y="108.52" width="50.545" height="50.545" fill="url(#paint6_linear_2063_249189)" stroke="#E9ECEF" stroke-width="0.63981"/>
<rect x="303.59" y="108.52" width="50.545" height="50.545" fill="url(#paint7_linear_2063_249189)" stroke="#E9ECEF" stroke-width="0.63981"/>
<rect x="354.135" y="108.52" width="50.545" height="50.545" stroke="#E9ECEF" stroke-width="0.63981"/>
<rect x="0.319905" y="159.065" width="50.545" height="50.545" stroke="#E9ECEF" stroke-width="0.63981"/>
<rect x="50.8648" y="159.065" width="50.545" height="50.545" fill="url(#paint8_linear_2063_249189)" stroke="#E9ECEF" stroke-width="0.63981"/>
<rect x="101.41" y="159.065" width="50.545" height="50.545" stroke="#E9ECEF" stroke-width="0.63981"/>
<rect x="151.955" y="159.065" width="50.545" height="50.545" stroke="#E9ECEF" stroke-width="0.63981"/>
<rect x="202.5" y="159.065" width="50.545" height="50.545" stroke="#E9ECEF" stroke-width="0.63981"/>
<rect x="253.045" y="159.065" width="50.545" height="50.545" stroke="#E9ECEF" stroke-width="0.63981"/>
<rect x="303.59" y="159.065" width="50.545" height="50.545" stroke="#E9ECEF" stroke-width="0.63981"/>
<rect x="354.135" y="159.065" width="50.545" height="50.545" fill="url(#paint9_linear_2063_249189)" stroke="#E9ECEF" stroke-width="0.63981"/>
<rect x="0.319905" y="209.61" width="50.545" height="50.545" stroke="#E9ECEF" stroke-width="0.63981"/>
<rect opacity="0.5" x="50.8648" y="209.61" width="50.545" height="50.545" fill="url(#paint10_linear_2063_249189)" stroke="#E9ECEF" stroke-width="0.63981"/>
<rect x="101.41" y="209.61" width="50.545" height="50.545" stroke="#E9ECEF" stroke-width="0.63981"/>
<rect x="151.955" y="209.61" width="50.545" height="50.545" stroke="#E9ECEF" stroke-width="0.63981"/>
<rect x="202.5" y="209.61" width="50.545" height="50.545" stroke="#E9ECEF" stroke-width="0.63981"/>
<rect x="253.045" y="209.61" width="50.545" height="50.545" stroke="#E9ECEF" stroke-width="0.63981"/>
<rect opacity="0.5" x="303.59" y="209.61" width="50.545" height="50.545" fill="url(#paint11_linear_2063_249189)" stroke="#E9ECEF" stroke-width="0.63981"/>
<rect x="354.135" y="209.61" width="50.545" height="50.545" stroke="#E9ECEF" stroke-width="0.63981"/>
</g>
<rect x="292.375" y="51.8456" width="55.25" height="13.25" rx="1.875" fill="#F8F9FA"/>
<path d="M311.646 59.7831V54.6581H312.592V60.6581H311.736L311.646 59.7831ZM308.896 58.5917V58.5096C308.896 58.1893 308.934 57.8977 309.01 57.6346C309.085 57.369 309.195 57.1412 309.338 56.951C309.481 56.7583 309.656 56.6112 309.861 56.5096C310.067 56.4055 310.299 56.3534 310.557 56.3534C310.812 56.3534 311.036 56.4029 311.229 56.5018C311.421 56.6008 311.585 56.7427 311.721 56.9276C311.856 57.1099 311.964 57.3287 312.045 57.5839C312.126 57.8365 312.183 58.1177 312.217 58.4276V58.6893C312.183 58.9914 312.126 59.2675 312.045 59.5175C311.964 59.7675 311.856 59.9836 311.721 60.1659C311.585 60.3482 311.42 60.4888 311.225 60.5878C311.032 60.6867 310.807 60.7362 310.549 60.7362C310.294 60.7362 310.063 60.6828 309.857 60.576C309.654 60.4693 309.481 60.3195 309.338 60.1268C309.195 59.9341 309.085 59.7076 309.01 59.4471C308.934 59.1841 308.896 58.899 308.896 58.5917ZM309.838 58.5096V58.5917C309.838 58.7844 309.855 58.9641 309.889 59.1307C309.925 59.2974 309.981 59.4445 310.057 59.5721C310.132 59.6971 310.23 59.7961 310.35 59.869C310.472 59.9393 310.618 59.9745 310.787 59.9745C311.001 59.9745 311.176 59.9276 311.314 59.8339C311.452 59.7401 311.561 59.6138 311.639 59.455C311.719 59.2935 311.774 59.1138 311.803 58.9159V58.2089C311.787 58.0552 311.755 57.912 311.705 57.7792C311.658 57.6464 311.594 57.5305 311.514 57.4315C311.433 57.33 311.333 57.2518 311.213 57.1971C311.096 57.1399 310.956 57.1112 310.795 57.1112C310.623 57.1112 310.477 57.1477 310.357 57.2206C310.238 57.2935 310.139 57.3938 310.061 57.5214C309.985 57.649 309.929 57.7974 309.893 57.9667C309.856 58.1359 309.838 58.3169 309.838 58.5096Z" fill="#495057"/>
<path d="M315.885 55.7284L314.186 60.6581H313.158L315.299 54.9706H315.955L315.885 55.7284ZM317.307 60.6581L315.604 55.7284L315.529 54.9706H316.189L318.338 60.6581H317.307ZM317.225 58.5487V59.326H314.131V58.5487H317.225Z" fill="#495057"/>
<path d="M319.756 57.244V62.2831H318.814V56.4315H319.682L319.756 57.244ZM322.51 58.5057V58.5878C322.51 58.8951 322.473 59.1802 322.4 59.4432C322.33 59.7037 322.225 59.9315 322.084 60.1268C321.946 60.3195 321.775 60.4693 321.572 60.576C321.369 60.6828 321.135 60.7362 320.869 60.7362C320.606 60.7362 320.376 60.688 320.178 60.5917C319.982 60.4927 319.817 60.3534 319.682 60.1737C319.546 59.994 319.437 59.7831 319.354 59.5409C319.273 59.2961 319.215 59.0279 319.182 58.7362V58.4198C319.215 58.1099 319.273 57.8287 319.354 57.576C319.437 57.3234 319.546 57.106 319.682 56.9237C319.817 56.7414 319.982 56.6008 320.178 56.5018C320.373 56.4029 320.601 56.3534 320.861 56.3534C321.127 56.3534 321.363 56.4055 321.568 56.5096C321.774 56.6112 321.947 56.757 322.088 56.9471C322.229 57.1346 322.334 57.3612 322.404 57.6268C322.475 57.8899 322.51 58.1828 322.51 58.5057ZM321.568 58.5878V58.5057C321.568 58.3104 321.55 58.1294 321.514 57.9628C321.477 57.7935 321.42 57.6451 321.342 57.5175C321.264 57.3899 321.163 57.2909 321.041 57.2206C320.921 57.1477 320.777 57.1112 320.607 57.1112C320.441 57.1112 320.298 57.1399 320.178 57.1971C320.058 57.2518 319.958 57.3287 319.877 57.4276C319.796 57.5266 319.734 57.6425 319.689 57.7753C319.645 57.9055 319.614 58.0474 319.596 58.201V58.9589C319.627 59.1464 319.68 59.3182 319.756 59.4745C319.831 59.6307 319.938 59.7557 320.076 59.8495C320.217 59.9406 320.396 59.9862 320.615 59.9862C320.785 59.9862 320.929 59.9497 321.049 59.8768C321.169 59.8039 321.266 59.7037 321.342 59.576C321.42 59.4458 321.477 59.2961 321.514 59.1268C321.55 58.9576 321.568 58.7779 321.568 58.5878Z" fill="#495057"/>
<path d="M324.256 57.244V62.2831H323.314V56.4315H324.182L324.256 57.244ZM327.01 58.5057V58.5878C327.01 58.8951 326.973 59.1802 326.9 59.4432C326.83 59.7037 326.725 59.9315 326.584 60.1268C326.446 60.3195 326.275 60.4693 326.072 60.576C325.869 60.6828 325.635 60.7362 325.369 60.7362C325.106 60.7362 324.876 60.688 324.678 60.5917C324.482 60.4927 324.317 60.3534 324.182 60.1737C324.046 59.994 323.937 59.7831 323.854 59.5409C323.773 59.2961 323.715 59.0279 323.682 58.7362V58.4198C323.715 58.1099 323.773 57.8287 323.854 57.576C323.937 57.3234 324.046 57.106 324.182 56.9237C324.317 56.7414 324.482 56.6008 324.678 56.5018C324.873 56.4029 325.101 56.3534 325.361 56.3534C325.627 56.3534 325.863 56.4055 326.068 56.5096C326.274 56.6112 326.447 56.757 326.588 56.9471C326.729 57.1346 326.834 57.3612 326.904 57.6268C326.975 57.8899 327.01 58.1828 327.01 58.5057ZM326.068 58.5878V58.5057C326.068 58.3104 326.05 58.1294 326.014 57.9628C325.977 57.7935 325.92 57.6451 325.842 57.5175C325.764 57.3899 325.663 57.2909 325.541 57.2206C325.421 57.1477 325.277 57.1112 325.107 57.1112C324.941 57.1112 324.798 57.1399 324.678 57.1971C324.558 57.2518 324.458 57.3287 324.377 57.4276C324.296 57.5266 324.234 57.6425 324.189 57.7753C324.145 57.9055 324.114 58.0474 324.096 58.201V58.9589C324.127 59.1464 324.18 59.3182 324.256 59.4745C324.331 59.6307 324.438 59.7557 324.576 59.8495C324.717 59.9406 324.896 59.9862 325.115 59.9862C325.285 59.9862 325.429 59.9497 325.549 59.8768C325.669 59.8039 325.766 59.7037 325.842 59.576C325.92 59.4458 325.977 59.2961 326.014 59.1268C326.05 58.9576 326.068 58.7779 326.068 58.5878Z" fill="#495057"/>
<path d="M330.182 59.5135C330.182 59.4198 330.158 59.3352 330.111 59.2596C330.064 59.1815 329.975 59.1112 329.842 59.0487C329.712 58.9862 329.519 58.9289 329.264 58.8768C329.04 58.8274 328.834 58.7688 328.646 58.701C328.462 58.6307 328.303 58.5461 328.17 58.4471C328.037 58.3482 327.934 58.231 327.861 58.0956C327.788 57.9602 327.752 57.8039 327.752 57.6268C327.752 57.455 327.79 57.2922 327.865 57.1385C327.941 56.9849 328.049 56.8495 328.189 56.7323C328.33 56.6151 328.501 56.5227 328.701 56.455C328.904 56.3872 329.131 56.3534 329.381 56.3534C329.735 56.3534 330.038 56.4133 330.291 56.5331C330.546 56.6503 330.742 56.8104 330.877 57.0135C331.012 57.2141 331.08 57.4406 331.08 57.6932H330.139C330.139 57.5813 330.11 57.4771 330.053 57.3807C329.998 57.2818 329.915 57.2024 329.803 57.1425C329.691 57.08 329.55 57.0487 329.381 57.0487C329.219 57.0487 329.085 57.0747 328.979 57.1268C328.874 57.1763 328.796 57.2414 328.744 57.3221C328.695 57.4029 328.67 57.4914 328.67 57.5878C328.67 57.6581 328.683 57.7219 328.709 57.7792C328.738 57.8339 328.785 57.8846 328.85 57.9315C328.915 57.9758 329.003 58.0175 329.115 58.0565C329.23 58.0956 329.373 58.1333 329.545 58.1698C329.868 58.2375 330.145 58.3247 330.377 58.4315C330.611 58.5357 330.791 58.6711 330.916 58.8378C331.041 59.0018 331.104 59.2102 331.104 59.4628C331.104 59.6503 331.063 59.8221 330.982 59.9784C330.904 60.132 330.79 60.2662 330.639 60.3807C330.488 60.4927 330.307 60.58 330.096 60.6425C329.887 60.705 329.653 60.7362 329.393 60.7362C329.01 60.7362 328.686 60.6685 328.42 60.5331C328.154 60.3951 327.952 60.2193 327.814 60.0057C327.679 59.7896 327.611 59.5656 327.611 59.3339H328.521C328.532 59.5083 328.58 59.6477 328.666 59.7518C328.755 59.8534 328.864 59.9276 328.994 59.9745C329.127 60.0188 329.264 60.0409 329.404 60.0409C329.574 60.0409 329.715 60.0188 329.83 59.9745C329.945 59.9276 330.032 59.8651 330.092 59.787C330.152 59.7063 330.182 59.6151 330.182 59.5135Z" fill="#495057"/>
<rect x="292.375" y="51.8456" width="55.25" height="13.25" rx="1.875" stroke="#E9ECEF" stroke-width="0.75"/>
<rect x="292.375" y="101.846" width="55.25" height="13.25" rx="1.875" fill="#F8F9FA"/>
<path d="M307.627 110.154L308.76 105.744H309.354L309.287 106.881L308.076 111.432H307.459L307.627 110.154ZM306.779 105.744L307.697 110.119L307.779 111.432H307.123L305.807 105.744H306.779ZM310.639 110.107L311.545 105.744H312.521L311.205 111.432H310.549L310.639 110.107ZM309.584 105.744L310.705 110.166L310.869 111.432H310.252L309.061 106.881L308.998 105.744H309.584Z" fill="#495057"/>
<path d="M314.893 111.51C314.58 111.51 314.298 111.459 314.045 111.357C313.795 111.253 313.581 111.109 313.404 110.924C313.23 110.739 313.096 110.521 313.002 110.271C312.908 110.021 312.861 109.752 312.861 109.463V109.307C312.861 108.976 312.91 108.676 313.006 108.408C313.102 108.14 313.236 107.911 313.408 107.721C313.58 107.528 313.783 107.381 314.018 107.279C314.252 107.178 314.506 107.127 314.779 107.127C315.081 107.127 315.346 107.178 315.572 107.279C315.799 107.381 315.986 107.524 316.135 107.709C316.286 107.891 316.398 108.109 316.471 108.361C316.546 108.614 316.584 108.892 316.584 109.197V109.599H313.318V108.924H315.654V108.849C315.649 108.68 315.615 108.521 315.553 108.373C315.493 108.224 315.4 108.105 315.275 108.014C315.15 107.922 314.984 107.877 314.775 107.877C314.619 107.877 314.48 107.911 314.357 107.978C314.238 108.043 314.137 108.139 314.057 108.264C313.976 108.389 313.913 108.54 313.869 108.717C313.827 108.891 313.807 109.088 313.807 109.307V109.463C313.807 109.648 313.831 109.82 313.881 109.978C313.933 110.135 314.008 110.271 314.107 110.389C314.206 110.506 314.326 110.598 314.467 110.666C314.607 110.731 314.768 110.764 314.947 110.764C315.174 110.764 315.376 110.718 315.553 110.627C315.73 110.536 315.883 110.407 316.014 110.24L316.51 110.721C316.419 110.853 316.3 110.981 316.154 111.103C316.008 111.223 315.83 111.321 315.619 111.396C315.411 111.472 315.169 111.51 314.893 111.51Z" fill="#495057"/>
<path d="M317.322 105.432H318.264V110.529L318.174 111.432H317.322V105.432ZM321.021 109.279V109.361C321.021 109.674 320.986 109.961 320.916 110.224C320.848 110.485 320.744 110.711 320.604 110.904C320.465 111.097 320.294 111.247 320.088 111.353C319.885 111.458 319.649 111.51 319.381 111.51C319.118 111.51 318.889 111.46 318.693 111.361C318.498 111.262 318.334 111.122 318.201 110.939C318.071 110.757 317.965 110.54 317.885 110.287C317.804 110.034 317.747 109.756 317.713 109.451V109.189C317.747 108.882 317.804 108.603 317.885 108.353C317.965 108.101 318.071 107.883 318.201 107.701C318.334 107.516 318.497 107.374 318.689 107.275C318.885 107.176 319.113 107.127 319.373 107.127C319.644 107.127 319.882 107.179 320.088 107.283C320.296 107.387 320.469 107.536 320.607 107.728C320.745 107.918 320.848 108.145 320.916 108.408C320.986 108.671 321.021 108.961 321.021 109.279ZM320.08 109.361V109.279C320.08 109.089 320.064 108.911 320.033 108.744C320.002 108.575 319.95 108.426 319.877 108.299C319.807 108.171 319.71 108.071 319.588 107.998C319.468 107.922 319.318 107.885 319.139 107.885C318.972 107.885 318.829 107.913 318.709 107.971C318.589 108.028 318.489 108.106 318.408 108.205C318.327 108.304 318.264 108.418 318.217 108.549C318.173 108.679 318.143 108.82 318.127 108.971V109.678C318.15 109.873 318.2 110.053 318.275 110.217C318.354 110.378 318.463 110.508 318.604 110.607C318.744 110.704 318.925 110.752 319.146 110.752C319.321 110.752 319.468 110.717 319.588 110.646C319.708 110.576 319.803 110.478 319.873 110.353C319.946 110.226 319.998 110.077 320.029 109.908C320.063 109.739 320.08 109.557 320.08 109.361Z" fill="#495057"/>
<path d="M324.189 110.287C324.189 110.193 324.166 110.109 324.119 110.033C324.072 109.955 323.982 109.885 323.85 109.822C323.719 109.76 323.527 109.702 323.271 109.65C323.048 109.601 322.842 109.542 322.654 109.474C322.469 109.404 322.311 109.32 322.178 109.221C322.045 109.122 321.942 109.004 321.869 108.869C321.796 108.734 321.76 108.577 321.76 108.4C321.76 108.228 321.798 108.066 321.873 107.912C321.949 107.758 322.057 107.623 322.197 107.506C322.338 107.389 322.508 107.296 322.709 107.228C322.912 107.161 323.139 107.127 323.389 107.127C323.743 107.127 324.046 107.187 324.299 107.307C324.554 107.424 324.749 107.584 324.885 107.787C325.02 107.988 325.088 108.214 325.088 108.467H324.146C324.146 108.355 324.118 108.251 324.061 108.154C324.006 108.055 323.923 107.976 323.811 107.916C323.699 107.853 323.558 107.822 323.389 107.822C323.227 107.822 323.093 107.848 322.986 107.9C322.882 107.95 322.804 108.015 322.752 108.096C322.702 108.176 322.678 108.265 322.678 108.361C322.678 108.432 322.691 108.495 322.717 108.553C322.745 108.607 322.792 108.658 322.857 108.705C322.923 108.749 323.011 108.791 323.123 108.83C323.238 108.869 323.381 108.907 323.553 108.943C323.876 109.011 324.153 109.098 324.385 109.205C324.619 109.309 324.799 109.445 324.924 109.611C325.049 109.775 325.111 109.984 325.111 110.236C325.111 110.424 325.071 110.596 324.99 110.752C324.912 110.905 324.798 111.04 324.646 111.154C324.495 111.266 324.314 111.353 324.104 111.416C323.895 111.478 323.661 111.51 323.4 111.51C323.018 111.51 322.693 111.442 322.428 111.307C322.162 111.168 321.96 110.993 321.822 110.779C321.687 110.563 321.619 110.339 321.619 110.107H322.529C322.54 110.282 322.588 110.421 322.674 110.525C322.762 110.627 322.872 110.701 323.002 110.748C323.135 110.792 323.271 110.814 323.412 110.814C323.581 110.814 323.723 110.792 323.838 110.748C323.952 110.701 324.04 110.639 324.1 110.56C324.16 110.48 324.189 110.389 324.189 110.287Z" fill="#495057"/>
<path d="M326.943 107.205V111.432H325.998V107.205H326.943ZM325.936 106.096C325.936 105.952 325.982 105.834 326.076 105.74C326.173 105.644 326.305 105.596 326.475 105.596C326.641 105.596 326.773 105.644 326.869 105.74C326.965 105.834 327.014 105.952 327.014 106.096C327.014 106.236 326.965 106.353 326.869 106.447C326.773 106.541 326.641 106.588 326.475 106.588C326.305 106.588 326.173 106.541 326.076 106.447C325.982 106.353 325.936 106.236 325.936 106.096Z" fill="#495057"/>
<path d="M329.912 107.205V107.892H327.529V107.205H329.912ZM328.217 106.17H329.158V110.264C329.158 110.394 329.176 110.494 329.213 110.564C329.252 110.632 329.305 110.678 329.373 110.701C329.441 110.724 329.52 110.736 329.611 110.736C329.676 110.736 329.739 110.732 329.799 110.724C329.859 110.717 329.907 110.709 329.943 110.701L329.947 111.42C329.869 111.443 329.778 111.464 329.674 111.482C329.572 111.501 329.455 111.51 329.322 111.51C329.106 111.51 328.915 111.472 328.748 111.396C328.581 111.318 328.451 111.192 328.357 111.017C328.264 110.843 328.217 110.611 328.217 110.322V106.17Z" fill="#495057"/>
<path d="M332.502 111.51C332.189 111.51 331.907 111.459 331.654 111.357C331.404 111.253 331.191 111.109 331.014 110.924C330.839 110.739 330.705 110.521 330.611 110.271C330.518 110.021 330.471 109.752 330.471 109.463V109.307C330.471 108.976 330.519 108.676 330.615 108.408C330.712 108.14 330.846 107.911 331.018 107.721C331.189 107.528 331.393 107.381 331.627 107.279C331.861 107.178 332.115 107.127 332.389 107.127C332.691 107.127 332.955 107.178 333.182 107.279C333.408 107.381 333.596 107.524 333.744 107.709C333.895 107.891 334.007 108.109 334.08 108.361C334.156 108.614 334.193 108.892 334.193 109.197V109.599H330.928V108.924H333.264V108.849C333.258 108.68 333.225 108.521 333.162 108.373C333.102 108.224 333.01 108.105 332.885 108.014C332.76 107.922 332.593 107.877 332.385 107.877C332.229 107.877 332.089 107.911 331.967 107.978C331.847 108.043 331.747 108.139 331.666 108.264C331.585 108.389 331.523 108.54 331.479 108.717C331.437 108.891 331.416 109.088 331.416 109.307V109.463C331.416 109.648 331.441 109.82 331.49 109.978C331.542 110.135 331.618 110.271 331.717 110.389C331.816 110.506 331.936 110.598 332.076 110.666C332.217 110.731 332.377 110.764 332.557 110.764C332.783 110.764 332.985 110.718 333.162 110.627C333.339 110.536 333.493 110.407 333.623 110.24L334.119 110.721C334.028 110.853 333.91 110.981 333.764 111.103C333.618 111.223 333.439 111.321 333.229 111.396C333.02 111.472 332.778 111.51 332.502 111.51Z" fill="#495057"/>
<rect x="292.375" y="101.846" width="55.25" height="13.25" rx="1.875" stroke="#E9ECEF" stroke-width="0.75"/>
<rect x="292.375" y="152.846" width="55.25" height="13.25" rx="1.875" fill="#F8F9FA"/>
<path d="M304.916 160.351H303.436V159.574H304.916C305.174 159.574 305.382 159.532 305.541 159.449C305.7 159.366 305.816 159.251 305.889 159.105C305.964 158.957 306.002 158.788 306.002 158.598C306.002 158.418 305.964 158.25 305.889 158.094C305.816 157.935 305.7 157.807 305.541 157.711C305.382 157.614 305.174 157.566 304.916 157.566H303.736V162.473H302.756V156.785H304.916C305.356 156.785 305.73 156.863 306.037 157.019C306.347 157.173 306.583 157.387 306.744 157.66C306.906 157.931 306.986 158.241 306.986 158.59C306.986 158.957 306.906 159.272 306.744 159.535C306.583 159.798 306.347 160 306.037 160.141C305.73 160.281 305.356 160.351 304.916 160.351Z" fill="#495057"/>
<path d="M308.779 156.473V162.473H307.834V156.473H308.779Z" fill="#495057"/>
<path d="M312.193 161.625V159.609C312.193 159.458 312.166 159.328 312.111 159.219C312.057 159.109 311.973 159.025 311.861 158.965C311.752 158.905 311.614 158.875 311.447 158.875C311.294 158.875 311.161 158.901 311.049 158.953C310.937 159.005 310.85 159.075 310.787 159.164C310.725 159.252 310.693 159.353 310.693 159.465H309.756C309.756 159.298 309.796 159.137 309.877 158.98C309.958 158.824 310.075 158.685 310.229 158.562C310.382 158.44 310.566 158.344 310.779 158.273C310.993 158.203 311.232 158.168 311.498 158.168C311.816 158.168 312.097 158.221 312.342 158.328C312.589 158.435 312.783 158.596 312.924 158.812C313.067 159.026 313.139 159.294 313.139 159.617V161.496C313.139 161.689 313.152 161.862 313.178 162.016C313.206 162.167 313.247 162.298 313.299 162.41V162.473H312.334C312.29 162.371 312.255 162.242 312.229 162.086C312.205 161.927 312.193 161.773 312.193 161.625ZM312.33 159.902L312.338 160.484H311.662C311.488 160.484 311.334 160.501 311.201 160.535C311.068 160.566 310.958 160.613 310.869 160.676C310.781 160.738 310.714 160.814 310.67 160.902C310.626 160.991 310.604 161.091 310.604 161.203C310.604 161.315 310.63 161.418 310.682 161.512C310.734 161.603 310.809 161.674 310.908 161.726C311.01 161.779 311.132 161.805 311.275 161.805C311.468 161.805 311.636 161.766 311.779 161.687C311.925 161.607 312.04 161.509 312.123 161.394C312.206 161.277 312.251 161.167 312.256 161.062L312.561 161.48C312.529 161.587 312.476 161.702 312.4 161.824C312.325 161.946 312.226 162.064 312.104 162.176C311.984 162.285 311.839 162.375 311.67 162.445C311.503 162.516 311.311 162.551 311.092 162.551C310.816 162.551 310.57 162.496 310.354 162.387C310.137 162.275 309.968 162.125 309.846 161.937C309.723 161.747 309.662 161.532 309.662 161.293C309.662 161.069 309.704 160.871 309.787 160.699C309.873 160.525 309.998 160.379 310.162 160.262C310.329 160.144 310.532 160.056 310.771 159.996C311.011 159.933 311.285 159.902 311.592 159.902H312.33Z" fill="#495057"/>
<path d="M316.061 158.246V158.933H313.678V158.246H316.061ZM314.365 157.211H315.307V161.305C315.307 161.435 315.325 161.535 315.361 161.605C315.4 161.673 315.454 161.719 315.521 161.742C315.589 161.766 315.669 161.777 315.76 161.777C315.825 161.777 315.887 161.773 315.947 161.766C316.007 161.758 316.055 161.75 316.092 161.742L316.096 162.461C316.018 162.484 315.926 162.505 315.822 162.523C315.721 162.542 315.604 162.551 315.471 162.551C315.255 162.551 315.063 162.513 314.896 162.437C314.73 162.359 314.6 162.233 314.506 162.058C314.412 161.884 314.365 161.652 314.365 161.363V157.211Z" fill="#495057"/>
<path d="M318.061 162.473H317.119V157.84C317.119 157.525 317.178 157.26 317.295 157.047C317.415 156.831 317.585 156.668 317.807 156.558C318.028 156.446 318.29 156.391 318.592 156.391C318.686 156.391 318.778 156.397 318.869 156.41C318.96 156.42 319.049 156.437 319.135 156.461L319.111 157.187C319.059 157.174 319.002 157.165 318.939 157.16C318.88 157.155 318.814 157.152 318.744 157.152C318.601 157.152 318.477 157.18 318.373 157.234C318.271 157.286 318.193 157.363 318.139 157.465C318.087 157.566 318.061 157.691 318.061 157.84V162.473ZM318.932 158.246V158.933H316.471V158.246H318.932Z" fill="#495057"/>
<path d="M319.436 160.406V160.316C319.436 160.012 319.48 159.729 319.568 159.469C319.657 159.206 319.785 158.978 319.951 158.785C320.12 158.59 320.326 158.439 320.568 158.332C320.813 158.223 321.089 158.168 321.396 158.168C321.706 158.168 321.982 158.223 322.225 158.332C322.469 158.439 322.676 158.59 322.846 158.785C323.015 158.978 323.144 159.206 323.232 159.469C323.321 159.729 323.365 160.012 323.365 160.316V160.406C323.365 160.711 323.321 160.993 323.232 161.254C323.144 161.514 323.015 161.742 322.846 161.937C322.676 162.13 322.471 162.281 322.229 162.391C321.986 162.497 321.712 162.551 321.404 162.551C321.094 162.551 320.817 162.497 320.572 162.391C320.33 162.281 320.124 162.13 319.955 161.937C319.786 161.742 319.657 161.514 319.568 161.254C319.48 160.993 319.436 160.711 319.436 160.406ZM320.377 160.316V160.406C320.377 160.596 320.396 160.776 320.436 160.945C320.475 161.114 320.536 161.263 320.619 161.391C320.702 161.518 320.809 161.618 320.939 161.691C321.07 161.764 321.225 161.801 321.404 161.801C321.579 161.801 321.73 161.764 321.857 161.691C321.988 161.618 322.094 161.518 322.178 161.391C322.261 161.263 322.322 161.114 322.361 160.945C322.403 160.776 322.424 160.596 322.424 160.406V160.316C322.424 160.129 322.403 159.952 322.361 159.785C322.322 159.616 322.26 159.466 322.174 159.336C322.09 159.206 321.984 159.104 321.854 159.031C321.726 158.956 321.574 158.918 321.396 158.918C321.219 158.918 321.066 158.956 320.936 159.031C320.808 159.104 320.702 159.206 320.619 159.336C320.536 159.466 320.475 159.616 320.436 159.785C320.396 159.952 320.377 160.129 320.377 160.316Z" fill="#495057"/>
<path d="M325.1 159.051V162.473H324.158V158.246H325.057L325.1 159.051ZM326.393 158.219L326.385 159.094C326.327 159.083 326.265 159.075 326.197 159.07C326.132 159.065 326.067 159.062 326.002 159.062C325.84 159.062 325.699 159.086 325.576 159.133C325.454 159.177 325.351 159.242 325.268 159.328C325.187 159.411 325.124 159.513 325.08 159.633C325.036 159.752 325.01 159.887 325.002 160.035L324.787 160.051C324.787 159.785 324.813 159.539 324.865 159.312C324.917 159.086 324.995 158.887 325.1 158.715C325.206 158.543 325.339 158.409 325.498 158.312C325.66 158.216 325.846 158.168 326.057 158.168C326.114 158.168 326.175 158.173 326.24 158.183C326.308 158.194 326.359 158.206 326.393 158.219Z" fill="#495057"/>
<path d="M327.924 159.105V162.473H326.982V158.246H327.869L327.924 159.105ZM327.771 160.203L327.451 160.199C327.451 159.907 327.488 159.638 327.561 159.391C327.633 159.143 327.74 158.928 327.881 158.746C328.021 158.561 328.196 158.419 328.404 158.32C328.615 158.219 328.859 158.168 329.135 158.168C329.327 158.168 329.503 158.196 329.662 158.254C329.824 158.308 329.963 158.396 330.08 158.516C330.2 158.635 330.291 158.789 330.354 158.976C330.419 159.164 330.451 159.391 330.451 159.656V162.473H329.51V159.738C329.51 159.532 329.479 159.371 329.416 159.254C329.356 159.137 329.269 159.053 329.154 159.004C329.042 158.952 328.908 158.926 328.752 158.926C328.575 158.926 328.424 158.96 328.299 159.027C328.176 159.095 328.076 159.187 327.998 159.305C327.92 159.422 327.863 159.557 327.826 159.711C327.79 159.864 327.771 160.029 327.771 160.203ZM330.393 159.953L329.951 160.051C329.951 159.795 329.986 159.555 330.057 159.328C330.13 159.099 330.235 158.898 330.373 158.726C330.514 158.552 330.687 158.415 330.893 158.316C331.098 158.217 331.334 158.168 331.6 158.168C331.816 158.168 332.008 158.198 332.178 158.258C332.35 158.315 332.495 158.406 332.615 158.531C332.735 158.656 332.826 158.819 332.889 159.019C332.951 159.217 332.982 159.457 332.982 159.738V162.473H332.037V159.734C332.037 159.521 332.006 159.355 331.943 159.238C331.883 159.121 331.798 159.04 331.686 158.996C331.574 158.949 331.439 158.926 331.283 158.926C331.137 158.926 331.008 158.953 330.896 159.008C330.787 159.06 330.695 159.134 330.619 159.23C330.544 159.324 330.486 159.432 330.447 159.555C330.411 159.677 330.393 159.81 330.393 159.953Z" fill="#495057"/>
<path d="M336.322 161.328C336.322 161.234 336.299 161.15 336.252 161.074C336.205 160.996 336.115 160.926 335.982 160.863C335.852 160.801 335.66 160.743 335.404 160.691C335.18 160.642 334.975 160.583 334.787 160.516C334.602 160.445 334.443 160.361 334.311 160.262C334.178 160.163 334.075 160.045 334.002 159.91C333.929 159.775 333.893 159.618 333.893 159.441C333.893 159.269 333.93 159.107 334.006 158.953C334.081 158.799 334.189 158.664 334.33 158.547C334.471 158.43 334.641 158.337 334.842 158.269C335.045 158.202 335.271 158.168 335.521 158.168C335.876 158.168 336.179 158.228 336.432 158.348C336.687 158.465 336.882 158.625 337.018 158.828C337.153 159.029 337.221 159.255 337.221 159.508H336.279C336.279 159.396 336.251 159.292 336.193 159.195C336.139 159.096 336.055 159.017 335.943 158.957C335.831 158.894 335.691 158.863 335.521 158.863C335.36 158.863 335.226 158.889 335.119 158.941C335.015 158.991 334.937 159.056 334.885 159.137C334.835 159.217 334.811 159.306 334.811 159.402C334.811 159.473 334.824 159.536 334.85 159.594C334.878 159.648 334.925 159.699 334.99 159.746C335.055 159.79 335.144 159.832 335.256 159.871C335.37 159.91 335.514 159.948 335.686 159.984C336.008 160.052 336.286 160.139 336.518 160.246C336.752 160.35 336.932 160.486 337.057 160.652C337.182 160.816 337.244 161.025 337.244 161.277C337.244 161.465 337.204 161.637 337.123 161.793C337.045 161.946 336.93 162.081 336.779 162.195C336.628 162.307 336.447 162.394 336.236 162.457C336.028 162.519 335.794 162.551 335.533 162.551C335.15 162.551 334.826 162.483 334.561 162.348C334.295 162.21 334.093 162.034 333.955 161.82C333.82 161.604 333.752 161.38 333.752 161.148H334.662C334.673 161.323 334.721 161.462 334.807 161.566C334.895 161.668 335.005 161.742 335.135 161.789C335.268 161.833 335.404 161.855 335.545 161.855C335.714 161.855 335.856 161.833 335.971 161.789C336.085 161.742 336.173 161.68 336.232 161.601C336.292 161.521 336.322 161.43 336.322 161.328Z" fill="#495057"/>
<rect x="292.375" y="152.846" width="55.25" height="13.25" rx="1.875" stroke="#E9ECEF" stroke-width="0.75"/>
<rect width="110" height="110" transform="translate(51 54.0204)" fill="white"/>
<rect x="58.4167" y="61.4371" width="95.1667" height="95.1667" rx="8.02083" stroke="#E9ECEF" stroke-opacity="0.5" stroke-width="0.833333"/>
<rect x="65.375" y="68.3954" width="80.25" height="80.25" rx="7.21875" fill="white"/>
<path d="M111.136 94.2474L101.644 122.724C101.466 123.199 100.932 123.436 100.398 123.317C99.9233 123.139 99.686 122.605 99.8047 122.071L109.297 93.5948C109.475 93.1202 110.009 92.8829 110.543 93.0016C111.017 93.1796 111.255 93.7135 111.136 94.2474ZM96.6011 101.248L88.8887 108.13L96.6011 115.012C97.0164 115.368 97.0164 115.961 96.6604 116.376C96.3638 116.791 95.7112 116.791 95.3552 116.435L86.8123 108.842C86.575 108.664 86.5156 108.426 86.5156 108.13C86.5156 107.892 86.575 107.655 86.8123 107.418L95.3552 99.8241C95.7112 99.5275 96.3638 99.5275 96.6604 99.9427C97.0164 100.299 97.0164 100.951 96.6011 101.248ZM115.585 99.8241L124.128 107.418C124.366 107.655 124.484 107.892 124.484 108.13C124.484 108.426 124.366 108.664 124.128 108.842L115.585 116.435C115.229 116.791 114.577 116.791 114.28 116.376C113.924 115.961 113.924 115.368 114.34 115.012L122.052 108.13L114.34 101.248C113.924 100.951 113.924 100.299 114.28 99.9427C114.577 99.5275 115.229 99.5275 115.585 99.8241Z" fill="#6C757D"/>
<rect x="65.375" y="68.3954" width="80.25" height="80.25" rx="7.21875" stroke="#ADB5BD" stroke-width="0.75"/>
<rect x="51.4167" y="54.4371" width="109.167" height="109.167" rx="8.02083" stroke="#E9ECEF" stroke-opacity="0.8" stroke-width="0.833333"/>
<path d="M292 59.0204H230C227.791 59.0204 226 60.8112 226 63.0204V155.02C226 157.23 227.791 159.02 230 159.02H292" stroke="#E9ECEF" stroke-width="0.5"/>
<rect x="197" y="104.02" width="10" height="10" rx="4" fill="white" fill-opacity="0.5"/>
<path d="M201.859 106.462L203.98 108.77L201.859 111.091C201.824 111.126 201.801 111.173 201.801 111.208C201.801 111.266 201.824 111.313 201.871 111.349C201.941 111.419 202.059 111.419 202.129 111.337L204.379 108.899C204.449 108.829 204.449 108.724 204.379 108.653L202.129 106.216C202.059 106.134 201.941 106.134 201.871 106.204C201.789 106.274 201.789 106.391 201.859 106.462ZM202.129 108.899C202.199 108.829 202.199 108.724 202.129 108.653L199.879 106.216C199.809 106.134 199.691 106.134 199.621 106.204C199.539 106.274 199.539 106.391 199.609 106.462L201.73 108.77L199.609 111.091C199.574 111.126 199.562 111.173 199.562 111.208C199.562 111.266 199.574 111.313 199.621 111.349C199.691 111.419 199.809 111.419 199.879 111.337L202.129 108.899Z" fill="url(#paint12_linear_2063_249189)"/>
</g>
<defs>
<linearGradient id="paint0_linear_2063_249189" x1="107.5" y1="109.02" x2="0.500007" y2="110.021" gradientUnits="userSpaceOnUse">
<stop stop-color="#DEE2E6"/>
<stop offset="1" stop-color="#DEE2E6" stop-opacity="0"/>
</linearGradient>
<linearGradient id="paint1_linear_2063_249189" x1="78.5" y1="-8.47913" x2="80" y2="67.5209" gradientUnits="userSpaceOnUse">
<stop stop-color="#9CC5ED" stop-opacity="0.11"/>
<stop offset="0.821091" stop-color="#ADB5BD" stop-opacity="0"/>
</linearGradient>
<linearGradient id="paint2_linear_2063_249189" x1="331.225" y1="-8.47913" x2="332.725" y2="67.5209" gradientUnits="userSpaceOnUse">
<stop stop-color="#9CC5ED" stop-opacity="0.11"/>
<stop offset="0.821091" stop-color="#ADB5BD" stop-opacity="0"/>
</linearGradient>
<linearGradient id="paint3_linear_2063_249189" x1="381.77" y1="-8.47913" x2="383.27" y2="67.5209" gradientUnits="userSpaceOnUse">
<stop stop-color="#9CC5ED" stop-opacity="0.11"/>
<stop offset="0.821091" stop-color="#ADB5BD" stop-opacity="0"/>
</linearGradient>
<linearGradient id="paint4_linear_2063_249189" x1="27.9551" y1="92.6106" x2="29.4551" y2="168.611" gradientUnits="userSpaceOnUse">
<stop stop-color="#9CC5ED" stop-opacity="0.11"/>
<stop offset="0.821091" stop-color="#ADB5BD" stop-opacity="0"/>
</linearGradient>
<linearGradient id="paint5_linear_2063_249189" x1="179.59" y1="92.6106" x2="181.09" y2="168.611" gradientUnits="userSpaceOnUse">
<stop stop-color="#9CC5ED" stop-opacity="0.11"/>
<stop offset="0.821091" stop-color="#ADB5BD" stop-opacity="0"/>
</linearGradient>
<linearGradient id="paint6_linear_2063_249189" x1="280.68" y1="92.6106" x2="282.18" y2="168.611" gradientUnits="userSpaceOnUse">
<stop stop-color="#9CC5ED" stop-opacity="0.11"/>
<stop offset="0.821091" stop-color="#ADB5BD" stop-opacity="0"/>
</linearGradient>
<linearGradient id="paint7_linear_2063_249189" x1="331.225" y1="92.6106" x2="332.725" y2="168.611" gradientUnits="userSpaceOnUse">
<stop stop-color="#9CC5ED" stop-opacity="0.11"/>
<stop offset="0.821091" stop-color="#ADB5BD" stop-opacity="0"/>
</linearGradient>
<linearGradient id="paint8_linear_2063_249189" x1="78.5" y1="143.156" x2="80" y2="219.156" gradientUnits="userSpaceOnUse">
<stop stop-color="#9CC5ED" stop-opacity="0.11"/>
<stop offset="0.821091" stop-color="#ADB5BD" stop-opacity="0"/>
</linearGradient>
<linearGradient id="paint9_linear_2063_249189" x1="381.77" y1="143.156" x2="383.27" y2="219.156" gradientUnits="userSpaceOnUse">
<stop stop-color="#9CC5ED" stop-opacity="0.11"/>
<stop offset="0.821091" stop-color="#ADB5BD" stop-opacity="0"/>
</linearGradient>
<linearGradient id="paint10_linear_2063_249189" x1="78.5" y1="193.701" x2="80" y2="269.701" gradientUnits="userSpaceOnUse">
<stop stop-color="#9CC5ED" stop-opacity="0.11"/>
<stop offset="0.821091" stop-color="#ADB5BD" stop-opacity="0"/>
</linearGradient>
<linearGradient id="paint11_linear_2063_249189" x1="331.225" y1="193.701" x2="332.725" y2="269.701" gradientUnits="userSpaceOnUse">
<stop stop-color="#9CC5ED" stop-opacity="0.11"/>
<stop offset="0.821091" stop-color="#ADB5BD" stop-opacity="0"/>
</linearGradient>
<linearGradient id="paint12_linear_2063_249189" x1="204" y1="109.02" x2="197" y2="109.52" gradientUnits="userSpaceOnUse">
<stop stop-color="#4B91E2"/>
<stop offset="1" stop-color="#4B91E2" stop-opacity="0.25"/>
</linearGradient>
<clipPath id="clip0_2063_249189">
<rect width="405" height="218" fill="white" transform="translate(0 -0.979614)"/>
</clipPath>
</defs>
</svg>
