<svg width="405" height="218" viewBox="0 0 405 218" fill="none" xmlns="http://www.w3.org/2000/svg">
<g clip-path="url(#clip0_2063_249071)">
<rect width="405" height="218" transform="translate(0 -0.979614)" fill="white"/>
<path opacity="0.7" d="M405.5 201.52L308 201.52C305.791 201.52 304 199.73 304 197.52L304 100.02" stroke="url(#paint0_linear_2063_249071)" stroke-width="0.5"/>
<path opacity="0.7" d="M102 126.971L102 29.4706C102 27.2614 100.209 25.4706 98 25.4706L0.500004 25.4706" stroke="url(#paint1_linear_2063_249071)" stroke-width="0.5"/>
<mask id="mask0_2063_249071" style="mask-type:alpha" maskUnits="userSpaceOnUse" x="0" y="0" width="405" height="237">
<rect y="0.0203857" width="405" height="236" fill="url(#paint2_linear_2063_249071)"/>
</mask>
<g mask="url(#mask0_2063_249071)">
<g opacity="0.4">
<rect x="0.319905" y="-43.1147" width="50.545" height="50.545" fill="url(#paint3_linear_2063_249071)" stroke="#E9ECEF" stroke-width="0.63981"/>
<rect x="50.8648" y="-43.1145" width="50.545" height="50.545" stroke="#E9ECEF" stroke-width="0.63981"/>
<rect x="101.41" y="-43.1145" width="50.545" height="50.545" stroke="#E9ECEF" stroke-width="0.63981"/>
<rect x="151.955" y="-43.1145" width="50.545" height="50.545" stroke="#E9ECEF" stroke-width="0.63981"/>
<rect x="202.5" y="-43.1145" width="50.545" height="50.545" stroke="#E9ECEF" stroke-width="0.63981"/>
<rect x="253.045" y="-43.1145" width="50.545" height="50.545" stroke="#E9ECEF" stroke-width="0.63981"/>
<rect x="303.59" y="-43.1145" width="50.545" height="50.545" stroke="#E9ECEF" stroke-width="0.63981"/>
<rect x="354.135" y="-43.1145" width="50.545" height="50.545" fill="url(#paint4_linear_2063_249071)" stroke="#E9ECEF" stroke-width="0.63981"/>
<rect x="0.319905" y="7.43038" width="50.545" height="50.545" stroke="#E9ECEF" stroke-width="0.63981"/>
<rect opacity="0.5" x="50.8648" y="7.43062" width="50.545" height="50.545" fill="url(#paint5_linear_2063_249071)" stroke="#7BCBF3" stroke-width="0.63981"/>
<rect x="101.41" y="7.43062" width="50.545" height="50.545" stroke="#E9ECEF" stroke-width="0.63981"/>
<rect x="151.955" y="7.43062" width="50.545" height="50.545" stroke="#E9ECEF" stroke-width="0.63981"/>
<rect x="202.5" y="7.43062" width="50.545" height="50.545" stroke="#E9ECEF" stroke-width="0.63981"/>
<rect x="253.045" y="7.43062" width="50.545" height="50.545" stroke="#E9ECEF" stroke-width="0.63981"/>
<rect x="303.59" y="7.43062" width="50.545" height="50.545" fill="url(#paint6_linear_2063_249071)" stroke="#E9ECEF" stroke-width="0.63981"/>
<rect x="354.135" y="7.43062" width="50.545" height="50.545" stroke="#E9ECEF" stroke-width="0.63981"/>
<rect x="0.319905" y="57.9754" width="50.545" height="50.545" stroke="#E9ECEF" stroke-width="0.63981"/>
<rect x="50.8648" y="57.9754" width="50.545" height="50.545" stroke="#E9ECEF" stroke-width="0.63981"/>
<rect x="101.41" y="57.9754" width="50.545" height="50.545" stroke="#E9ECEF" stroke-width="0.63981"/>
<rect x="151.955" y="57.9754" width="50.545" height="50.545" stroke="#E9ECEF" stroke-width="0.63981"/>
<rect x="202.5" y="57.9754" width="50.545" height="50.545" stroke="#E9ECEF" stroke-width="0.63981"/>
<rect x="253.045" y="57.9754" width="50.545" height="50.545" stroke="#E9ECEF" stroke-width="0.63981"/>
<rect x="303.59" y="57.9754" width="50.545" height="50.545" stroke="#E9ECEF" stroke-width="0.63981"/>
<rect x="354.135" y="57.9754" width="50.545" height="50.545" stroke="#E9ECEF" stroke-width="0.63981"/>
<rect opacity="0.5" x="0.319905" y="108.52" width="50.545" height="50.545" fill="url(#paint7_linear_2063_249071)" stroke="#7BCBF3" stroke-width="0.63981"/>
<rect x="50.8648" y="108.52" width="50.545" height="50.545" stroke="#E9ECEF" stroke-width="0.63981"/>
<rect x="101.41" y="108.52" width="50.545" height="50.545" stroke="#E9ECEF" stroke-width="0.63981"/>
<rect x="151.955" y="108.52" width="50.545" height="50.545" fill="url(#paint8_linear_2063_249071)" stroke="#E9ECEF" stroke-width="0.63981"/>
<rect x="202.5" y="108.52" width="50.545" height="50.545" stroke="#E9ECEF" stroke-width="0.63981"/>
<rect x="253.045" y="108.52" width="50.545" height="50.545" fill="url(#paint9_linear_2063_249071)" stroke="#E9ECEF" stroke-width="0.63981"/>
<rect x="303.59" y="108.52" width="50.545" height="50.545" fill="url(#paint10_linear_2063_249071)" stroke="#E9ECEF" stroke-width="0.63981"/>
<rect x="354.135" y="108.52" width="50.545" height="50.545" stroke="#E9ECEF" stroke-width="0.63981"/>
<rect x="0.319905" y="159.065" width="50.545" height="50.545" fill="url(#paint11_linear_2063_249071)" stroke="#E9ECEF" stroke-width="0.63981"/>
<rect x="50.8648" y="159.065" width="50.545" height="50.545" fill="url(#paint12_linear_2063_249071)" stroke="#E9ECEF" stroke-width="0.63981"/>
<rect x="101.41" y="159.065" width="50.545" height="50.545" stroke="#E9ECEF" stroke-width="0.63981"/>
<rect x="151.955" y="159.065" width="50.545" height="50.545" stroke="#E9ECEF" stroke-width="0.63981"/>
<rect x="202.5" y="159.065" width="50.545" height="50.545" stroke="#E9ECEF" stroke-width="0.63981"/>
<rect x="253.045" y="159.065" width="50.545" height="50.545" stroke="#E9ECEF" stroke-width="0.63981"/>
<rect x="303.59" y="159.065" width="50.545" height="50.545" stroke="#E9ECEF" stroke-width="0.63981"/>
<rect x="354.135" y="159.065" width="50.545" height="50.545" fill="url(#paint13_linear_2063_249071)" stroke="#E9ECEF" stroke-width="0.63981"/>
<rect x="0.319905" y="209.61" width="50.545" height="50.545" stroke="#E9ECEF" stroke-width="0.63981"/>
<rect opacity="0.5" x="50.8648" y="209.61" width="50.545" height="50.545" fill="url(#paint14_linear_2063_249071)" stroke="#7BCBF3" stroke-width="0.63981"/>
<rect x="101.41" y="209.61" width="50.545" height="50.545" stroke="#E9ECEF" stroke-width="0.63981"/>
<rect x="151.955" y="209.61" width="50.545" height="50.545" stroke="#E9ECEF" stroke-width="0.63981"/>
<rect x="202.5" y="209.61" width="50.545" height="50.545" stroke="#E9ECEF" stroke-width="0.63981"/>
<rect x="253.045" y="209.61" width="50.545" height="50.545" stroke="#E9ECEF" stroke-width="0.63981"/>
<rect opacity="0.5" x="303.59" y="209.61" width="50.545" height="50.545" fill="url(#paint15_linear_2063_249071)" stroke="#7BCBF3" stroke-width="0.63981"/>
<rect x="354.135" y="209.61" width="50.545" height="50.545" stroke="#E9ECEF" stroke-width="0.63981"/>
</g>
</g>
<g clip-path="url(#clip1_2063_249071)">
<rect x="83" y="43.4706" width="239.25" height="129.75" rx="3" fill="white"/>
<mask id="mask1_2063_249071" style="mask-type:alpha" maskUnits="userSpaceOnUse" x="83" y="43" width="240" height="131">
<rect x="83" y="43.4706" width="239.25" height="129.75" fill="url(#paint16_linear_2063_249071)"/>
</mask>
<g mask="url(#mask1_2063_249071)">
<g clip-path="url(#clip2_2063_249071)">
<rect x="83" y="43.4706" width="239.25" height="129.75" rx="4.5" fill="white"/>
<path d="M91.6339 53.584V54.0523H89.4623V53.584H91.6339ZM89.5757 49.7092V54.0523H89V49.7092H89.5757Z" fill="black"/>
<path d="M94.0516 53.5005V51.839C94.0516 51.7117 94.0257 51.6014 93.974 51.5079C93.9243 51.4124 93.8487 51.3389 93.7473 51.2872C93.6459 51.2355 93.5206 51.2096 93.3715 51.2096C93.2323 51.2096 93.11 51.2335 93.0046 51.2812C92.9012 51.3289 92.8196 51.3916 92.76 51.4691C92.7023 51.5467 92.6735 51.6302 92.6735 51.7197H92.1216C92.1216 51.6043 92.1515 51.49 92.2111 51.3766C92.2708 51.2633 92.3563 51.1609 92.4677 51.0694C92.581 50.9759 92.7162 50.9024 92.8733 50.8487C93.0324 50.793 93.2094 50.7652 93.4043 50.7652C93.6389 50.7652 93.8457 50.8049 94.0247 50.8845C94.2057 50.964 94.3469 51.0843 94.4483 51.2454C94.5517 51.4045 94.6034 51.6043 94.6034 51.845V53.3483C94.6034 53.4557 94.6123 53.5701 94.6302 53.6914C94.6501 53.8127 94.679 53.9171 94.7167 54.0046V54.0523H94.1411C94.1132 53.9886 94.0913 53.9041 94.0754 53.7987C94.0595 53.6914 94.0516 53.5919 94.0516 53.5005ZM94.147 52.0955L94.153 52.4833H93.5952C93.4381 52.4833 93.2979 52.4962 93.1746 52.5221C93.0513 52.5459 92.9479 52.5827 92.8644 52.6324C92.7809 52.6821 92.7172 52.7448 92.6735 52.8204C92.6297 52.8939 92.6079 52.9804 92.6079 53.0799C92.6079 53.1813 92.6307 53.2738 92.6765 53.3573C92.7222 53.4408 92.7908 53.5074 92.8823 53.5571C92.9757 53.6049 93.0901 53.6287 93.2253 53.6287C93.3943 53.6287 93.5435 53.5929 93.6727 53.5213C93.802 53.4497 93.9044 53.3622 93.98 53.2588C94.0575 53.1554 94.0993 53.055 94.1053 52.9576L94.3409 53.223C94.327 53.3066 94.2892 53.399 94.2276 53.5005C94.1659 53.6019 94.0834 53.6993 93.98 53.7928C93.8786 53.8842 93.7573 53.9608 93.6161 54.0225C93.4769 54.0821 93.3198 54.1119 93.1448 54.1119C92.926 54.1119 92.7341 54.0692 92.5691 53.9837C92.406 53.8982 92.2787 53.7838 92.1873 53.6406C92.0978 53.4955 92.053 53.3334 92.053 53.1544C92.053 52.9814 92.0868 52.8293 92.1545 52.6981C92.2221 52.5648 92.3195 52.4545 92.4468 52.367C92.574 52.2775 92.7272 52.2099 92.9061 52.1641C93.0851 52.1184 93.285 52.0955 93.5057 52.0955H94.147Z" fill="black"/>
<path d="M96.7616 50.8248V51.2484H95.0166V50.8248H96.7616ZM95.6072 50.0403H96.159V53.2529C96.159 53.3622 96.1759 53.4448 96.2097 53.5005C96.2435 53.5561 96.2873 53.5929 96.341 53.6108C96.3947 53.6287 96.4523 53.6377 96.514 53.6377C96.5597 53.6377 96.6075 53.6337 96.6572 53.6257C96.7089 53.6158 96.7477 53.6078 96.7735 53.6019L96.7765 54.0523C96.7327 54.0662 96.6751 54.0791 96.6035 54.0911C96.5339 54.105 96.4494 54.1119 96.3499 54.1119C96.2147 54.1119 96.0904 54.0851 95.9771 54.0314C95.8637 53.9777 95.7732 53.8882 95.7056 53.7629C95.64 53.6357 95.6072 53.4647 95.6072 53.2499V50.0403Z" fill="black"/>
<path d="M98.6871 54.1119C98.4624 54.1119 98.2585 54.0742 98.0756 53.9986C97.8946 53.921 97.7385 53.8127 97.6073 53.6735C97.478 53.5343 97.3786 53.3692 97.309 53.1783C97.2394 52.9874 97.2046 52.7786 97.2046 52.5519V52.4266C97.2046 52.1641 97.2434 51.9305 97.3209 51.7256C97.3985 51.5188 97.5039 51.3438 97.6371 51.2007C97.7703 51.0575 97.9215 50.9491 98.0905 50.8755C98.2595 50.8019 98.4345 50.7652 98.6155 50.7652C98.8462 50.7652 99.045 50.8049 99.2121 50.8845C99.3811 50.964 99.5193 51.0754 99.6267 51.2185C99.7341 51.3597 99.8136 51.5268 99.8653 51.7197C99.917 51.9106 99.9429 52.1194 99.9429 52.3461V52.5937H97.5327V52.1432H99.391V52.1015C99.3831 51.9583 99.3533 51.8191 99.3016 51.6839C99.2518 51.5487 99.1723 51.4373 99.0629 51.3498C98.9536 51.2623 98.8044 51.2185 98.6155 51.2185C98.4902 51.2185 98.3749 51.2454 98.2695 51.2991C98.1641 51.3508 98.0736 51.4283 97.998 51.5318C97.9225 51.6352 97.8638 51.7614 97.822 51.9106C97.7803 52.0597 97.7594 52.2317 97.7594 52.4266V52.5519C97.7594 52.705 97.7803 52.8492 97.822 52.9844C97.8658 53.1176 97.9284 53.235 98.01 53.3364C98.0935 53.4378 98.1939 53.5174 98.3112 53.575C98.4306 53.6327 98.5658 53.6615 98.7169 53.6615C98.9118 53.6615 99.0768 53.6218 99.2121 53.5422C99.3473 53.4627 99.4656 53.3563 99.567 53.223L99.9011 53.4885C99.8315 53.5939 99.743 53.6943 99.6356 53.7898C99.5283 53.8852 99.396 53.9628 99.2389 54.0225C99.0838 54.0821 98.8999 54.1119 98.6871 54.1119Z" fill="black"/>
<path d="M102.405 53.1962C102.405 53.1167 102.387 53.0431 102.352 52.9755C102.318 52.9059 102.247 52.8432 102.14 52.7875C102.034 52.7299 101.875 52.6802 101.663 52.6384C101.484 52.6006 101.322 52.5559 101.176 52.5042C101.033 52.4525 100.911 52.3898 100.809 52.3162C100.71 52.2427 100.633 52.1562 100.58 52.0567C100.526 51.9573 100.499 51.841 100.499 51.7077C100.499 51.5805 100.527 51.4602 100.583 51.3468C100.64 51.2335 100.721 51.133 100.824 51.0455C100.93 50.958 101.056 50.8894 101.203 50.8397C101.35 50.79 101.514 50.7652 101.695 50.7652C101.954 50.7652 102.175 50.8109 102.358 50.9024C102.541 50.9938 102.681 51.1161 102.778 51.2693C102.876 51.4204 102.924 51.5884 102.924 51.7734H102.372C102.372 51.6839 102.346 51.5974 102.292 51.5139C102.24 51.4283 102.164 51.3577 102.062 51.3021C101.963 51.2464 101.841 51.2185 101.695 51.2185C101.542 51.2185 101.418 51.2424 101.323 51.2901C101.229 51.3359 101.16 51.3945 101.117 51.4661C101.075 51.5377 101.054 51.6133 101.054 51.6928C101.054 51.7525 101.064 51.8062 101.084 51.8539C101.106 51.8996 101.144 51.9424 101.197 51.9822C101.251 52.0199 101.326 52.0557 101.424 52.0895C101.521 52.1234 101.646 52.1572 101.797 52.191C102.061 52.2506 102.279 52.3222 102.45 52.4057C102.621 52.4893 102.748 52.5917 102.832 52.713C102.915 52.8343 102.957 52.9814 102.957 53.1544C102.957 53.2956 102.927 53.4249 102.868 53.5422C102.81 53.6595 102.725 53.761 102.614 53.8465C102.505 53.93 102.373 53.9956 102.22 54.0433C102.069 54.0891 101.899 54.1119 101.71 54.1119C101.426 54.1119 101.185 54.0612 100.988 53.9598C100.792 53.8584 100.642 53.7272 100.541 53.5661C100.44 53.405 100.389 53.235 100.389 53.056H100.944C100.952 53.2071 100.995 53.3274 101.075 53.4169C101.154 53.5044 101.252 53.5671 101.367 53.6049C101.483 53.6406 101.597 53.6585 101.71 53.6585C101.861 53.6585 101.988 53.6387 102.089 53.5989C102.193 53.5591 102.271 53.5044 102.325 53.4348C102.378 53.3652 102.405 53.2857 102.405 53.1962Z" fill="black"/>
<path d="M104.972 50.8248V51.2484H103.227V50.8248H104.972ZM103.818 50.0403H104.37V53.2529C104.37 53.3622 104.386 53.4448 104.42 53.5005C104.454 53.5561 104.498 53.5929 104.552 53.6108C104.605 53.6287 104.663 53.6377 104.725 53.6377C104.77 53.6377 104.818 53.6337 104.868 53.6257C104.919 53.6158 104.958 53.6078 104.984 53.6019L104.987 54.0523C104.943 54.0662 104.886 54.0791 104.814 54.0911C104.744 54.105 104.66 54.1119 104.56 54.1119C104.425 54.1119 104.301 54.0851 104.188 54.0314C104.074 53.9777 103.984 53.8882 103.916 53.7629C103.851 53.6357 103.818 53.4647 103.818 53.2499V50.0403Z" fill="black"/>
<path d="M108.644 52.0209H107.543L107.538 51.5586H108.537C108.702 51.5586 108.846 51.5308 108.969 51.4751C109.093 51.4194 109.188 51.3399 109.256 51.2364C109.325 51.1311 109.36 51.0058 109.36 50.8606C109.36 50.7015 109.329 50.5723 109.268 50.4728C109.208 50.3714 109.115 50.2978 108.99 50.2521C108.867 50.2044 108.71 50.1805 108.519 50.1805H107.672V54.0523H107.096V49.7092H108.519C108.742 49.7092 108.94 49.7321 109.115 49.7778C109.29 49.8216 109.439 49.8912 109.56 49.9866C109.683 50.0801 109.777 50.1994 109.84 50.3446C109.904 50.4897 109.936 50.6637 109.936 50.8666C109.936 51.0455 109.89 51.2076 109.799 51.3528C109.707 51.496 109.58 51.6133 109.417 51.7048C109.256 51.7962 109.067 51.8549 108.85 51.8807L108.644 52.0209ZM108.617 54.0523H107.317L107.642 53.584H108.617C108.8 53.584 108.955 53.5522 109.083 53.4885C109.212 53.4249 109.31 53.3354 109.378 53.2201C109.446 53.1027 109.479 52.9645 109.479 52.8054C109.479 52.6444 109.451 52.5052 109.393 52.3878C109.335 52.2705 109.245 52.18 109.121 52.1164C108.998 52.0528 108.839 52.0209 108.644 52.0209H107.824L107.83 51.5586H108.951L109.074 51.7256C109.283 51.7435 109.459 51.8032 109.605 51.9046C109.75 52.004 109.86 52.1313 109.936 52.2864C110.013 52.4415 110.052 52.6125 110.052 52.7995C110.052 53.0699 109.992 53.2986 109.873 53.4855C109.756 53.6705 109.59 53.8117 109.375 53.9091C109.16 54.0046 108.908 54.0523 108.617 54.0523Z" fill="black"/>
<path d="M111.357 49.4706V54.0523H110.802V49.4706H111.357Z" fill="black"/>
<path d="M112.036 52.4743V52.4057C112.036 52.1731 112.07 51.9573 112.137 51.7585C112.205 51.5576 112.302 51.3836 112.43 51.2364C112.557 51.0873 112.711 50.972 112.892 50.8904C113.073 50.8069 113.276 50.7652 113.5 50.7652C113.727 50.7652 113.931 50.8069 114.112 50.8904C114.295 50.972 114.45 51.0873 114.577 51.2364C114.706 51.3836 114.805 51.5576 114.873 51.7585C114.94 51.9573 114.974 52.1731 114.974 52.4057V52.4743C114.974 52.707 114.94 52.9228 114.873 53.1216C114.805 53.3205 114.706 53.4945 114.577 53.6436C114.45 53.7908 114.296 53.9061 114.115 53.9896C113.936 54.0712 113.733 54.1119 113.506 54.1119C113.28 54.1119 113.076 54.0712 112.895 53.9896C112.714 53.9061 112.559 53.7908 112.43 53.6436C112.302 53.4945 112.205 53.3205 112.137 53.1216C112.07 52.9228 112.036 52.707 112.036 52.4743ZM112.588 52.4057V52.4743C112.588 52.6354 112.607 52.7875 112.644 52.9307C112.682 53.0719 112.739 53.1972 112.814 53.3066C112.892 53.4159 112.988 53.5024 113.104 53.5661C113.219 53.6277 113.353 53.6585 113.506 53.6585C113.658 53.6585 113.79 53.6277 113.903 53.5661C114.018 53.5024 114.114 53.4159 114.189 53.3066C114.265 53.1972 114.322 53.0719 114.359 52.9307C114.399 52.7875 114.419 52.6354 114.419 52.4743V52.4057C114.419 52.2466 114.399 52.0965 114.359 51.9553C114.322 51.8121 114.264 51.6859 114.186 51.5765C114.111 51.4651 114.015 51.3776 113.9 51.314C113.787 51.2504 113.654 51.2185 113.5 51.2185C113.349 51.2185 113.216 51.2504 113.101 51.314C112.987 51.3776 112.892 51.4651 112.814 51.5765C112.739 51.6859 112.682 51.8121 112.644 51.9553C112.607 52.0965 112.588 52.2466 112.588 52.4057Z" fill="black"/>
<path d="M116.896 53.6585C117.028 53.6585 117.149 53.6317 117.26 53.578C117.372 53.5243 117.463 53.4507 117.535 53.3573C117.606 53.2618 117.647 53.1534 117.657 53.0321H118.182C118.172 53.223 118.108 53.401 117.988 53.5661C117.871 53.7291 117.717 53.8614 117.526 53.9628C117.335 54.0622 117.125 54.1119 116.896 54.1119C116.654 54.1119 116.442 54.0692 116.261 53.9837C116.082 53.8982 115.933 53.7808 115.814 53.6317C115.696 53.4826 115.608 53.3115 115.548 53.1186C115.491 52.9238 115.462 52.7179 115.462 52.5012V52.3759C115.462 52.1592 115.491 51.9543 115.548 51.7614C115.608 51.5666 115.696 51.3945 115.814 51.2454C115.933 51.0963 116.082 50.9789 116.261 50.8934C116.442 50.8079 116.654 50.7652 116.896 50.7652C117.149 50.7652 117.37 50.8169 117.559 50.9203C117.748 51.0217 117.896 51.1609 118.003 51.3379C118.113 51.5129 118.172 51.7117 118.182 51.9344H117.657C117.647 51.8012 117.609 51.6809 117.544 51.5735C117.48 51.4661 117.393 51.3806 117.281 51.317C117.172 51.2514 117.044 51.2185 116.896 51.2185C116.727 51.2185 116.585 51.2524 116.47 51.32C116.357 51.3856 116.266 51.4751 116.198 51.5884C116.133 51.6998 116.085 51.8241 116.055 51.9613C116.027 52.0965 116.014 52.2347 116.014 52.3759V52.5012C116.014 52.6424 116.027 52.7816 116.055 52.9188C116.083 53.056 116.13 53.1803 116.196 53.2917C116.263 53.403 116.354 53.4925 116.467 53.5601C116.582 53.6257 116.725 53.6585 116.896 53.6585Z" fill="black"/>
<path d="M119.296 49.4706V54.0523H118.741V49.4706H119.296ZM121.268 50.8248L119.86 52.3312L119.073 53.1485L119.028 52.5608L119.592 51.8867L120.594 50.8248H121.268ZM120.764 54.0523L119.612 52.5131L119.899 52.0209L121.414 54.0523H120.764Z" fill="black"/>
<path d="M123.656 53.1962C123.656 53.1167 123.638 53.0431 123.602 52.9755C123.568 52.9059 123.498 52.8432 123.39 52.7875C123.285 52.7299 123.126 52.6802 122.913 52.6384C122.734 52.6006 122.572 52.5559 122.427 52.5042C122.284 52.4525 122.161 52.3898 122.06 52.3162C121.961 52.2427 121.884 52.1562 121.83 52.0567C121.777 51.9573 121.75 51.841 121.75 51.7077C121.75 51.5805 121.778 51.4602 121.833 51.3468C121.891 51.2335 121.971 51.133 122.075 51.0455C122.18 50.958 122.307 50.8894 122.454 50.8397C122.601 50.79 122.765 50.7652 122.946 50.7652C123.204 50.7652 123.425 50.8109 123.608 50.9024C123.791 50.9938 123.931 51.1161 124.029 51.2693C124.126 51.4204 124.175 51.5884 124.175 51.7734H123.623C123.623 51.6839 123.596 51.5974 123.542 51.5139C123.491 51.4283 123.414 51.3577 123.313 51.3021C123.213 51.2464 123.091 51.2185 122.946 51.2185C122.793 51.2185 122.668 51.2424 122.573 51.2901C122.48 51.3359 122.411 51.3945 122.367 51.4661C122.325 51.5377 122.305 51.6133 122.305 51.6928C122.305 51.7525 122.315 51.8062 122.334 51.8539C122.356 51.8996 122.394 51.9424 122.448 51.9822C122.501 52.0199 122.577 52.0557 122.674 52.0895C122.772 52.1234 122.896 52.1572 123.047 52.191C123.312 52.2506 123.53 52.3222 123.701 52.4057C123.872 52.4893 123.999 52.5917 124.082 52.713C124.166 52.8343 124.208 52.9814 124.208 53.1544C124.208 53.2956 124.178 53.4249 124.118 53.5422C124.06 53.6595 123.976 53.761 123.865 53.8465C123.755 53.93 123.624 53.9956 123.471 54.0433C123.32 54.0891 123.15 54.1119 122.961 54.1119C122.676 54.1119 122.436 54.0612 122.239 53.9598C122.042 53.8584 121.893 53.7272 121.792 53.5661C121.69 53.405 121.639 53.235 121.639 53.056H122.194C122.202 53.2071 122.246 53.3274 122.325 53.4169C122.405 53.5044 122.502 53.5671 122.618 53.6049C122.733 53.6406 122.847 53.6585 122.961 53.6585C123.112 53.6585 123.238 53.6387 123.34 53.5989C123.443 53.5591 123.522 53.5044 123.575 53.4348C123.629 53.3652 123.656 53.2857 123.656 53.1962Z" fill="black"/>
<path d="M322.25 59.7369H83V60.4869H322.25V59.7369Z" fill="#E9ECEF" mask="url(#path-56-inside-1_2063_249071)"/>
<rect x="89" y="74.9706" width="18" height="18" rx="1.5" fill="#F8F9FA"/>
<path d="M97.7012 79.701C97.8945 79.6307 98.0879 79.6307 98.2812 79.701L101.938 81.037C102.271 81.16 102.5 81.4764 102.5 81.828V86.3807C102.5 86.7323 102.271 87.0487 101.938 87.1718L98.2812 88.5077C98.0879 88.578 97.8945 88.578 97.7012 88.5077L94.0449 87.1718C93.7109 87.0487 93.5 86.7323 93.5 86.3807V81.828C93.5 81.4764 93.7109 81.16 94.0449 81.037L97.7012 79.701ZM98.0879 80.2284C98.0176 80.1932 97.9648 80.1932 97.8945 80.2284L94.2734 81.5468L98 83.0057L101.709 81.5468L98.0879 80.2284ZM94.2383 86.6444L97.7188 87.9276V83.4979L94.0625 82.0741V86.3807C94.0625 86.5038 94.1328 86.6093 94.2383 86.6444ZM98.2812 87.9276L101.744 86.6444C101.85 86.6093 101.938 86.5038 101.938 86.3807V82.0741L98.2812 83.4979V87.9276Z" fill="#495057"/>
<rect x="113.75" y="74.9706" width="65.25" height="6.75" rx="1.5" fill="#DEE2E6"/>
<rect x="188" y="74.9706" width="65.25" height="6.75" rx="1.5" fill="#DEE2E6"/>
<rect x="188" y="86.2206" width="35.25" height="6.75" rx="1.5" fill="#DEE2E6"/>
<rect x="113.75" y="86.2206" width="27.75" height="6.75" rx="1.5" fill="#DEE2E6"/>
<rect x="288.5" y="77.2206" width="27.75" height="13.5" rx="1.5" fill="#F8F9FA" stroke="#CED4DA" stroke-width="0.375"/>
<path d="M294.177 83.353V83.876C294.177 84.1265 294.152 84.3403 294.102 84.5176C294.054 84.6934 293.984 84.8362 293.891 84.946C293.799 85.0559 293.688 85.1365 293.56 85.1877C293.432 85.239 293.289 85.2646 293.131 85.2646C293.005 85.2646 292.888 85.2485 292.78 85.2163C292.673 85.1841 292.576 85.1335 292.49 85.0647C292.403 84.9958 292.329 84.9072 292.268 84.7988C292.208 84.689 292.161 84.5579 292.127 84.4055C292.095 84.2532 292.079 84.0767 292.079 83.876V83.353C292.079 83.1011 292.104 82.8887 292.153 82.7158C292.203 82.5415 292.274 82.4001 292.366 82.2917C292.459 82.1819 292.569 82.1021 292.696 82.0522C292.825 82.0024 292.969 81.9775 293.127 81.9775C293.254 81.9775 293.371 81.9937 293.478 82.0259C293.587 82.0566 293.683 82.1057 293.768 82.1731C293.855 82.2405 293.928 82.3284 293.988 82.4368C294.05 82.5437 294.096 82.6733 294.129 82.8257C294.161 82.9766 294.177 83.1523 294.177 83.353ZM293.647 83.9507V83.2739C293.647 83.1465 293.64 83.0344 293.625 82.9377C293.611 82.8396 293.589 82.7568 293.56 82.6895C293.532 82.6206 293.497 82.5649 293.454 82.5225C293.412 82.4785 293.363 82.447 293.309 82.428C293.255 82.4075 293.194 82.3972 293.127 82.3972C293.045 82.3972 292.971 82.4133 292.907 82.4456C292.843 82.4763 292.788 82.5261 292.744 82.595C292.7 82.6638 292.667 82.7546 292.643 82.8674C292.621 82.9788 292.61 83.1143 292.61 83.2739V83.9507C292.61 84.0796 292.618 84.1931 292.632 84.2913C292.647 84.3894 292.669 84.4736 292.698 84.5439C292.728 84.6128 292.763 84.6699 292.804 84.7153C292.846 84.7593 292.895 84.7915 292.949 84.812C293.004 84.8325 293.065 84.8428 293.131 84.8428C293.215 84.8428 293.289 84.8267 293.353 84.7944C293.417 84.7622 293.472 84.7109 293.516 84.6406C293.56 84.5688 293.593 84.4758 293.615 84.3616C293.636 84.2473 293.647 84.1104 293.647 83.9507Z" fill="#212529"/>
<path d="M294.657 84.957C294.657 84.875 294.685 84.8062 294.741 84.7505C294.796 84.6934 294.872 84.6648 294.967 84.6648C295.064 84.6648 295.139 84.6934 295.193 84.7505C295.249 84.8062 295.277 84.875 295.277 84.957C295.277 85.0391 295.249 85.1079 295.193 85.1636C295.139 85.2192 295.064 85.2471 294.967 85.2471C294.872 85.2471 294.796 85.2192 294.741 85.1636C294.685 85.1079 294.657 85.0391 294.657 84.957Z" fill="#212529"/>
<path d="M297.897 83.353V83.876C297.897 84.1265 297.872 84.3403 297.822 84.5176C297.774 84.6934 297.704 84.8362 297.611 84.946C297.519 85.0559 297.409 85.1365 297.28 85.1877C297.152 85.239 297.009 85.2646 296.851 85.2646C296.725 85.2646 296.608 85.2485 296.5 85.2163C296.393 85.1841 296.296 85.1335 296.21 85.0647C296.123 84.9958 296.049 84.9072 295.988 84.7988C295.928 84.689 295.881 84.5579 295.847 84.4055C295.815 84.2532 295.799 84.0767 295.799 83.876V83.353C295.799 83.1011 295.824 82.8887 295.873 82.7158C295.923 82.5415 295.994 82.4001 296.087 82.2917C296.179 82.1819 296.289 82.1021 296.416 82.0522C296.545 82.0024 296.689 81.9775 296.847 81.9775C296.974 81.9775 297.091 81.9937 297.198 82.0259C297.307 82.0566 297.403 82.1057 297.488 82.1731C297.575 82.2405 297.648 82.3284 297.708 82.4368C297.77 82.5437 297.816 82.6733 297.849 82.8257C297.881 82.9766 297.897 83.1523 297.897 83.353ZM297.368 83.9507V83.2739C297.368 83.1465 297.36 83.0344 297.346 82.9377C297.331 82.8396 297.309 82.7568 297.28 82.6895C297.252 82.6206 297.217 82.5649 297.174 82.5225C297.132 82.4785 297.083 82.447 297.029 82.428C296.975 82.4075 296.914 82.3972 296.847 82.3972C296.765 82.3972 296.691 82.4133 296.627 82.4456C296.563 82.4763 296.508 82.5261 296.464 82.595C296.42 82.6638 296.387 82.7546 296.363 82.8674C296.341 82.9788 296.33 83.1143 296.33 83.2739V83.9507C296.33 84.0796 296.338 84.1931 296.352 84.2913C296.367 84.3894 296.389 84.4736 296.418 84.5439C296.448 84.6128 296.483 84.6699 296.524 84.7153C296.566 84.7593 296.615 84.7915 296.669 84.812C296.724 84.8325 296.785 84.8428 296.851 84.8428C296.935 84.8428 297.009 84.8267 297.073 84.7944C297.138 84.7622 297.192 84.7109 297.236 84.6406C297.28 84.5688 297.313 84.4758 297.335 84.3616C297.357 84.2473 297.368 84.1104 297.368 83.9507Z" fill="#212529"/>
<path d="M299.77 82.0105V85.2207H299.241V82.6389L298.456 82.9048V82.4675L299.707 82.0105H299.77Z" fill="#212529"/>
<path d="M302.962 82.0215V82.3115L301.683 85.2207H301.125L302.402 82.4434H300.745V82.0215H302.962Z" fill="#212529"/>
<path d="M305.494 84.7988V85.2207H303.35V84.8582L304.391 83.7222C304.505 83.5933 304.596 83.4819 304.661 83.3882C304.727 83.2944 304.774 83.2102 304.8 83.1355C304.828 83.0593 304.842 82.9854 304.842 82.9136C304.842 82.8125 304.823 82.7239 304.785 82.6477C304.748 82.5701 304.694 82.5093 304.622 82.4653C304.55 82.4199 304.463 82.3972 304.36 82.3972C304.242 82.3972 304.142 82.4229 304.062 82.4741C303.981 82.5254 303.92 82.5964 303.879 82.6873C303.838 82.7766 303.818 82.8792 303.818 82.9949H303.288C303.288 82.8088 303.331 82.6389 303.416 82.4851C303.501 82.3298 303.624 82.2068 303.785 82.116C303.946 82.0237 304.14 81.9775 304.367 81.9775C304.581 81.9775 304.763 82.0134 304.912 82.0852C305.061 82.157 305.175 82.2588 305.253 82.3906C305.332 82.5225 305.371 82.6785 305.371 82.8586C305.371 82.9583 305.355 83.0571 305.323 83.1553C305.291 83.2534 305.244 83.3516 305.184 83.4497C305.126 83.5464 305.056 83.6438 304.976 83.7419C304.895 83.8386 304.806 83.9368 304.71 84.0364L304.018 84.7988H305.494Z" fill="#212529"/>
<path d="M309.115 84.7834V85.2207H307.417V84.7834H309.115ZM307.573 82.0215V85.2207H307.021V82.0215H307.573ZM308.893 83.3574V83.7881H307.417V83.3574H308.893ZM309.104 82.0215V82.4609H307.417V82.0215H309.104Z" fill="#212529"/>
<path d="M310.558 82.8433V83.23H309.218V82.8433H310.558ZM309.604 82.261H310.134V84.5637C310.134 84.637 310.144 84.6934 310.165 84.7329C310.187 84.771 310.217 84.7966 310.255 84.8098C310.293 84.823 310.338 84.8296 310.389 84.8296C310.425 84.8296 310.461 84.8274 310.494 84.823C310.528 84.8186 310.555 84.8142 310.576 84.8098L310.578 85.2141C310.534 85.2273 310.483 85.239 310.424 85.2493C310.367 85.2595 310.301 85.2646 310.226 85.2646C310.105 85.2646 309.997 85.2434 309.903 85.2009C309.809 85.157 309.736 85.0859 309.683 84.9878C309.631 84.8896 309.604 84.7593 309.604 84.5967V82.261Z" fill="#212529"/>
<path d="M311.445 81.8457V85.2207H310.917V81.8457H311.445ZM311.352 83.9441L311.181 83.9419C311.182 83.7778 311.205 83.6262 311.249 83.4871C311.294 83.3479 311.357 83.2271 311.438 83.1245C311.52 83.0205 311.618 82.9407 311.732 82.885C311.847 82.8279 311.973 82.7993 312.113 82.7993C312.23 82.7993 312.335 82.8154 312.429 82.8477C312.524 82.8799 312.606 82.9319 312.675 83.0037C312.744 83.074 312.796 83.1663 312.831 83.2805C312.868 83.3933 312.886 83.531 312.886 83.6936V85.2207H312.354V83.6892C312.354 83.575 312.337 83.4841 312.304 83.4167C312.272 83.3494 312.224 83.301 312.161 83.2717C312.098 83.241 312.021 83.2256 311.93 83.2256C311.835 83.2256 311.751 83.2446 311.678 83.2827C311.606 83.3208 311.546 83.3728 311.497 83.4387C311.449 83.5046 311.412 83.5808 311.387 83.6672C311.364 83.7537 311.352 83.8459 311.352 83.9441Z" fill="#212529"/>
<g opacity="0.6">
<rect x="89" y="110.971" width="18" height="18" rx="1.5" fill="#F8F9FA"/>
<path d="M97.7012 115.701C97.8945 115.631 98.0879 115.631 98.2812 115.701L101.938 117.037C102.271 117.16 102.5 117.476 102.5 117.828V122.381C102.5 122.732 102.271 123.049 101.938 123.172L98.2812 124.508C98.0879 124.578 97.8945 124.578 97.7012 124.508L94.0449 123.172C93.7109 123.049 93.5 122.732 93.5 122.381V117.828C93.5 117.476 93.7109 117.16 94.0449 117.037L97.7012 115.701ZM98.0879 116.228C98.0176 116.193 97.9648 116.193 97.8945 116.228L94.2734 117.547L98 119.006L101.709 117.547L98.0879 116.228ZM94.2383 122.644L97.7188 123.928V119.498L94.0625 118.074V122.381C94.0625 122.504 94.1328 122.609 94.2383 122.644ZM98.2812 123.928L101.744 122.644C101.85 122.609 101.938 122.504 101.938 122.381V118.074L98.2812 119.498V123.928Z" fill="#495057"/>
<rect x="113.75" y="110.971" width="65.25" height="6.75" rx="1.5" fill="#DEE2E6"/>
<rect x="188" y="110.971" width="65.25" height="6.75" rx="1.5" fill="#DEE2E6"/>
<rect x="288.5" y="114.721" width="27.75" height="13.5" rx="1.5" fill="#F8F9FA" stroke="#CED4DA" stroke-width="0.375"/>
<rect x="291.5" y="118.058" width="21.75" height="6.75" rx="1.5" fill="#DEE2E6"/>
<rect x="188" y="122.221" width="35.25" height="6.75" rx="1.5" fill="#DEE2E6"/>
<rect x="113.75" y="122.221" width="27.75" height="6.75" rx="1.5" fill="#DEE2E6"/>
</g>
<g opacity="0.5">
<rect x="89" y="146.971" width="18" height="18" rx="1.5" fill="#F8F9FA"/>
<path d="M97.7012 151.701C97.8945 151.631 98.0879 151.631 98.2812 151.701L101.938 153.037C102.271 153.16 102.5 153.476 102.5 153.828V158.381C102.5 158.732 102.271 159.049 101.938 159.172L98.2812 160.508C98.0879 160.578 97.8945 160.578 97.7012 160.508L94.0449 159.172C93.7109 159.049 93.5 158.732 93.5 158.381V153.828C93.5 153.476 93.7109 153.16 94.0449 153.037L97.7012 151.701ZM98.0879 152.228C98.0176 152.193 97.9648 152.193 97.8945 152.228L94.2734 153.547L98 155.006L101.709 153.547L98.0879 152.228ZM94.2383 158.644L97.7188 159.928V155.498L94.0625 154.074V158.381C94.0625 158.504 94.1328 158.609 94.2383 158.644ZM98.2812 159.928L101.744 158.644C101.85 158.609 101.938 158.504 101.938 158.381V154.074L98.2812 155.498V159.928Z" fill="#495057"/>
<rect x="113.75" y="146.971" width="65.25" height="6.75" rx="1.5" fill="#DEE2E6"/>
<rect x="188" y="146.971" width="65.25" height="6.75" rx="1.5" fill="#DEE2E6"/>
<rect x="287.75" y="150.721" width="27.75" height="13.5" rx="1.5" fill="#F8F9FA" stroke="#CED4DA" stroke-width="0.375"/>
<rect x="290.75" y="154.058" width="21.75" height="6.75" rx="1.5" fill="#DEE2E6"/>
<rect x="188" y="158.221" width="35.25" height="6.75" rx="1.5" fill="#DEE2E6"/>
<rect x="113.75" y="158.221" width="27.75" height="6.75" rx="1.5" fill="#DEE2E6"/>
</g>
<line x1="90.5" y1="101.783" x2="316.25" y2="101.783" stroke="#E9ECEF" stroke-width="0.375"/>
<line x1="90.5" y1="137.783" x2="316.25" y2="137.783" stroke="#E9ECEF" stroke-width="0.375"/>
</g>
</g>
</g>
<rect x="83.1875" y="43.6581" width="238.875" height="129.375" rx="2.8125" stroke="#DEE2E6" stroke-width="0.375"/>
</g>
<defs>
<linearGradient id="paint0_linear_2063_249071" x1="354.75" y1="201.52" x2="412.5" y2="201.471" gradientUnits="userSpaceOnUse">
<stop stop-color="#0784C3"/>
<stop offset="0.801317" stop-color="#0784C3" stop-opacity="0"/>
</linearGradient>
<linearGradient id="paint1_linear_2063_249071" x1="102" y1="76.2206" x2="0.500002" y2="76.2206" gradientUnits="userSpaceOnUse">
<stop stop-color="#0784C3"/>
<stop offset="1" stop-color="#0784C3" stop-opacity="0"/>
</linearGradient>
<linearGradient id="paint2_linear_2063_249071" x1="202.5" y1="0.0203856" x2="200.556" y2="373.023" gradientUnits="userSpaceOnUse">
<stop stop-color="#D9D9D9"/>
<stop offset="0.81415" stop-color="#D9D9D9" stop-opacity="0"/>
</linearGradient>
<linearGradient id="paint3_linear_2063_249071" x1="21.5" y1="23.4707" x2="21" y2="-32.5293" gradientUnits="userSpaceOnUse">
<stop stop-color="#9CC5ED" stop-opacity="0.11"/>
<stop offset="0.532609" stop-color="#ADB5BD" stop-opacity="0"/>
</linearGradient>
<linearGradient id="paint4_linear_2063_249071" x1="379" y1="43.9708" x2="379" y2="-55.0292" gradientUnits="userSpaceOnUse">
<stop stop-color="#9CC5ED" stop-opacity="0.11"/>
<stop offset="0.739198" stop-color="#ADB5BD" stop-opacity="0"/>
</linearGradient>
<linearGradient id="paint5_linear_2063_249071" x1="78.5" y1="-8.47913" x2="80" y2="67.5209" gradientUnits="userSpaceOnUse">
<stop stop-color="#9CC5ED" stop-opacity="0.11"/>
<stop offset="0.821091" stop-color="#ADB5BD" stop-opacity="0"/>
</linearGradient>
<linearGradient id="paint6_linear_2063_249071" x1="331.225" y1="-8.47913" x2="332.725" y2="67.5209" gradientUnits="userSpaceOnUse">
<stop stop-color="#9CC5ED" stop-opacity="0.11"/>
<stop offset="0.821091" stop-color="#ADB5BD" stop-opacity="0"/>
</linearGradient>
<linearGradient id="paint7_linear_2063_249071" x1="27.9551" y1="92.6106" x2="29.4551" y2="168.611" gradientUnits="userSpaceOnUse">
<stop stop-color="#9CC5ED" stop-opacity="0.11"/>
<stop offset="0.821091" stop-color="#ADB5BD" stop-opacity="0"/>
</linearGradient>
<linearGradient id="paint8_linear_2063_249071" x1="179.59" y1="92.6106" x2="181.09" y2="168.611" gradientUnits="userSpaceOnUse">
<stop stop-color="#9CC5ED" stop-opacity="0.11"/>
<stop offset="0.821091" stop-color="#ADB5BD" stop-opacity="0"/>
</linearGradient>
<linearGradient id="paint9_linear_2063_249071" x1="280.68" y1="92.6106" x2="282.18" y2="168.611" gradientUnits="userSpaceOnUse">
<stop stop-color="#9CC5ED" stop-opacity="0.11"/>
<stop offset="0.821091" stop-color="#ADB5BD" stop-opacity="0"/>
</linearGradient>
<linearGradient id="paint10_linear_2063_249071" x1="331.225" y1="92.6106" x2="332.725" y2="168.611" gradientUnits="userSpaceOnUse">
<stop stop-color="#9CC5ED" stop-opacity="0.11"/>
<stop offset="0.821091" stop-color="#ADB5BD" stop-opacity="0"/>
</linearGradient>
<linearGradient id="paint11_linear_2063_249071" x1="27.9551" y1="143.156" x2="29.4551" y2="219.156" gradientUnits="userSpaceOnUse">
<stop stop-color="#9CC5ED" stop-opacity="0.11"/>
<stop offset="0.821091" stop-color="#ADB5BD" stop-opacity="0"/>
</linearGradient>
<linearGradient id="paint12_linear_2063_249071" x1="78.5" y1="143.156" x2="80" y2="219.156" gradientUnits="userSpaceOnUse">
<stop stop-color="#9CC5ED" stop-opacity="0.11"/>
<stop offset="0.821091" stop-color="#ADB5BD" stop-opacity="0"/>
</linearGradient>
<linearGradient id="paint13_linear_2063_249071" x1="381.77" y1="143.156" x2="383.27" y2="219.156" gradientUnits="userSpaceOnUse">
<stop stop-color="#9CC5ED" stop-opacity="0.11"/>
<stop offset="0.821091" stop-color="#ADB5BD" stop-opacity="0"/>
</linearGradient>
<linearGradient id="paint14_linear_2063_249071" x1="78.5" y1="193.701" x2="80" y2="269.701" gradientUnits="userSpaceOnUse">
<stop stop-color="#9CC5ED" stop-opacity="0.11"/>
<stop offset="0.821091" stop-color="#ADB5BD" stop-opacity="0"/>
</linearGradient>
<linearGradient id="paint15_linear_2063_249071" x1="331.225" y1="193.701" x2="332.725" y2="269.701" gradientUnits="userSpaceOnUse">
<stop stop-color="#9CC5ED" stop-opacity="0.11"/>
<stop offset="0.821091" stop-color="#ADB5BD" stop-opacity="0"/>
</linearGradient>
<linearGradient id="paint16_linear_2063_249071" x1="202.625" y1="43.4706" x2="203" y2="192.721" gradientUnits="userSpaceOnUse">
<stop stop-color="#D9D9D9"/>
<stop offset="1" stop-color="#D9D9D9" stop-opacity="0.5"/>
</linearGradient>
<clipPath id="clip0_2063_249071">
<rect width="405" height="218" fill="white" transform="translate(0 -0.979614)"/>
</clipPath>
<clipPath id="clip1_2063_249071">
<rect x="83" y="43.4706" width="239.25" height="129.75" rx="3" fill="white"/>
</clipPath>
<clipPath id="clip2_2063_249071">
<rect x="83" y="43.4706" width="239.25" height="129.75" rx="4.5" fill="white"/>
</clipPath>
</defs>
</svg>
