<?xml version="1.0" encoding="UTF-8" standalone="no"?>
<!DOCTYPE svg PUBLIC "-//W3C//DTD SVG 1.1//EN" "http://www.w3.org/Graphics/SVG/1.1/DTD/svg11.dtd">
<svg width="100%" height="100%" viewBox="0 0 150 16" version="1.1" xmlns="http://www.w3.org/2000/svg" xmlns:xlink="http://www.w3.org/1999/xlink" xml:space="preserve" xmlns:serif="http://www.serif.com/" style="fill-rule:evenodd;clip-rule:evenodd;stroke-linejoin:round;stroke-miterlimit:2;">
    <g>
        <path d="M21.465,3.167L22.231,0L6.102,0C4.523,0 2.929,1.301 2.541,2.907L0.086,13.071C-0.302,14.676 0.663,15.977 2.241,15.977L18.37,15.977L19.136,12.81L6.304,12.81C5.778,12.81 5.457,12.376 5.586,11.841L6.134,9.572L19.917,9.572L20.683,6.405L6.9,6.405L7.448,4.136C7.577,3.601 8.108,3.167 8.634,3.167L21.465,3.167Z" style="fill-rule:nonzero;"/>
        <path d="M42.558,3.167L43.323,0L27.194,0C25.615,0 24.022,1.301 23.634,2.907L21.178,13.071C20.79,14.676 21.755,15.977 23.333,15.977L39.462,15.977L40.228,12.81L27.397,12.81C26.871,12.81 26.549,12.376 26.678,11.841L28.54,4.136C28.669,3.601 29.201,3.167 29.727,3.167L42.558,3.167Z" style="fill-rule:nonzero;"/>
        <path d="M47.997,11.841L50.859,0L45.655,0L42.497,13.071C42.109,14.676 43.075,15.977 44.653,15.977L60.782,15.977L61.547,12.81L48.716,12.81C48.19,12.81 47.869,12.376 47.998,11.841L47.997,11.841Z" style="fill-rule:nonzero;"/>
        <path d="M84.996,3.167L85.761,0L66.774,0L66.009,3.167L71.948,3.167C72.474,3.167 72.796,3.601 72.667,4.136L70.805,11.841C70.676,12.376 70.144,12.81 69.618,12.81L63.679,12.81L62.914,15.977L81.901,15.977L82.666,12.81L76.727,12.81C76.201,12.81 75.879,12.376 76.008,11.841L77.87,4.136C77.999,3.601 78.531,3.167 79.057,3.167L84.996,3.167Z" style="fill-rule:nonzero;"/>
        <path d="M104.156,0L90.885,0C89.306,0 87.712,1.301 87.325,2.907L84.167,15.977L89.37,15.977L90.917,9.572L101.843,9.572C103.421,9.572 105.015,8.271 105.403,6.666L106.311,2.907C106.699,1.301 105.734,0 104.156,0ZM99.337,6.405L91.682,6.405L92.465,3.167L100.119,3.167C100.645,3.167 100.967,3.601 100.838,4.136L100.524,5.436C100.394,5.971 99.863,6.405 99.337,6.405Z" style="fill-rule:nonzero;"/>
        <path d="M121.388,15.977L105.259,15.977L106.024,12.81L118.831,12.81C119.358,12.81 119.889,12.376 120.018,11.841L120.332,10.541C120.461,10.006 120.139,9.572 119.613,9.572L109.664,9.572C108.085,9.572 107.12,8.271 107.508,6.666L108.417,2.907C108.804,1.301 110.398,0 111.977,0L128.106,0L127.34,3.167L114.509,3.167C113.983,3.167 113.452,3.601 113.322,4.136L113.009,5.436C112.879,5.971 113.201,6.405 113.727,6.405L123.7,6.405C125.279,6.405 126.243,7.706 125.856,9.312L124.948,13.071C124.56,14.676 122.966,15.977 121.387,15.977L121.388,15.977Z" style="fill-rule:nonzero;"/>
        <path d="M148.568,3.167L149.333,0L133.204,0C131.626,0 130.032,1.301 129.643,2.907L127.188,13.071C126.8,14.676 127.766,15.977 129.343,15.977L145.472,15.977L146.238,12.81L133.407,12.81C132.881,12.81 132.559,12.376 132.689,11.841L133.237,9.572L147.02,9.572L147.786,6.405L134.002,6.405L134.55,4.136C134.679,3.601 135.21,3.167 135.737,3.167L148.568,3.167Z" style="fill-rule:nonzero;"/>
    </g>
</svg>
