<svg width="519" height="638" viewBox="0 0 519 638" fill="none" xmlns="http://www.w3.org/2000/svg">
<path opacity="0.77" d="M64.3857 338.825L5.60997 338.825C3.06401 338.825 1.0001 340.889 1.0001 343.435L1.00009 637.314" stroke="url(#paint0_linear_1930_244918)" stroke-width="1.15247"/>
<path opacity="0.77" d="M77.0627 350.349L17.1345 350.349C14.5885 350.349 12.5246 352.413 12.5246 354.959L12.5246 637.313" stroke="url(#paint1_linear_1930_244918)" stroke-width="1.15247"/>
<path opacity="0.77" d="M87.4351 364.179L28.6593 364.179C26.1133 364.179 24.0494 366.243 24.0494 368.789L24.0494 637.313" stroke="url(#paint2_linear_1930_244918)" stroke-width="1.15247"/>
<path opacity="0.77" d="M451.614 298.488L510.39 298.488C512.936 298.488 515 296.424 515 293.878L515 -0.000535212" stroke="url(#paint3_linear_1930_244918)" stroke-width="1.15247"/>
<path opacity="0.77" d="M438.937 286.964L498.865 286.964C501.411 286.964 503.475 284.9 503.475 282.354L503.475 -0.000501028" stroke="url(#paint4_linear_1930_244918)" stroke-width="1.15247"/>
<path opacity="0.77" d="M428.565 273.134L487.341 273.134C489.887 273.134 491.951 271.07 491.951 268.524L491.951 -0.00049019" stroke="url(#paint5_linear_1930_244918)" stroke-width="1.15247"/>
<g filter="url(#filter0_ddddd_1930_244918)">
<g clip-path="url(#clip0_1930_244918)">
<rect x="44.7939" y="191.309" width="421.803" height="281.202" rx="12.7819" fill="white"/>
<g clip-path="url(#clip1_1930_244918)">
<rect x="71.3005" y="229.34" width="367.637" height="73.2212" rx="9.21973" fill="white"/>
<rect x="85.1301" y="243.17" width="43.0243" height="45.562" rx="3.12904" fill="#DEE2E6"/>
<path d="M153.294 252.682H151.511V251.962H153.294C153.639 251.962 153.919 251.907 154.133 251.797C154.347 251.687 154.502 251.534 154.6 251.339C154.701 251.143 154.751 250.92 154.751 250.67C154.751 250.44 154.701 250.225 154.6 250.023C154.502 249.822 154.347 249.66 154.133 249.538C153.919 249.412 153.639 249.35 153.294 249.35H151.717V255.299H150.832V248.625H153.294C153.798 248.625 154.224 248.712 154.573 248.887C154.921 249.061 155.185 249.302 155.366 249.611C155.546 249.916 155.636 250.266 155.636 250.661C155.636 251.088 155.546 251.453 155.366 251.756C155.185 252.058 154.921 252.289 154.573 252.448C154.224 252.604 153.798 252.682 153.294 252.682ZM156.661 248.625H158.87C159.371 248.625 159.794 248.702 160.139 248.855C160.488 249.007 160.752 249.233 160.932 249.533C161.116 249.829 161.207 250.195 161.207 250.628C161.207 250.934 161.145 251.214 161.02 251.467C160.897 251.718 160.72 251.932 160.488 252.109C160.259 252.283 159.984 252.413 159.663 252.499L159.415 252.595H157.339L157.33 251.875H158.897C159.215 251.875 159.479 251.82 159.69 251.71C159.901 251.597 160.06 251.446 160.167 251.256C160.274 251.067 160.327 250.858 160.327 250.628C160.327 250.372 160.277 250.147 160.176 249.955C160.075 249.762 159.916 249.614 159.699 249.51C159.486 249.403 159.209 249.35 158.87 249.35H157.545V255.299H156.661V248.625ZM160.561 255.299L158.939 252.274L159.86 252.269L161.505 255.244V255.299H160.561ZM163.3 248.625V255.299H162.415V248.625H163.3ZM169.953 251.751V252.173C169.953 252.674 169.89 253.123 169.765 253.521C169.64 253.918 169.46 254.256 169.224 254.534C168.989 254.812 168.706 255.024 168.376 255.171C168.049 255.317 167.683 255.391 167.276 255.391C166.882 255.391 166.52 255.317 166.19 255.171C165.863 255.024 165.579 254.812 165.337 254.534C165.099 254.256 164.914 253.918 164.783 253.521C164.651 253.123 164.586 252.674 164.586 252.173V251.751C164.586 251.25 164.65 250.803 164.778 250.408C164.91 250.011 165.095 249.674 165.333 249.395C165.571 249.114 165.854 248.9 166.181 248.754C166.511 248.607 166.873 248.534 167.267 248.534C167.674 248.534 168.04 248.607 168.367 248.754C168.697 248.9 168.98 249.114 169.215 249.395C169.453 249.674 169.635 250.011 169.761 250.408C169.889 250.803 169.953 251.25 169.953 251.751ZM169.078 252.173V251.742C169.078 251.345 169.036 250.994 168.954 250.688C168.874 250.382 168.757 250.126 168.601 249.918C168.445 249.71 168.254 249.553 168.028 249.446C167.805 249.339 167.551 249.285 167.267 249.285C166.992 249.285 166.743 249.339 166.52 249.446C166.3 249.553 166.111 249.71 165.952 249.918C165.796 250.126 165.675 250.382 165.59 250.688C165.504 250.994 165.461 251.345 165.461 251.742V252.173C165.461 252.573 165.504 252.928 165.59 253.236C165.675 253.542 165.797 253.8 165.956 254.011C166.118 254.219 166.309 254.376 166.529 254.483C166.752 254.59 167.001 254.644 167.276 254.644C167.564 254.644 167.819 254.59 168.042 254.483C168.265 254.376 168.453 254.219 168.606 254.011C168.761 253.8 168.879 253.542 168.958 253.236C169.038 252.928 169.078 252.573 169.078 252.173ZM171.184 248.625H173.393C173.894 248.625 174.317 248.702 174.663 248.855C175.011 249.007 175.275 249.233 175.456 249.533C175.639 249.829 175.731 250.195 175.731 250.628C175.731 250.934 175.668 251.214 175.543 251.467C175.421 251.718 175.243 251.932 175.011 252.109C174.782 252.283 174.507 252.413 174.186 252.499L173.939 252.595H171.862L171.853 251.875H173.421C173.738 251.875 174.003 251.82 174.214 251.71C174.424 251.597 174.583 251.446 174.69 251.256C174.797 251.067 174.851 250.858 174.851 250.628C174.851 250.372 174.8 250.147 174.699 249.955C174.599 249.762 174.44 249.614 174.223 249.51C174.009 249.403 173.732 249.35 173.393 249.35H172.068V255.299H171.184V248.625ZM175.084 255.299L173.462 252.274L174.383 252.269L176.029 255.244V255.299H175.084ZM177.823 248.625V255.299H176.939V248.625H177.823ZM181.667 248.625V255.299H180.796V248.625H181.667ZM183.812 248.625V249.35H178.655V248.625H183.812ZM185.088 248.625L186.821 251.976L188.558 248.625H189.562L187.261 252.806V255.299H186.376V252.806L184.075 248.625H185.088ZM196.117 253.612C196.117 253.456 196.092 253.319 196.043 253.2C195.997 253.078 195.915 252.968 195.796 252.87C195.68 252.772 195.518 252.679 195.31 252.59C195.105 252.502 194.845 252.411 194.531 252.32C194.201 252.222 193.903 252.113 193.637 251.994C193.371 251.872 193.143 251.733 192.954 251.577C192.764 251.421 192.619 251.243 192.518 251.041C192.418 250.839 192.367 250.609 192.367 250.349C192.367 250.089 192.421 249.849 192.528 249.629C192.635 249.409 192.787 249.218 192.986 249.056C193.188 248.891 193.428 248.763 193.706 248.671C193.984 248.58 194.294 248.534 194.636 248.534C195.137 248.534 195.562 248.63 195.91 248.823C196.262 249.012 196.529 249.261 196.712 249.57C196.896 249.875 196.987 250.202 196.987 250.551H196.107C196.107 250.3 196.054 250.078 195.947 249.886C195.84 249.69 195.678 249.538 195.461 249.428C195.244 249.314 194.969 249.258 194.636 249.258C194.321 249.258 194.062 249.305 193.857 249.4C193.652 249.495 193.499 249.623 193.399 249.785C193.301 249.947 193.252 250.132 193.252 250.34C193.252 250.48 193.281 250.609 193.339 250.725C193.4 250.838 193.493 250.943 193.619 251.041C193.747 251.139 193.909 251.229 194.104 251.311C194.303 251.394 194.54 251.473 194.815 251.55C195.194 251.657 195.521 251.776 195.796 251.907C196.071 252.039 196.297 252.187 196.474 252.352C196.654 252.514 196.787 252.699 196.873 252.906C196.961 253.111 197.006 253.343 197.006 253.603C197.006 253.875 196.951 254.121 196.841 254.341C196.731 254.561 196.573 254.749 196.369 254.905C196.164 255.061 195.918 255.181 195.631 255.267C195.347 255.349 195.029 255.391 194.677 255.391C194.369 255.391 194.065 255.348 193.765 255.262C193.469 255.177 193.198 255.049 192.954 254.877C192.713 254.706 192.518 254.495 192.372 254.245C192.228 253.991 192.156 253.698 192.156 253.365H193.036C193.036 253.594 193.081 253.791 193.169 253.956C193.258 254.118 193.379 254.252 193.531 254.359C193.687 254.466 193.863 254.546 194.059 254.598C194.257 254.647 194.463 254.671 194.677 254.671C194.986 254.671 195.247 254.628 195.461 254.543C195.675 254.457 195.837 254.335 195.947 254.176C196.06 254.017 196.117 253.829 196.117 253.612ZM201.858 248.625H202.738V253.14C202.738 253.641 202.626 254.058 202.403 254.392C202.18 254.725 201.884 254.975 201.514 255.143C201.147 255.308 200.748 255.391 200.318 255.391C199.865 255.391 199.456 255.308 199.089 255.143C198.725 254.975 198.437 254.725 198.223 254.392C198.012 254.058 197.907 253.641 197.907 253.14V248.625H198.782V253.14C198.782 253.489 198.846 253.776 198.975 254.002C199.103 254.228 199.282 254.396 199.511 254.506C199.743 254.616 200.012 254.671 200.318 254.671C200.626 254.671 200.895 254.616 201.124 254.506C201.356 254.396 201.537 254.228 201.665 254.002C201.793 253.776 201.858 253.489 201.858 253.14V248.625ZM206.494 252.682H204.711V251.962H206.494C206.839 251.962 207.119 251.907 207.333 251.797C207.547 251.687 207.702 251.534 207.8 251.339C207.901 251.143 207.952 250.92 207.952 250.67C207.952 250.44 207.901 250.225 207.8 250.023C207.702 249.822 207.547 249.66 207.333 249.538C207.119 249.412 206.839 249.35 206.494 249.35H204.917V255.299H204.033V248.625H206.494C206.998 248.625 207.424 248.712 207.773 248.887C208.121 249.061 208.385 249.302 208.566 249.611C208.746 249.916 208.836 250.266 208.836 250.661C208.836 251.088 208.746 251.453 208.566 251.756C208.385 252.058 208.121 252.289 207.773 252.448C207.424 252.604 206.998 252.682 206.494 252.682ZM212.322 252.682H210.539V251.962H212.322C212.667 251.962 212.947 251.907 213.161 251.797C213.375 251.687 213.531 251.534 213.628 251.339C213.729 251.143 213.78 250.92 213.78 250.67C213.78 250.44 213.729 250.225 213.628 250.023C213.531 249.822 213.375 249.66 213.161 249.538C212.947 249.412 212.667 249.35 212.322 249.35H210.745V255.299H209.861V248.625H212.322C212.826 248.625 213.252 248.712 213.601 248.887C213.949 249.061 214.214 249.302 214.394 249.611C214.574 249.916 214.664 250.266 214.664 250.661C214.664 251.088 214.574 251.453 214.394 251.756C214.214 252.058 213.949 252.289 213.601 252.448C213.252 252.604 212.826 252.682 212.322 252.682ZM220.827 251.751V252.173C220.827 252.674 220.764 253.123 220.639 253.521C220.514 253.918 220.333 254.256 220.098 254.534C219.863 254.812 219.58 255.024 219.25 255.171C218.923 255.317 218.557 255.391 218.15 255.391C217.756 255.391 217.394 255.317 217.064 255.171C216.737 255.024 216.453 254.812 216.211 254.534C215.973 254.256 215.788 253.918 215.657 253.521C215.525 253.123 215.46 252.674 215.46 252.173V251.751C215.46 251.25 215.524 250.803 215.652 250.408C215.783 250.011 215.968 249.674 216.207 249.395C216.445 249.114 216.728 248.9 217.055 248.754C217.385 248.607 217.747 248.534 218.141 248.534C218.547 248.534 218.914 248.607 219.241 248.754C219.571 248.9 219.854 249.114 220.089 249.395C220.327 249.674 220.509 250.011 220.634 250.408C220.763 250.803 220.827 251.25 220.827 251.751ZM219.951 252.173V251.742C219.951 251.345 219.91 250.994 219.828 250.688C219.748 250.382 219.631 250.126 219.475 249.918C219.319 249.71 219.128 249.553 218.902 249.446C218.679 249.339 218.425 249.285 218.141 249.285C217.866 249.285 217.617 249.339 217.394 249.446C217.174 249.553 216.984 249.71 216.825 249.918C216.67 250.126 216.549 250.382 216.463 250.688C216.378 250.994 216.335 251.345 216.335 251.742V252.173C216.335 252.573 216.378 252.928 216.463 253.236C216.549 253.542 216.671 253.8 216.83 254.011C216.992 254.219 217.183 254.376 217.403 254.483C217.626 254.59 217.875 254.644 218.15 254.644C218.437 254.644 218.693 254.59 218.916 254.483C219.139 254.376 219.327 254.219 219.479 254.011C219.635 253.8 219.753 253.542 219.832 253.236C219.912 252.928 219.951 252.573 219.951 252.173ZM222.058 248.625H224.267C224.768 248.625 225.191 248.702 225.537 248.855C225.885 249.007 226.149 249.233 226.33 249.533C226.513 249.829 226.605 250.195 226.605 250.628C226.605 250.934 226.542 251.214 226.417 251.467C226.294 251.718 226.117 251.932 225.885 252.109C225.656 252.283 225.381 252.413 225.06 252.499L224.812 252.595H222.736L222.727 251.875H224.294C224.612 251.875 224.877 251.82 225.087 251.71C225.298 251.597 225.457 251.446 225.564 251.256C225.671 251.067 225.725 250.858 225.725 250.628C225.725 250.372 225.674 250.147 225.573 249.955C225.472 249.762 225.314 249.614 225.097 249.51C224.883 249.403 224.606 249.35 224.267 249.35H222.942V255.299H222.058V248.625ZM225.958 255.299L224.336 252.274L225.257 252.269L226.903 255.244V255.299H225.958ZM229.848 248.625V255.299H228.977V248.625H229.848ZM231.993 248.625V249.35H226.836V248.625H231.993Z" fill="#0784C3"/>
<rect x="141.062" y="243.561" width="100.992" height="18.4758" rx="9.23791" stroke="#0784C3" stroke-width="0.782261"/>
<rect x="140.671" y="272.597" width="100.265" height="16.1345" rx="3.12904" fill="#DEE2E6"/>
<rect x="250.155" y="272.597" width="43.0243" height="16.1345" rx="3.12904" fill="#DEE2E6"/>
<line x1="72.453" y1="233.165" x2="72.453" y2="300.008" stroke="url(#paint6_linear_1930_244918)" stroke-width="2.30493"/>
</g>
<rect x="71.6917" y="229.731" width="366.855" height="72.4389" rx="8.8286" stroke="#DEE2E6" stroke-width="0.782261"/>
<g opacity="0.5">
<rect x="71.6917" y="321.392" width="366.855" height="69.3154" rx="8.8286" fill="white"/>
<rect x="85.1301" y="334.831" width="43.0243" height="42.4384" rx="3.12904" fill="#DEE2E6"/>
<rect x="140.671" y="334.831" width="100.265" height="16.1345" rx="3.12904" fill="#DEE2E6"/>
<rect x="140.671" y="361.135" width="100.265" height="16.1345" rx="3.12904" fill="#DEE2E6"/>
<rect x="250.155" y="361.135" width="43.0243" height="16.1345" rx="3.12904" fill="#DEE2E6"/>
<rect x="71.6917" y="321.392" width="366.855" height="69.3154" rx="8.8286" stroke="#E9ECEF" stroke-width="0.782261"/>
</g>
<g opacity="0.33">
<rect x="71.6917" y="409.929" width="366.855" height="69.3154" rx="8.8286" fill="white"/>
<rect x="85.1301" y="423.368" width="43.0243" height="42.4384" rx="3.12904" fill="#DEE2E6"/>
<rect x="140.671" y="423.368" width="100.265" height="16.1345" rx="3.12904" fill="#DEE2E6"/>
<rect x="140.671" y="449.672" width="100.265" height="16.1345" rx="3.12904" fill="#DEE2E6"/>
<rect x="250.155" y="449.672" width="43.0243" height="16.1345" rx="3.12904" fill="#DEE2E6"/>
<rect x="71.6917" y="409.929" width="366.855" height="69.3154" rx="8.8286" stroke="#E9ECEF" stroke-width="0.782261"/>
</g>
</g>
<rect x="45.3702" y="191.885" width="420.65" height="280.049" rx="12.2057" stroke="url(#paint7_linear_1930_244918)" stroke-opacity="0.5" stroke-width="1.15247"/>
</g>
<defs>
<filter id="filter0_ddddd_1930_244918" x="40.1841" y="186.699" width="478.274" height="343.435" filterUnits="userSpaceOnUse" color-interpolation-filters="sRGB">
<feFlood flood-opacity="0" result="BackgroundImageFix"/>
<feColorMatrix in="SourceAlpha" type="matrix" values="0 0 0 0 0 0 0 0 0 0 0 0 0 0 0 0 0 0 127 0" result="hardAlpha"/>
<feOffset/>
<feColorMatrix type="matrix" values="0 0 0 0 0.286275 0 0 0 0 0.517647 0 0 0 0 0.635294 0 0 0 0.05 0"/>
<feBlend mode="normal" in2="BackgroundImageFix" result="effect1_dropShadow_1930_244918"/>
<feColorMatrix in="SourceAlpha" type="matrix" values="0 0 0 0 0 0 0 0 0 0 0 0 0 0 0 0 0 0 127 0" result="hardAlpha"/>
<feOffset dx="2.30493" dy="2.30493"/>
<feGaussianBlur stdDeviation="3.4574"/>
<feColorMatrix type="matrix" values="0 0 0 0 0.286275 0 0 0 0 0.517647 0 0 0 0 0.635294 0 0 0 0.05 0"/>
<feBlend mode="normal" in2="effect1_dropShadow_1930_244918" result="effect2_dropShadow_1930_244918"/>
<feColorMatrix in="SourceAlpha" type="matrix" values="0 0 0 0 0 0 0 0 0 0 0 0 0 0 0 0 0 0 127 0" result="hardAlpha"/>
<feOffset dx="8.06726" dy="9.21973"/>
<feGaussianBlur stdDeviation="6.33857"/>
<feColorMatrix type="matrix" values="0 0 0 0 0.286275 0 0 0 0 0.517647 0 0 0 0 0.635294 0 0 0 0.04 0"/>
<feBlend mode="normal" in2="effect2_dropShadow_1930_244918" result="effect3_dropShadow_1930_244918"/>
<feColorMatrix in="SourceAlpha" type="matrix" values="0 0 0 0 0 0 0 0 0 0 0 0 0 0 0 0 0 0 127 0" result="hardAlpha"/>
<feOffset dx="18.4395" dy="21.8969"/>
<feGaussianBlur stdDeviation="8.6435"/>
<feColorMatrix type="matrix" values="0 0 0 0 0.286275 0 0 0 0 0.517647 0 0 0 0 0.635294 0 0 0 0.03 0"/>
<feBlend mode="normal" in2="effect3_dropShadow_1930_244918" result="effect4_dropShadow_1930_244918"/>
<feColorMatrix in="SourceAlpha" type="matrix" values="0 0 0 0 0 0 0 0 0 0 0 0 0 0 0 0 0 0 127 0" result="hardAlpha"/>
<feOffset dx="32.2691" dy="38.0314"/>
<feGaussianBlur stdDeviation="9.79596"/>
<feColorMatrix type="matrix" values="0 0 0 0 0.286275 0 0 0 0 0.517647 0 0 0 0 0.635294 0 0 0 0.01 0"/>
<feBlend mode="normal" in2="effect4_dropShadow_1930_244918" result="effect5_dropShadow_1930_244918"/>
<feBlend mode="normal" in="SourceGraphic" in2="effect5_dropShadow_1930_244918" result="shape"/>
</filter>
<linearGradient id="paint0_linear_1930_244918" x1="49.4037" y1="339.392" x2="49.4037" y2="578.687" gradientUnits="userSpaceOnUse">
<stop offset="0.665992" stop-color="#DEE2E6"/>
<stop offset="0.801389" stop-color="#DEE2E6" stop-opacity="0"/>
</linearGradient>
<linearGradient id="paint1_linear_1930_244918" x1="61.8083" y1="350.894" x2="62.6569" y2="558.888" gradientUnits="userSpaceOnUse">
<stop offset="0.263115" stop-color="#DEE2E6"/>
<stop offset="0.794315" stop-color="#DEE2E6" stop-opacity="0"/>
</linearGradient>
<linearGradient id="paint2_linear_1930_244918" x1="72.453" y1="364.698" x2="72.453" y2="621.698" gradientUnits="userSpaceOnUse">
<stop stop-color="#DEE2E6"/>
<stop offset="0.457208" stop-color="#DEE2E6" stop-opacity="0"/>
</linearGradient>
<linearGradient id="paint3_linear_1930_244918" x1="498.865" y1="299.055" x2="498.865" y2="89.9872" gradientUnits="userSpaceOnUse">
<stop stop-color="#DEE2E6"/>
<stop offset="0.952541" stop-color="#DEE2E6" stop-opacity="0"/>
</linearGradient>
<linearGradient id="paint4_linear_1930_244918" x1="487.047" y1="287.509" x2="487.047" y2="86.5128" gradientUnits="userSpaceOnUse">
<stop stop-color="#DEE2E6"/>
<stop offset="0.839378" stop-color="#DEE2E6" stop-opacity="0"/>
</linearGradient>
<linearGradient id="paint5_linear_1930_244918" x1="475.816" y1="273.653" x2="475.816" y2="82.3435" gradientUnits="userSpaceOnUse">
<stop stop-color="#DEE2E6"/>
<stop offset="0.605774" stop-color="#DEE2E6" stop-opacity="0"/>
</linearGradient>
<linearGradient id="paint6_linear_1930_244918" x1="75.8005" y1="305.194" x2="59.4661" y2="243.398" gradientUnits="userSpaceOnUse">
<stop stop-color="#6BA6EB"/>
<stop offset="1" stop-color="#0784C3" stop-opacity="0.98"/>
</linearGradient>
<linearGradient id="paint7_linear_1930_244918" x1="-83.8239" y1="141.779" x2="466.597" y2="485.293" gradientUnits="userSpaceOnUse">
<stop stop-color="#C1CCF2"/>
<stop offset="1" stop-opacity="0"/>
</linearGradient>
<clipPath id="clip0_1930_244918">
<rect x="44.7939" y="191.309" width="421.803" height="281.202" rx="12.7819" fill="white"/>
</clipPath>
<clipPath id="clip1_1930_244918">
<rect x="71.3005" y="229.34" width="367.637" height="73.2212" rx="9.21973" fill="white"/>
</clipPath>
</defs>
</svg>
