<svg width="405" height="218" viewBox="0 0 405 218" fill="none" xmlns="http://www.w3.org/2000/svg">
<g clip-path="url(#clip0_2063_249372)">
<rect width="405" height="218" transform="translate(0 -0.979614)" fill="white"/>
<path d="M210 121.02L102 121.02" stroke="url(#paint0_linear_2063_249372)"/>
<path d="M210 117.471L102 117.471" stroke="url(#paint1_linear_2063_249372)"/>
<g opacity="0.2">
<rect x="0.319905" y="-43.1147" width="50.545" height="50.545" stroke="#E9ECEF" stroke-width="0.63981"/>
<rect x="50.8648" y="-43.1145" width="50.545" height="50.545" stroke="#E9ECEF" stroke-width="0.63981"/>
<rect x="101.41" y="-43.1145" width="50.545" height="50.545" stroke="#E9ECEF" stroke-width="0.63981"/>
<rect x="151.955" y="-43.1145" width="50.545" height="50.545" stroke="#E9ECEF" stroke-width="0.63981"/>
<rect x="202.5" y="-43.1145" width="50.545" height="50.545" stroke="#E9ECEF" stroke-width="0.63981"/>
<rect x="253.045" y="-43.1145" width="50.545" height="50.545" stroke="#E9ECEF" stroke-width="0.63981"/>
<rect x="303.59" y="-43.1145" width="50.545" height="50.545" stroke="#E9ECEF" stroke-width="0.63981"/>
<rect x="354.135" y="-43.1145" width="50.545" height="50.545" stroke="#E9ECEF" stroke-width="0.63981"/>
<rect x="0.319905" y="7.43038" width="50.545" height="50.545" stroke="#E9ECEF" stroke-width="0.63981"/>
<rect opacity="0.5" x="50.8648" y="7.43062" width="50.545" height="50.545" fill="url(#paint2_linear_2063_249372)" stroke="#E9ECEF" stroke-width="0.63981"/>
<rect x="101.41" y="7.43062" width="50.545" height="50.545" stroke="#E9ECEF" stroke-width="0.63981"/>
<rect x="151.955" y="7.43062" width="50.545" height="50.545" stroke="#E9ECEF" stroke-width="0.63981"/>
<rect x="202.5" y="7.43062" width="50.545" height="50.545" stroke="#E9ECEF" stroke-width="0.63981"/>
<rect x="253.045" y="7.43062" width="50.545" height="50.545" stroke="#E9ECEF" stroke-width="0.63981"/>
<rect x="303.59" y="7.43062" width="50.545" height="50.545" fill="url(#paint3_linear_2063_249372)" stroke="#E9ECEF" stroke-width="0.63981"/>
<rect x="354.135" y="7.43062" width="50.545" height="50.545" fill="url(#paint4_linear_2063_249372)" stroke="#E9ECEF" stroke-width="0.63981"/>
<rect x="0.319905" y="57.9754" width="50.545" height="50.545" stroke="#E9ECEF" stroke-width="0.63981"/>
<rect x="50.8648" y="57.9754" width="50.545" height="50.545" stroke="#E9ECEF" stroke-width="0.63981"/>
<rect x="101.41" y="57.9754" width="50.545" height="50.545" stroke="#E9ECEF" stroke-width="0.63981"/>
<rect x="151.955" y="57.9754" width="50.545" height="50.545" stroke="#E9ECEF" stroke-width="0.63981"/>
<rect x="202.5" y="57.9754" width="50.545" height="50.545" stroke="#E9ECEF" stroke-width="0.63981"/>
<rect x="253.045" y="57.9754" width="50.545" height="50.545" stroke="#E9ECEF" stroke-width="0.63981"/>
<rect x="303.59" y="57.9754" width="50.545" height="50.545" stroke="#E9ECEF" stroke-width="0.63981"/>
<rect x="354.135" y="57.9754" width="50.545" height="50.545" stroke="#E9ECEF" stroke-width="0.63981"/>
<rect opacity="0.5" x="0.319905" y="108.52" width="50.545" height="50.545" fill="url(#paint5_linear_2063_249372)" stroke="#E9ECEF" stroke-width="0.63981"/>
<rect x="50.8648" y="108.52" width="50.545" height="50.545" stroke="#E9ECEF" stroke-width="0.63981"/>
<rect x="101.41" y="108.52" width="50.545" height="50.545" stroke="#E9ECEF" stroke-width="0.63981"/>
<rect x="151.955" y="108.52" width="50.545" height="50.545" fill="url(#paint6_linear_2063_249372)" stroke="#E9ECEF" stroke-width="0.63981"/>
<rect x="202.5" y="108.52" width="50.545" height="50.545" stroke="#E9ECEF" stroke-width="0.63981"/>
<rect x="253.045" y="108.52" width="50.545" height="50.545" fill="url(#paint7_linear_2063_249372)" stroke="#E9ECEF" stroke-width="0.63981"/>
<rect x="303.59" y="108.52" width="50.545" height="50.545" fill="url(#paint8_linear_2063_249372)" stroke="#E9ECEF" stroke-width="0.63981"/>
<rect x="354.135" y="108.52" width="50.545" height="50.545" stroke="#E9ECEF" stroke-width="0.63981"/>
<rect x="0.319905" y="159.065" width="50.545" height="50.545" stroke="#E9ECEF" stroke-width="0.63981"/>
<rect x="50.8648" y="159.065" width="50.545" height="50.545" fill="url(#paint9_linear_2063_249372)" stroke="#E9ECEF" stroke-width="0.63981"/>
<rect x="101.41" y="159.065" width="50.545" height="50.545" stroke="#E9ECEF" stroke-width="0.63981"/>
<rect x="151.955" y="159.065" width="50.545" height="50.545" stroke="#E9ECEF" stroke-width="0.63981"/>
<rect x="202.5" y="159.065" width="50.545" height="50.545" stroke="#E9ECEF" stroke-width="0.63981"/>
<rect x="253.045" y="159.065" width="50.545" height="50.545" stroke="#E9ECEF" stroke-width="0.63981"/>
<rect x="303.59" y="159.065" width="50.545" height="50.545" stroke="#E9ECEF" stroke-width="0.63981"/>
<rect x="354.135" y="159.065" width="50.545" height="50.545" fill="url(#paint10_linear_2063_249372)" stroke="#E9ECEF" stroke-width="0.63981"/>
<rect x="0.319905" y="209.61" width="50.545" height="50.545" stroke="#E9ECEF" stroke-width="0.63981"/>
<rect opacity="0.5" x="50.8648" y="209.61" width="50.545" height="50.545" fill="url(#paint11_linear_2063_249372)" stroke="#E9ECEF" stroke-width="0.63981"/>
<rect x="101.41" y="209.61" width="50.545" height="50.545" stroke="#E9ECEF" stroke-width="0.63981"/>
<rect x="151.955" y="209.61" width="50.545" height="50.545" stroke="#E9ECEF" stroke-width="0.63981"/>
<rect x="202.5" y="209.61" width="50.545" height="50.545" stroke="#E9ECEF" stroke-width="0.63981"/>
<rect x="253.045" y="209.61" width="50.545" height="50.545" stroke="#E9ECEF" stroke-width="0.63981"/>
<rect opacity="0.5" x="303.59" y="209.61" width="50.545" height="50.545" fill="url(#paint12_linear_2063_249372)" stroke="#E9ECEF" stroke-width="0.63981"/>
<rect x="354.135" y="209.61" width="50.545" height="50.545" stroke="#E9ECEF" stroke-width="0.63981"/>
</g>
<rect width="294" height="206" transform="translate(203 44.0204)" fill="white"/>
<mask id="mask0_2063_249372" style="mask-type:alpha" maskUnits="userSpaceOnUse" x="2" y="48" width="99" height="150">
<rect x="2" y="48.4706" width="99" height="149" fill="url(#paint13_linear_2063_249372)"/>
</mask>
<g mask="url(#mask0_2063_249372)">
<rect width="51" height="50" transform="translate(51 47.0204)" fill="url(#paint14_linear_2063_249372)"/>
<g filter="url(#filter0_f_2063_249372)">
<path d="M68.7949 71.5946H69.3574C69.5762 71.5946 69.7572 71.5568 69.9004 71.4813C70.0462 71.4058 70.1543 71.3016 70.2246 71.1688C70.2949 71.036 70.3301 70.8837 70.3301 70.7118C70.3301 70.5321 70.2975 70.3785 70.2324 70.2509C70.1699 70.1206 70.0736 70.0204 69.9434 69.9501C69.8158 69.8798 69.653 69.8446 69.4551 69.8446C69.2884 69.8446 69.1374 69.8785 69.002 69.9462C68.8691 70.0113 68.7637 70.105 68.6855 70.2274C68.6074 70.3472 68.5684 70.4904 68.5684 70.6571H67.623C67.623 70.355 67.7025 70.0868 67.8613 69.8524C68.0202 69.618 68.2363 69.4344 68.5098 69.3016C68.7858 69.1662 69.0957 69.0985 69.4395 69.0985C69.8066 69.0985 70.127 69.1597 70.4004 69.2821C70.6764 69.4019 70.8913 69.5816 71.0449 69.8212C71.1986 70.0608 71.2754 70.3576 71.2754 70.7118C71.2754 70.8733 71.2376 71.0373 71.1621 71.204C71.0866 71.3706 70.9746 71.523 70.8262 71.661C70.6777 71.7964 70.4928 71.9071 70.2715 71.993C70.0501 72.0764 69.7936 72.118 69.502 72.118H68.7949V71.5946ZM68.7949 72.329V71.8134H69.502C69.8353 71.8134 70.1191 71.8524 70.3535 71.9305C70.5905 72.0087 70.7832 72.1167 70.9316 72.2548C71.0801 72.3902 71.1882 72.5451 71.2559 72.7196C71.3262 72.8941 71.3613 73.079 71.3613 73.2743C71.3613 73.5399 71.3132 73.7769 71.2168 73.9852C71.123 74.191 70.9889 74.3654 70.8145 74.5087C70.64 74.6519 70.4355 74.76 70.2012 74.8329C69.9694 74.9058 69.7168 74.9423 69.4434 74.9423C69.1986 74.9423 68.9642 74.9084 68.7402 74.8407C68.5163 74.773 68.3158 74.6727 68.1387 74.5399C67.9616 74.4045 67.821 74.2365 67.7168 74.036C67.6152 73.8329 67.5645 73.5985 67.5645 73.3329H68.5059C68.5059 73.5022 68.5449 73.6519 68.623 73.7821C68.7038 73.9097 68.8158 74.01 68.959 74.0829C69.1048 74.1558 69.2715 74.1923 69.459 74.1923C69.6569 74.1923 69.8275 74.1571 69.9707 74.0868C70.1139 74.0165 70.2233 73.9123 70.2988 73.7743C70.377 73.6363 70.416 73.4696 70.416 73.2743C70.416 73.0529 70.373 72.8733 70.2871 72.7352C70.2012 72.5972 70.0788 72.4956 69.9199 72.4305C69.7611 72.3628 69.5736 72.329 69.3574 72.329H68.7949Z" fill="#ADB5BD"/>
<path d="M74.7246 69.1766V74.8641H73.752V69.1766H74.7246ZM76.5098 69.1766V69.9579H71.9824V69.1766H76.5098Z" fill="#ADB5BD"/>
<path d="M79.9551 69.1415H80.0723V69.911H80.0059C79.6699 69.911 79.3796 69.9631 79.1348 70.0673C78.8926 70.1714 78.6934 70.3147 78.5371 70.4969C78.3809 70.6792 78.2637 70.8928 78.1855 71.1376C78.11 71.3798 78.0723 71.6376 78.0723 71.911V72.8055C78.0723 73.0321 78.097 73.2326 78.1465 73.4071C78.196 73.579 78.265 73.7235 78.3535 73.8407C78.4447 73.9553 78.5488 74.0425 78.666 74.1024C78.7832 74.1623 78.9095 74.1923 79.0449 74.1923C79.1855 74.1923 79.3132 74.1636 79.4277 74.1063C79.5423 74.0464 79.64 73.9644 79.7207 73.8602C79.8014 73.7561 79.8626 73.6324 79.9043 73.4891C79.946 73.3459 79.9668 73.1897 79.9668 73.0204C79.9668 72.8589 79.946 72.7079 79.9043 72.5673C79.8652 72.424 79.8066 72.299 79.7285 72.1923C79.6504 72.0829 79.5527 71.9983 79.4355 71.9384C79.321 71.8759 79.1882 71.8446 79.0371 71.8446C78.8496 71.8446 78.679 71.8889 78.5254 71.9774C78.3743 72.066 78.252 72.1818 78.1582 72.3251C78.0671 72.4657 78.0176 72.6154 78.0098 72.7743L77.6504 72.6571C77.6712 72.4149 77.7246 72.1975 77.8105 72.0048C77.8991 71.8121 78.015 71.648 78.1582 71.5126C78.3014 71.3772 78.4668 71.2743 78.6543 71.204C78.8444 71.1311 79.0527 71.0946 79.2793 71.0946C79.5553 71.0946 79.7949 71.1467 79.998 71.2509C80.2012 71.355 80.3691 71.4969 80.502 71.6766C80.6374 71.8537 80.7376 72.0568 80.8027 72.286C80.8704 72.5126 80.9043 72.7496 80.9043 72.9969C80.9043 73.2704 80.8626 73.5256 80.7793 73.7626C80.696 73.9969 80.5736 74.2027 80.4121 74.3798C80.2533 74.5568 80.0592 74.6949 79.8301 74.7938C79.6035 74.8928 79.3457 74.9423 79.0566 74.9423C78.752 74.9423 78.4798 74.8837 78.2402 74.7665C78.0033 74.6493 77.8014 74.4878 77.6348 74.2821C77.4707 74.0764 77.3457 73.8394 77.2598 73.5712C77.1738 73.3029 77.1309 73.0191 77.1309 72.7196V72.329C77.1309 71.8967 77.1855 71.4891 77.2949 71.1063C77.4043 70.7209 77.5723 70.3811 77.7988 70.0868C78.028 69.7925 78.321 69.5621 78.6777 69.3954C79.0345 69.2261 79.4603 69.1415 79.9551 69.1415Z" fill="#ADB5BD"/>
<path d="M85.4355 69.1766V69.6923L83.1621 74.8641H82.1699L84.4395 69.9266H81.4941V69.1766H85.4355Z" fill="#ADB5BD"/>
</g>
<rect width="51" height="50" transform="translate(51 97.0204)" fill="url(#paint15_linear_2063_249372)"/>
<g filter="url(#filter1_f_2063_249372)">
<path d="M72.4492 122.493V123.243H68.3477L68.3164 122.677L70.7695 118.833H71.5234L70.707 120.231L69.2969 122.493H72.4492ZM71.7383 118.833V124.521H70.7969V118.833H71.7383Z" fill="#ADB5BD"/>
<path d="M74.0781 121.099V124.521H73.1367V120.294H74.0352L74.0781 121.099ZM75.3711 120.267L75.3633 121.142C75.306 121.131 75.2435 121.123 75.1758 121.118C75.1107 121.113 75.0456 121.11 74.9805 121.11C74.819 121.11 74.6771 121.134 74.5547 121.181C74.4323 121.225 74.3294 121.29 74.2461 121.376C74.1654 121.459 74.1029 121.561 74.0586 121.681C74.0143 121.8 73.9883 121.935 73.9805 122.083L73.7656 122.099C73.7656 121.833 73.7917 121.587 73.8438 121.36C73.8958 121.134 73.974 120.935 74.0781 120.763C74.1849 120.591 74.3177 120.457 74.4766 120.36C74.638 120.264 74.8242 120.216 75.0352 120.216C75.0924 120.216 75.1536 120.221 75.2188 120.231C75.2865 120.242 75.3372 120.254 75.3711 120.267Z" fill="#ADB5BD"/>
<path d="M78.3945 118.833V124.521H77.4219V118.833H78.3945ZM80.1797 118.833V119.614H75.6523V118.833H80.1797Z" fill="#ADB5BD"/>
<path d="M84.4883 121.2V122.13C84.4883 122.575 84.444 122.955 84.3555 123.271C84.2695 123.583 84.1445 123.837 83.9805 124.032C83.8164 124.228 83.6198 124.371 83.3906 124.462C83.1641 124.553 82.9102 124.599 82.6289 124.599C82.4049 124.599 82.1966 124.57 82.0039 124.513C81.8138 124.455 81.6419 124.366 81.4883 124.243C81.3346 124.121 81.2031 123.963 81.0938 123.771C80.987 123.575 80.9036 123.342 80.8438 123.071C80.7865 122.8 80.7578 122.487 80.7578 122.13V121.2C80.7578 120.752 80.8021 120.375 80.8906 120.067C80.9792 119.757 81.1055 119.506 81.2695 119.313C81.4336 119.118 81.6289 118.976 81.8555 118.888C82.0846 118.799 82.3398 118.755 82.6211 118.755C82.8477 118.755 83.056 118.784 83.2461 118.841C83.4388 118.896 83.6107 118.983 83.7617 119.103C83.9154 119.222 84.0456 119.379 84.1523 119.571C84.2617 119.761 84.3451 119.992 84.4023 120.263C84.4596 120.531 84.4883 120.843 84.4883 121.2ZM83.5469 122.263V121.06C83.5469 120.833 83.5339 120.634 83.5078 120.462C83.4818 120.287 83.4427 120.14 83.3906 120.021C83.3411 119.898 83.2786 119.799 83.2031 119.724C83.1276 119.646 83.0417 119.59 82.9453 119.556C82.849 119.519 82.7409 119.501 82.6211 119.501C82.4753 119.501 82.3451 119.53 82.2305 119.587C82.1159 119.642 82.0195 119.73 81.9414 119.853C81.8633 119.975 81.8034 120.136 81.7617 120.337C81.7227 120.535 81.7031 120.776 81.7031 121.06V122.263C81.7031 122.492 81.7161 122.694 81.7422 122.868C81.7682 123.043 81.8073 123.192 81.8594 123.317C81.9115 123.44 81.974 123.541 82.0469 123.622C82.1224 123.7 82.2083 123.757 82.3047 123.794C82.4036 123.83 82.5117 123.849 82.6289 123.849C82.7773 123.849 82.9089 123.82 83.0234 123.763C83.138 123.705 83.2344 123.614 83.3125 123.489C83.3906 123.362 83.4492 123.196 83.4883 122.993C83.5273 122.79 83.5469 122.547 83.5469 122.263Z" fill="#ADB5BD"/>
</g>
<rect width="51" height="50" transform="translate(51 147.02)" fill="url(#paint16_linear_2063_249372)"/>
<g filter="url(#filter2_f_2063_249372)">
<path d="M71.7305 174.087V174.864H67.7812V174.087H71.7305ZM71.6406 169.782L68.1445 174.864H67.4883V174.243L70.9961 169.177H71.6406V169.782ZM71.2773 169.177V169.958H67.5117V169.177H71.2773Z" fill="#ADB5BD"/>
<path d="M73.5391 171.595H74.1016C74.3203 171.595 74.5013 171.557 74.6445 171.481C74.7904 171.406 74.8984 171.302 74.9688 171.169C75.0391 171.036 75.0742 170.884 75.0742 170.712C75.0742 170.532 75.0417 170.378 74.9766 170.251C74.9141 170.121 74.8177 170.02 74.6875 169.95C74.5599 169.88 74.3971 169.845 74.1992 169.845C74.0326 169.845 73.8815 169.878 73.7461 169.946C73.6133 170.011 73.5078 170.105 73.4297 170.227C73.3516 170.347 73.3125 170.49 73.3125 170.657H72.3672C72.3672 170.355 72.4466 170.087 72.6055 169.852C72.7643 169.618 72.9805 169.434 73.2539 169.302C73.5299 169.166 73.8398 169.099 74.1836 169.099C74.5508 169.099 74.8711 169.16 75.1445 169.282C75.4206 169.402 75.6354 169.582 75.7891 169.821C75.9427 170.061 76.0195 170.358 76.0195 170.712C76.0195 170.873 75.9818 171.037 75.9062 171.204C75.8307 171.371 75.7188 171.523 75.5703 171.661C75.4219 171.796 75.237 171.907 75.0156 171.993C74.7943 172.076 74.5378 172.118 74.2461 172.118H73.5391V171.595ZM73.5391 172.329V171.813H74.2461C74.5794 171.813 74.8633 171.852 75.0977 171.931C75.3346 172.009 75.5273 172.117 75.6758 172.255C75.8242 172.39 75.9323 172.545 76 172.72C76.0703 172.894 76.1055 173.079 76.1055 173.274C76.1055 173.54 76.0573 173.777 75.9609 173.985C75.8672 174.191 75.7331 174.365 75.5586 174.509C75.3841 174.652 75.1797 174.76 74.9453 174.833C74.7135 174.906 74.4609 174.942 74.1875 174.942C73.9427 174.942 73.7083 174.908 73.4844 174.841C73.2604 174.773 73.0599 174.673 72.8828 174.54C72.7057 174.405 72.5651 174.237 72.4609 174.036C72.3594 173.833 72.3086 173.599 72.3086 173.333H73.25C73.25 173.502 73.2891 173.652 73.3672 173.782C73.4479 173.91 73.5599 174.01 73.7031 174.083C73.849 174.156 74.0156 174.192 74.2031 174.192C74.401 174.192 74.5716 174.157 74.7148 174.087C74.8581 174.016 74.9674 173.912 75.043 173.774C75.1211 173.636 75.1602 173.47 75.1602 173.274C75.1602 173.053 75.1172 172.873 75.0312 172.735C74.9453 172.597 74.8229 172.496 74.6641 172.431C74.5052 172.363 74.3177 172.329 74.1016 172.329H73.5391Z" fill="#ADB5BD"/>
<path d="M78.1094 169.177V174.864H77.1289V169.177H78.1094ZM80.4297 171.665V172.442H77.8594V171.665H80.4297ZM80.7539 169.177V169.958H77.8594V169.177H80.7539Z" fill="#ADB5BD"/>
<path d="M85.5117 174.087V174.864H81.5625V174.087H85.5117ZM85.4219 169.782L81.9258 174.864H81.2695V174.243L84.7773 169.177H85.4219V169.782ZM85.0586 169.177V169.958H81.293V169.177H85.0586Z" fill="#ADB5BD"/>
</g>
</g>
<mask id="mask1_2063_249372" style="mask-type:alpha" maskUnits="userSpaceOnUse" x="165" y="33" width="261" height="172">
<rect x="165" y="33" width="261" height="172" fill="url(#paint17_linear_2063_249372)"/>
</mask>
<g mask="url(#mask1_2063_249372)">
<g clip-path="url(#clip1_2063_249372)">
<rect x="177.984" y="45.0204" width="389.522" height="189" rx="6" fill="white"/>
<g clip-path="url(#clip2_2063_249372)">
<rect x="197.984" y="110.02" width="303" height="67" rx="4" fill="white"/>
<rect x="208.984" y="120.02" width="27" height="7" rx="1" fill="#DEE2E6"/>
<rect x="208.984" y="147.02" width="27" height="7" rx="1" fill="#DEE2E6"/>
<rect x="362.984" y="147.02" width="27" height="7" rx="1" fill="#DEE2E6"/>
<rect x="241.484" y="120.02" width="27" height="7" rx="1" fill="#DEE2E6"/>
<rect x="208.984" y="159.02" width="27" height="4" rx="1" fill="#DEE2E6"/>
<rect x="362.984" y="159.02" width="27" height="4" rx="1" fill="#DEE2E6"/>
<rect x="240.984" y="159.02" width="27" height="4" rx="1" fill="#DEE2E6"/>
<rect x="394.984" y="147.02" width="10" height="7" rx="1" fill="#DEE2E6"/>
<line x1="197.984" y1="136.77" x2="500.984" y2="136.77" stroke="#DEE2E6" stroke-width="0.5"/>
<line x1="350.484" y1="144.02" x2="350.484" y2="163.02" stroke="#DEE2E6"/>
</g>
<rect x="198.234" y="110.27" width="302.5" height="66.5" rx="3.75" stroke="#E9ECEF" stroke-width="0.5"/>
<g clip-path="url(#clip3_2063_249372)">
<rect x="197.984" y="195.02" width="303" height="67" rx="4" fill="white"/>
</g>
<rect x="198.234" y="195.27" width="302.5" height="66.5" rx="3.75" stroke="#E9ECEF" stroke-width="0.5"/>
<rect x="197.984" y="76.0204" width="11" height="11" rx="2" fill="#DEE2E6"/>
<path d="M217.715 77.9111V85.0205H216.377V77.9111H217.715ZM219.922 77.9111V78.9707H214.194V77.9111H219.922Z" fill="#111B36"/>
<path d="M219.626 82.4326V82.3301C219.626 81.9427 219.682 81.5863 219.792 81.2607C219.903 80.932 220.064 80.6471 220.276 80.4062C220.487 80.1654 220.746 79.9782 221.052 79.8447C221.358 79.708 221.706 79.6396 222.097 79.6396C222.494 79.6396 222.846 79.708 223.152 79.8447C223.461 79.9782 223.721 80.1654 223.933 80.4062C224.145 80.6471 224.306 80.932 224.416 81.2607C224.527 81.5863 224.582 81.9427 224.582 82.3301V82.4326C224.582 82.8167 224.527 83.1732 224.416 83.502C224.306 83.8275 224.145 84.1123 223.933 84.3564C223.721 84.5973 223.463 84.7845 223.157 84.918C222.851 85.0514 222.501 85.1182 222.107 85.1182C221.716 85.1182 221.366 85.0514 221.057 84.918C220.748 84.7845 220.487 84.5973 220.276 84.3564C220.064 84.1123 219.903 83.8275 219.792 83.502C219.682 83.1732 219.626 82.8167 219.626 82.4326ZM220.915 82.3301V82.4326C220.915 82.6637 220.938 82.8802 220.984 83.082C221.029 83.2839 221.099 83.4613 221.194 83.6143C221.288 83.7673 221.41 83.8877 221.56 83.9756C221.713 84.0602 221.895 84.1025 222.107 84.1025C222.315 84.1025 222.494 84.0602 222.644 83.9756C222.794 83.8877 222.916 83.7673 223.01 83.6143C223.108 83.4613 223.179 83.2839 223.225 83.082C223.271 82.8802 223.293 82.6637 223.293 82.4326V82.3301C223.293 82.1022 223.271 81.889 223.225 81.6904C223.179 81.4886 223.108 81.3112 223.01 81.1582C222.916 81.002 222.792 80.8799 222.639 80.792C222.489 80.7008 222.309 80.6553 222.097 80.6553C221.889 80.6553 221.71 80.7008 221.56 80.792C221.41 80.8799 221.288 81.002 221.194 81.1582C221.099 81.3112 221.029 81.4886 220.984 81.6904C220.938 81.889 220.915 82.1022 220.915 82.3301Z" fill="#111B36"/>
<path d="M226.709 77.5156V85.0205H225.42V77.5156H226.709ZM230.019 79.7373L227.72 82.3203L226.475 83.585L226.064 82.584L227.026 81.373L228.462 79.7373H230.019ZM228.701 85.0205L227.065 82.5596L227.925 81.7246L230.195 85.0205H228.701Z" fill="#111B36"/>
<path d="M232.878 85.1182C232.478 85.1182 232.118 85.0531 231.799 84.9229C231.48 84.7926 231.209 84.612 230.984 84.3809C230.763 84.1465 230.592 83.8747 230.471 83.5654C230.354 83.2529 230.295 82.9176 230.295 82.5596V82.3643C230.295 81.9574 230.354 81.5879 230.471 81.2559C230.588 80.9206 230.754 80.6325 230.969 80.3916C231.184 80.1507 231.441 79.9652 231.741 79.835C232.04 79.7048 232.371 79.6396 232.732 79.6396C233.106 79.6396 233.437 79.7031 233.723 79.8301C234.01 79.9538 234.249 80.1296 234.441 80.3574C234.633 80.5853 234.778 80.8587 234.876 81.1777C234.973 81.4935 235.022 81.8434 235.022 82.2275V82.7695H230.881V81.8809H233.752V81.7832C233.746 81.5781 233.707 81.391 233.635 81.2217C233.564 81.0492 233.453 80.9124 233.303 80.8115C233.154 80.7074 232.96 80.6553 232.722 80.6553C232.53 80.6553 232.363 80.6976 232.219 80.7822C232.079 80.8636 231.962 80.9808 231.868 81.1338C231.777 81.2835 231.708 81.4626 231.663 81.6709C231.617 81.8792 231.594 82.1104 231.594 82.3643V82.5596C231.594 82.7809 231.624 82.986 231.682 83.1748C231.744 83.3636 231.834 83.528 231.951 83.668C232.071 83.8047 232.214 83.9121 232.38 83.9902C232.55 84.0651 232.742 84.1025 232.957 84.1025C233.227 84.1025 233.471 84.0505 233.689 83.9463C233.91 83.8389 234.102 83.681 234.265 83.4727L234.915 84.1465C234.804 84.3092 234.654 84.4655 234.465 84.6152C234.28 84.765 234.055 84.887 233.792 84.9814C233.528 85.0726 233.224 85.1182 232.878 85.1182Z" fill="#111B36"/>
<path d="M237.051 80.8652V85.0205H235.762V79.7373H236.973L237.051 80.8652ZM236.846 82.1885H236.465C236.468 81.8044 236.52 81.4561 236.621 81.1436C236.722 80.8311 236.864 80.5625 237.046 80.3379C237.232 80.1133 237.451 79.9408 237.705 79.8203C237.959 79.6999 238.242 79.6396 238.555 79.6396C238.809 79.6396 239.038 79.6755 239.243 79.7471C239.448 79.8187 239.624 79.9326 239.771 80.0889C239.92 80.2451 240.034 80.4502 240.112 80.7041C240.194 80.9548 240.235 81.264 240.235 81.6318V85.0205H238.936V81.6221C238.936 81.3812 238.9 81.1908 238.828 81.0508C238.76 80.9108 238.659 80.8115 238.526 80.7529C238.395 80.6943 238.234 80.665 238.042 80.665C237.844 80.665 237.669 80.7057 237.52 80.7871C237.373 80.8652 237.249 80.9743 237.149 81.1143C237.051 81.2542 236.976 81.4154 236.924 81.5977C236.872 81.7799 236.846 81.9769 236.846 82.1885Z" fill="#111B36"/>
<path d="M247.14 83.3018L248.269 79.333H248.816L248.5 80.876L247.285 85.0205H246.742L247.14 83.3018ZM245.972 79.333L246.871 83.2236L247.14 85.0205H246.601L245.222 79.333H245.972ZM250.277 83.2197L251.156 79.333H251.91L250.535 85.0205H249.996L250.277 83.2197ZM248.898 79.333L249.996 83.3018L250.394 85.0205H249.851L248.679 80.876L248.359 79.333H248.898Z" fill="#ADB5BD"/>
<path d="M253.193 81.458V85.0205H252.471V80.7939H253.174L253.193 81.458ZM254.514 80.7705L254.51 81.4424C254.45 81.4294 254.392 81.4215 254.338 81.4189C254.286 81.4137 254.226 81.4111 254.158 81.4111C253.991 81.4111 253.844 81.4372 253.717 81.4893C253.589 81.5413 253.481 81.6143 253.392 81.708C253.304 81.8018 253.234 81.9137 253.181 82.0439C253.132 82.1715 253.099 82.3122 253.084 82.4658L252.881 82.583C252.881 82.3278 252.905 82.0882 252.955 81.8643C253.007 81.6403 253.086 81.4424 253.193 81.2705C253.3 81.096 253.435 80.9606 253.599 80.8643C253.766 80.7653 253.964 80.7158 254.193 80.7158C254.245 80.7158 254.305 80.7223 254.373 80.7354C254.441 80.7458 254.487 80.7575 254.514 80.7705Z" fill="#ADB5BD"/>
<path d="M257.437 84.2979V82.1221C257.437 81.9554 257.404 81.8109 257.336 81.6885C257.271 81.5635 257.172 81.4671 257.039 81.3994C256.906 81.3317 256.742 81.2979 256.547 81.2979C256.364 81.2979 256.204 81.3291 256.066 81.3916C255.931 81.4541 255.824 81.5361 255.746 81.6377C255.67 81.7393 255.633 81.8486 255.633 81.9658H254.91C254.91 81.8148 254.949 81.665 255.027 81.5166C255.105 81.3682 255.217 81.234 255.363 81.1143C255.512 80.9919 255.689 80.8955 255.894 80.8252C256.103 80.7523 256.335 80.7158 256.59 80.7158C256.897 80.7158 257.168 80.7679 257.402 80.8721C257.639 80.9762 257.824 81.1338 257.957 81.3447C258.092 81.5531 258.16 81.8148 258.16 82.1299V84.0986C258.16 84.2393 258.172 84.389 258.195 84.5479C258.221 84.7067 258.259 84.8434 258.309 84.958V85.0205H257.555C257.518 84.9372 257.489 84.8265 257.469 84.6885C257.448 84.5479 257.437 84.4176 257.437 84.2979ZM257.562 82.458L257.57 82.9658H256.84C256.634 82.9658 256.45 82.9827 256.289 83.0166C256.128 83.0479 255.992 83.096 255.883 83.1611C255.773 83.2262 255.69 83.3083 255.633 83.4072C255.575 83.5036 255.547 83.6169 255.547 83.7471C255.547 83.8799 255.577 84.001 255.637 84.1104C255.697 84.2197 255.786 84.307 255.906 84.3721C256.029 84.4346 256.178 84.4658 256.355 84.4658C256.577 84.4658 256.772 84.4189 256.941 84.3252C257.111 84.2314 257.245 84.1169 257.344 83.9814C257.445 83.846 257.5 83.7145 257.508 83.5869L257.816 83.9346C257.798 84.0439 257.749 84.165 257.668 84.2979C257.587 84.4307 257.479 84.5583 257.344 84.6807C257.211 84.8005 257.052 84.9007 256.867 84.9814C256.685 85.0596 256.479 85.0986 256.25 85.0986C255.963 85.0986 255.712 85.0426 255.496 84.9307C255.282 84.8187 255.116 84.6689 254.996 84.4814C254.879 84.2913 254.82 84.0791 254.82 83.8447C254.82 83.6182 254.864 83.4189 254.953 83.2471C255.042 83.0726 255.169 82.9281 255.336 82.8135C255.503 82.6963 255.703 82.6077 255.937 82.5479C256.172 82.488 256.434 82.458 256.723 82.458H257.562Z" fill="#ADB5BD"/>
<path d="M259.939 81.6064V86.6455H259.213V80.7939H259.877L259.939 81.6064ZM262.787 82.8721V82.9541C262.787 83.2614 262.751 83.5465 262.678 83.8096C262.605 84.07 262.498 84.2965 262.357 84.4893C262.219 84.682 262.049 84.8317 261.846 84.9385C261.643 85.0452 261.409 85.0986 261.146 85.0986C260.878 85.0986 260.641 85.0544 260.436 84.9658C260.23 84.8773 260.055 84.7484 259.912 84.5791C259.769 84.4098 259.654 84.2067 259.568 83.9697C259.485 83.7327 259.428 83.4658 259.396 83.1689V82.7314C259.428 82.4189 259.486 82.139 259.572 81.8916C259.658 81.6442 259.771 81.4333 259.912 81.2588C260.055 81.0817 260.229 80.9476 260.432 80.8564C260.635 80.7627 260.869 80.7158 261.135 80.7158C261.4 80.7158 261.636 80.7679 261.842 80.8721C262.048 80.9736 262.221 81.1195 262.361 81.3096C262.502 81.4997 262.607 81.7275 262.678 81.9932C262.751 82.2562 262.787 82.5492 262.787 82.8721ZM262.061 82.9541V82.8721C262.061 82.6611 262.038 82.4632 261.994 82.2783C261.95 82.0908 261.881 81.9268 261.787 81.7861C261.696 81.6429 261.579 81.5309 261.436 81.4502C261.292 81.3669 261.122 81.3252 260.924 81.3252C260.742 81.3252 260.583 81.3564 260.447 81.4189C260.314 81.4814 260.201 81.5661 260.107 81.6729C260.014 81.777 259.937 81.8968 259.877 82.0322C259.82 82.165 259.777 82.3031 259.748 82.4463V83.458C259.8 83.6403 259.873 83.8122 259.967 83.9736C260.061 84.1325 260.186 84.2614 260.342 84.3604C260.498 84.4567 260.695 84.5049 260.932 84.5049C261.127 84.5049 261.295 84.4645 261.436 84.3838C261.579 84.3005 261.696 84.1872 261.787 84.0439C261.881 83.9007 261.95 83.7367 261.994 83.5518C262.038 83.3643 262.061 83.165 262.061 82.9541Z" fill="#ADB5BD"/>
<path d="M264.352 81.6064V86.6455H263.625V80.7939H264.289L264.352 81.6064ZM267.199 82.8721V82.9541C267.199 83.2614 267.163 83.5465 267.09 83.8096C267.017 84.07 266.91 84.2965 266.77 84.4893C266.632 84.682 266.461 84.8317 266.258 84.9385C266.055 85.0452 265.822 85.0986 265.559 85.0986C265.29 85.0986 265.053 85.0544 264.848 84.9658C264.642 84.8773 264.468 84.7484 264.324 84.5791C264.181 84.4098 264.066 84.2067 263.981 83.9697C263.897 83.7327 263.84 83.4658 263.809 83.1689V82.7314C263.84 82.4189 263.899 82.139 263.984 81.8916C264.07 81.6442 264.184 81.4333 264.324 81.2588C264.468 81.0817 264.641 80.9476 264.844 80.8564C265.047 80.7627 265.281 80.7158 265.547 80.7158C265.813 80.7158 266.048 80.7679 266.254 80.8721C266.46 80.9736 266.633 81.1195 266.774 81.3096C266.914 81.4997 267.02 81.7275 267.09 81.9932C267.163 82.2562 267.199 82.5492 267.199 82.8721ZM266.473 82.9541V82.8721C266.473 82.6611 266.451 82.4632 266.406 82.2783C266.362 82.0908 266.293 81.9268 266.199 81.7861C266.108 81.6429 265.991 81.5309 265.848 81.4502C265.704 81.3669 265.534 81.3252 265.336 81.3252C265.154 81.3252 264.995 81.3564 264.859 81.4189C264.727 81.4814 264.613 81.5661 264.52 81.6729C264.426 81.777 264.349 81.8968 264.289 82.0322C264.232 82.165 264.189 82.3031 264.16 82.4463V83.458C264.212 83.6403 264.285 83.8122 264.379 83.9736C264.473 84.1325 264.598 84.2614 264.754 84.3604C264.91 84.4567 265.107 84.5049 265.344 84.5049C265.539 84.5049 265.707 84.4645 265.848 84.3838C265.991 84.3005 266.108 84.1872 266.199 84.0439C266.293 83.9007 266.362 83.7367 266.406 83.5518C266.451 83.3643 266.473 83.165 266.473 82.9541Z" fill="#ADB5BD"/>
<path d="M269.795 85.0986C269.501 85.0986 269.234 85.0492 268.994 84.9502C268.757 84.8486 268.553 84.7067 268.381 84.5244C268.212 84.3421 268.082 84.126 267.99 83.876C267.899 83.626 267.854 83.3525 267.854 83.0557V82.8916C267.854 82.5479 267.904 82.2419 268.006 81.9736C268.108 81.7028 268.246 81.4736 268.42 81.2861C268.595 81.0986 268.792 80.9567 269.014 80.8604C269.235 80.764 269.464 80.7158 269.701 80.7158C270.003 80.7158 270.264 80.7679 270.483 80.8721C270.704 80.9762 270.885 81.1221 271.026 81.3096C271.166 81.4945 271.27 81.7132 271.338 81.9658C271.406 82.2158 271.44 82.4893 271.44 82.7861V83.1104H268.283V82.5205H270.717V82.4658C270.707 82.2783 270.667 82.096 270.6 81.9189C270.535 81.7419 270.43 81.596 270.287 81.4814C270.144 81.3669 269.949 81.3096 269.701 81.3096C269.537 81.3096 269.386 81.3447 269.248 81.415C269.11 81.4827 268.992 81.5843 268.893 81.7197C268.794 81.8551 268.717 82.0205 268.662 82.2158C268.608 82.4111 268.58 82.6364 268.58 82.8916V83.0557C268.58 83.2562 268.608 83.445 268.662 83.6221C268.72 83.7965 268.802 83.9502 268.908 84.083C269.018 84.2158 269.149 84.32 269.303 84.3955C269.459 84.471 269.636 84.5088 269.834 84.5088C270.089 84.5088 270.305 84.4567 270.483 84.3525C270.66 84.2484 270.815 84.109 270.947 83.9346L271.385 84.2822C271.294 84.4202 271.178 84.5518 271.037 84.6768C270.897 84.8018 270.723 84.9033 270.518 84.9814C270.315 85.0596 270.074 85.0986 269.795 85.0986Z" fill="#ADB5BD"/>
<path d="M274.867 84.2002V79.0205H275.594V85.0205H274.93L274.867 84.2002ZM272.024 82.9541V82.8721C272.024 82.5492 272.063 82.2562 272.141 81.9932C272.222 81.7275 272.335 81.4997 272.481 81.3096C272.629 81.1195 272.805 80.9736 273.008 80.8721C273.214 80.7679 273.443 80.7158 273.696 80.7158C273.961 80.7158 274.193 80.7627 274.391 80.8564C274.591 80.9476 274.761 81.0817 274.899 81.2588C275.039 81.4333 275.15 81.6442 275.231 81.8916C275.311 82.139 275.367 82.4189 275.399 82.7314V83.0908C275.37 83.4007 275.314 83.6794 275.231 83.9268C275.15 84.1742 275.039 84.3851 274.899 84.5596C274.761 84.734 274.591 84.8682 274.391 84.9619C274.19 85.0531 273.956 85.0986 273.688 85.0986C273.44 85.0986 273.214 85.0452 273.008 84.9385C272.805 84.8317 272.629 84.682 272.481 84.4893C272.335 84.2965 272.222 84.07 272.141 83.8096C272.063 83.5465 272.024 83.2614 272.024 82.9541ZM272.75 82.8721V82.9541C272.75 83.165 272.771 83.363 272.813 83.5479C272.857 83.7327 272.925 83.8955 273.016 84.0361C273.107 84.1768 273.223 84.2874 273.364 84.3682C273.504 84.4463 273.672 84.4854 273.867 84.4854C274.107 84.4854 274.304 84.4346 274.457 84.333C274.614 84.2314 274.739 84.0973 274.832 83.9307C274.926 83.764 274.999 83.583 275.051 83.3877V82.4463C275.02 82.3031 274.974 82.165 274.914 82.0322C274.857 81.8968 274.781 81.777 274.688 81.6729C274.597 81.5661 274.483 81.4814 274.348 81.4189C274.215 81.3564 274.058 81.3252 273.875 81.3252C273.677 81.3252 273.507 81.3669 273.364 81.4502C273.223 81.5309 273.107 81.6429 273.016 81.7861C272.925 81.9268 272.857 82.0908 272.813 82.2783C272.771 82.4632 272.75 82.6611 272.75 82.8721Z" fill="#ADB5BD"/>
<path d="M280.598 79.333V85.0205H279.856V79.333H280.598ZM282.426 79.333V79.9502H278.032V79.333H282.426Z" fill="#ADB5BD"/>
<path d="M282.499 82.9541V82.8643C282.499 82.5596 282.543 82.277 282.631 82.0166C282.72 81.7536 282.847 81.5257 283.014 81.333C283.181 81.1377 283.383 80.9867 283.62 80.8799C283.857 80.7705 284.122 80.7158 284.416 80.7158C284.713 80.7158 284.98 80.7705 285.217 80.8799C285.457 80.9867 285.66 81.1377 285.827 81.333C285.996 81.5257 286.125 81.7536 286.213 82.0166C286.302 82.277 286.346 82.5596 286.346 82.8643V82.9541C286.346 83.2588 286.302 83.5413 286.213 83.8018C286.125 84.0622 285.996 84.29 285.827 84.4854C285.66 84.6781 285.458 84.8291 285.221 84.9385C284.987 85.0452 284.721 85.0986 284.424 85.0986C284.127 85.0986 283.86 85.0452 283.624 84.9385C283.387 84.8291 283.183 84.6781 283.014 84.4854C282.847 84.29 282.72 84.0622 282.631 83.8018C282.543 83.5413 282.499 83.2588 282.499 82.9541ZM283.221 82.8643V82.9541C283.221 83.165 283.246 83.3643 283.295 83.5518C283.345 83.7367 283.419 83.9007 283.518 84.0439C283.62 84.1872 283.746 84.3005 283.897 84.3838C284.048 84.4645 284.224 84.5049 284.424 84.5049C284.622 84.5049 284.795 84.4645 284.944 84.3838C285.095 84.3005 285.22 84.1872 285.319 84.0439C285.418 83.9007 285.492 83.7367 285.541 83.5518C285.594 83.3643 285.62 83.165 285.62 82.9541V82.8643C285.62 82.6559 285.594 82.4593 285.541 82.2744C285.492 82.0869 285.416 81.9215 285.315 81.7783C285.216 81.6325 285.091 81.5179 284.94 81.4346C284.791 81.3512 284.617 81.3096 284.416 81.3096C284.219 81.3096 284.044 81.3512 283.893 81.4346C283.745 81.5179 283.62 81.6325 283.518 81.7783C283.419 81.9215 283.345 82.0869 283.295 82.2744C283.246 82.4593 283.221 82.6559 283.221 82.8643Z" fill="#ADB5BD"/>
<path d="M287.899 79.0205V85.0205H287.172V79.0205H287.899ZM290.481 80.7939L288.637 82.7666L287.606 83.8369L287.547 83.0674L288.286 82.1846L289.598 80.7939H290.481ZM289.821 85.0205L288.313 83.0049L288.688 82.3604L290.672 85.0205H289.821Z" fill="#ADB5BD"/>
<path d="M292.823 85.0986C292.529 85.0986 292.262 85.0492 292.022 84.9502C291.785 84.8486 291.581 84.7067 291.409 84.5244C291.24 84.3421 291.109 84.126 291.018 83.876C290.927 83.626 290.881 83.3525 290.881 83.0557V82.8916C290.881 82.5479 290.932 82.2419 291.034 81.9736C291.135 81.7028 291.273 81.4736 291.448 81.2861C291.622 81.0986 291.82 80.9567 292.042 80.8604C292.263 80.764 292.492 80.7158 292.729 80.7158C293.031 80.7158 293.292 80.7679 293.51 80.8721C293.732 80.9762 293.913 81.1221 294.053 81.3096C294.194 81.4945 294.298 81.7132 294.366 81.9658C294.434 82.2158 294.467 82.4893 294.467 82.7861V83.1104H291.311V82.5205H293.745V82.4658C293.734 82.2783 293.695 82.096 293.628 81.9189C293.562 81.7419 293.458 81.596 293.315 81.4814C293.172 81.3669 292.977 81.3096 292.729 81.3096C292.565 81.3096 292.414 81.3447 292.276 81.415C292.138 81.4827 292.019 81.5843 291.921 81.7197C291.822 81.8551 291.745 82.0205 291.69 82.2158C291.635 82.4111 291.608 82.6364 291.608 82.8916V83.0557C291.608 83.2562 291.635 83.445 291.69 83.6221C291.747 83.7965 291.829 83.9502 291.936 84.083C292.046 84.2158 292.177 84.32 292.331 84.3955C292.487 84.471 292.664 84.5088 292.862 84.5088C293.117 84.5088 293.333 84.4567 293.51 84.3525C293.687 84.2484 293.842 84.109 293.975 83.9346L294.413 84.2822C294.322 84.4202 294.206 84.5518 294.065 84.6768C293.924 84.8018 293.751 84.9033 293.546 84.9814C293.342 85.0596 293.102 85.0986 292.823 85.0986Z" fill="#ADB5BD"/>
<path d="M295.954 81.6963V85.0205H295.231V80.7939H295.915L295.954 81.6963ZM295.782 82.7471L295.481 82.7354C295.484 82.4463 295.527 82.1794 295.61 81.9346C295.693 81.6872 295.811 81.4723 295.962 81.29C296.113 81.1077 296.292 80.9671 296.501 80.8682C296.712 80.7666 296.945 80.7158 297.2 80.7158C297.408 80.7158 297.596 80.7445 297.762 80.8018C297.929 80.8564 298.071 80.945 298.188 81.0674C298.308 81.1898 298.399 81.3486 298.462 81.5439C298.524 81.7367 298.555 81.9723 298.555 82.251V85.0205H297.829V82.2432C297.829 82.0218 297.796 81.8447 297.731 81.7119C297.666 81.5765 297.571 81.4788 297.446 81.4189C297.321 81.3564 297.167 81.3252 296.985 81.3252C296.805 81.3252 296.641 81.363 296.493 81.4385C296.347 81.514 296.221 81.6182 296.114 81.751C296.01 81.8838 295.928 82.0361 295.868 82.208C295.811 82.3773 295.782 82.557 295.782 82.7471Z" fill="#ADB5BD"/>
<rect x="198" y="92.4706" width="22" height="7" rx="3.5" fill="#EFF6FA"/>
<path d="M204.587 97.5106V97.9706H202.454V97.5106H204.587ZM202.565 93.705V97.9706H202V93.705H202.565Z" fill="#0784C3"/>
<path d="M206.961 97.4286V95.7968C206.961 95.6718 206.936 95.5634 206.885 95.4716C206.836 95.3778 206.762 95.3055 206.663 95.2548C206.563 95.204 206.44 95.1786 206.294 95.1786C206.157 95.1786 206.037 95.202 205.933 95.2489C205.832 95.2958 205.752 95.3573 205.693 95.4335C205.636 95.5096 205.608 95.5917 205.608 95.6796H205.066C205.066 95.5663 205.095 95.454 205.154 95.3427C205.212 95.2313 205.296 95.1307 205.406 95.0409C205.517 94.9491 205.65 94.8768 205.804 94.8241C205.961 94.7694 206.134 94.7421 206.326 94.7421C206.556 94.7421 206.759 94.7811 206.935 94.8593C207.113 94.9374 207.252 95.0555 207.351 95.2137C207.453 95.37 207.503 95.5663 207.503 95.8026V97.2792C207.503 97.3846 207.512 97.4969 207.53 97.6161C207.549 97.7352 207.578 97.8378 207.615 97.9237V97.9706H207.049C207.022 97.9081 207.001 97.8251 206.985 97.7216C206.969 97.6161 206.961 97.5184 206.961 97.4286ZM207.055 96.0487L207.061 96.4296H206.513C206.359 96.4296 206.221 96.4423 206.1 96.4677C205.979 96.4911 205.878 96.5272 205.795 96.576C205.713 96.6249 205.651 96.6864 205.608 96.7606C205.565 96.8329 205.544 96.9178 205.544 97.0155C205.544 97.1151 205.566 97.2059 205.611 97.288C205.656 97.37 205.723 97.4354 205.813 97.4843C205.905 97.5311 206.017 97.5546 206.15 97.5546C206.316 97.5546 206.462 97.5194 206.589 97.4491C206.716 97.3788 206.817 97.2928 206.891 97.1913C206.967 97.0897 207.008 96.9911 207.014 96.8954L207.246 97.1561C207.232 97.2382 207.195 97.329 207.134 97.4286C207.074 97.5282 206.993 97.6239 206.891 97.7157C206.792 97.8055 206.672 97.8807 206.534 97.9413C206.397 97.9999 206.243 98.0292 206.071 98.0292C205.856 98.0292 205.668 97.9872 205.505 97.9032C205.345 97.8192 205.22 97.7069 205.13 97.5663C205.043 97.4237 204.999 97.2645 204.999 97.0887C204.999 96.9188 205.032 96.7694 205.098 96.6405C205.165 96.5096 205.26 96.4012 205.385 96.3153C205.51 96.2274 205.661 96.161 205.836 96.1161C206.012 96.0712 206.209 96.0487 206.425 96.0487H207.055Z" fill="#0784C3"/>
<path d="M208.293 93.4706H208.838V97.3553L208.791 97.9706H208.293V93.4706ZM210.98 96.3593V96.4208C210.98 96.6512 210.952 96.8651 210.898 97.0624C210.843 97.2577 210.763 97.4276 210.657 97.5721C210.552 97.7167 210.423 97.829 210.271 97.9091C210.118 97.9891 209.943 98.0292 209.746 98.0292C209.545 98.0292 209.368 97.995 209.216 97.9266C209.066 97.8563 208.939 97.7557 208.835 97.6249C208.732 97.494 208.649 97.3358 208.586 97.1503C208.526 96.9647 208.484 96.7557 208.46 96.5233V96.2538C208.484 96.0194 208.526 95.8094 208.586 95.6239C208.649 95.4384 208.732 95.2802 208.835 95.1493C208.939 95.0165 209.066 94.9159 209.216 94.8475C209.366 94.7772 209.541 94.7421 209.74 94.7421C209.94 94.7421 210.116 94.7811 210.271 94.8593C210.425 94.9354 210.554 95.0448 210.657 95.1874C210.763 95.33 210.843 95.5009 210.898 95.7001C210.952 95.8973 210.98 96.1171 210.98 96.3593ZM210.435 96.4208V96.3593C210.435 96.201 210.42 96.0526 210.391 95.9139C210.361 95.7733 210.315 95.6503 210.25 95.5448C210.186 95.4374 210.101 95.3534 209.995 95.2928C209.89 95.2303 209.76 95.1991 209.606 95.1991C209.469 95.1991 209.35 95.2225 209.248 95.2694C209.149 95.3163 209.064 95.3798 208.993 95.4598C208.923 95.538 208.865 95.6278 208.82 95.7294C208.777 95.829 208.745 95.9325 208.724 96.0399V96.746C208.755 96.8827 208.806 97.0145 208.876 97.1415C208.948 97.2665 209.044 97.369 209.163 97.4491C209.284 97.5292 209.434 97.5692 209.611 97.5692C209.758 97.5692 209.883 97.5399 209.986 97.4813C210.092 97.4208 210.177 97.3378 210.241 97.2323C210.308 97.1268 210.357 97.0048 210.388 96.8661C210.419 96.7274 210.435 96.579 210.435 96.4208Z" fill="#0784C3"/>
<path d="M212.921 98.0292C212.7 98.0292 212.5 97.9921 212.32 97.9178C212.142 97.8417 211.989 97.7352 211.86 97.5985C211.733 97.4618 211.635 97.2997 211.567 97.1122C211.499 96.9247 211.465 96.7196 211.465 96.4969V96.3739C211.465 96.1161 211.503 95.8866 211.579 95.6854C211.655 95.4823 211.758 95.3104 211.889 95.1698C212.02 95.0292 212.169 94.9227 212.335 94.8505C212.501 94.7782 212.673 94.7421 212.85 94.7421C213.077 94.7421 213.272 94.7811 213.436 94.8593C213.602 94.9374 213.738 95.0468 213.843 95.1874C213.949 95.326 214.027 95.4901 214.078 95.6796C214.129 95.8671 214.154 96.0721 214.154 96.2948V96.538H211.787V96.0956H213.612V96.0546C213.604 95.9139 213.575 95.7772 213.524 95.6444C213.475 95.5116 213.397 95.4022 213.29 95.3163C213.182 95.2303 213.036 95.1874 212.85 95.1874C212.727 95.1874 212.614 95.2137 212.51 95.2665C212.407 95.3173 212.318 95.3934 212.244 95.495C212.17 95.5966 212.112 95.7206 212.071 95.8671C212.03 96.0135 212.009 96.1825 212.009 96.3739V96.4969C212.009 96.6473 212.03 96.7889 212.071 96.9218C212.114 97.0526 212.175 97.1678 212.256 97.2675C212.338 97.3671 212.436 97.4452 212.551 97.5018C212.669 97.5585 212.801 97.5868 212.95 97.5868C213.141 97.5868 213.303 97.5477 213.436 97.4696C213.569 97.3915 213.685 97.287 213.785 97.1561L214.113 97.4169C214.045 97.5204 213.958 97.619 213.852 97.7128C213.747 97.8065 213.617 97.8827 213.463 97.9413C213.31 97.9999 213.13 98.0292 212.921 98.0292Z" fill="#0784C3"/>
<path d="M215.316 93.4706V97.9706H214.771V93.4706H215.316Z" fill="#0784C3"/>
</g>
<rect x="178.359" y="45.3954" width="388.772" height="188.25" rx="5.625" stroke="url(#paint18_linear_2063_249372)" stroke-width="0.75"/>
</g>
</g>
<defs>
<filter id="filter0_f_2063_249372" x="65.5645" y="67.0985" width="21.8711" height="9.84375" filterUnits="userSpaceOnUse" color-interpolation-filters="sRGB">
<feFlood flood-opacity="0" result="BackgroundImageFix"/>
<feBlend mode="normal" in="SourceGraphic" in2="BackgroundImageFix" result="shape"/>
<feGaussianBlur stdDeviation="1" result="effect1_foregroundBlur_2063_249372"/>
</filter>
<filter id="filter1_f_2063_249372" x="66.3164" y="116.755" width="20.1719" height="9.84375" filterUnits="userSpaceOnUse" color-interpolation-filters="sRGB">
<feFlood flood-opacity="0" result="BackgroundImageFix"/>
<feBlend mode="normal" in="SourceGraphic" in2="BackgroundImageFix" result="shape"/>
<feGaussianBlur stdDeviation="1" result="effect1_foregroundBlur_2063_249372"/>
</filter>
<filter id="filter2_f_2063_249372" x="65.4883" y="167.099" width="22.0234" height="9.84375" filterUnits="userSpaceOnUse" color-interpolation-filters="sRGB">
<feFlood flood-opacity="0" result="BackgroundImageFix"/>
<feBlend mode="normal" in="SourceGraphic" in2="BackgroundImageFix" result="shape"/>
<feGaussianBlur stdDeviation="1" result="effect1_foregroundBlur_2063_249372"/>
</filter>
<linearGradient id="paint0_linear_2063_249372" x1="201" y1="120.55" x2="200.842" y2="124.531" gradientUnits="userSpaceOnUse">
<stop offset="0.284169" stop-color="#0784C3"/>
<stop offset="0.874298" stop-color="#0784C3" stop-opacity="0.2"/>
<stop offset="1" stop-color="#8E9599" stop-opacity="0"/>
</linearGradient>
<linearGradient id="paint1_linear_2063_249372" x1="201" y1="117" x2="200.842" y2="120.982" gradientUnits="userSpaceOnUse">
<stop offset="0.284169" stop-color="#0784C3"/>
<stop offset="0.874298" stop-color="#0784C3" stop-opacity="0.2"/>
<stop offset="1" stop-color="#8E9599" stop-opacity="0"/>
</linearGradient>
<linearGradient id="paint2_linear_2063_249372" x1="78.5" y1="-8.47913" x2="80" y2="67.5209" gradientUnits="userSpaceOnUse">
<stop stop-color="#9CC5ED" stop-opacity="0.11"/>
<stop offset="0.821091" stop-color="#ADB5BD" stop-opacity="0"/>
</linearGradient>
<linearGradient id="paint3_linear_2063_249372" x1="331.225" y1="-8.47913" x2="332.725" y2="67.5209" gradientUnits="userSpaceOnUse">
<stop stop-color="#9CC5ED" stop-opacity="0.11"/>
<stop offset="0.821091" stop-color="#ADB5BD" stop-opacity="0"/>
</linearGradient>
<linearGradient id="paint4_linear_2063_249372" x1="381.77" y1="-8.47913" x2="383.27" y2="67.5209" gradientUnits="userSpaceOnUse">
<stop stop-color="#9CC5ED" stop-opacity="0.11"/>
<stop offset="0.821091" stop-color="#ADB5BD" stop-opacity="0"/>
</linearGradient>
<linearGradient id="paint5_linear_2063_249372" x1="27.9551" y1="92.6106" x2="29.4551" y2="168.611" gradientUnits="userSpaceOnUse">
<stop stop-color="#9CC5ED" stop-opacity="0.11"/>
<stop offset="0.821091" stop-color="#ADB5BD" stop-opacity="0"/>
</linearGradient>
<linearGradient id="paint6_linear_2063_249372" x1="179.59" y1="92.6106" x2="181.09" y2="168.611" gradientUnits="userSpaceOnUse">
<stop stop-color="#9CC5ED" stop-opacity="0.11"/>
<stop offset="0.821091" stop-color="#ADB5BD" stop-opacity="0"/>
</linearGradient>
<linearGradient id="paint7_linear_2063_249372" x1="280.68" y1="92.6106" x2="282.18" y2="168.611" gradientUnits="userSpaceOnUse">
<stop stop-color="#9CC5ED" stop-opacity="0.11"/>
<stop offset="0.821091" stop-color="#ADB5BD" stop-opacity="0"/>
</linearGradient>
<linearGradient id="paint8_linear_2063_249372" x1="331.225" y1="92.6106" x2="332.725" y2="168.611" gradientUnits="userSpaceOnUse">
<stop stop-color="#9CC5ED" stop-opacity="0.11"/>
<stop offset="0.821091" stop-color="#ADB5BD" stop-opacity="0"/>
</linearGradient>
<linearGradient id="paint9_linear_2063_249372" x1="78.5" y1="143.156" x2="80" y2="219.156" gradientUnits="userSpaceOnUse">
<stop stop-color="#9CC5ED" stop-opacity="0.11"/>
<stop offset="0.821091" stop-color="#ADB5BD" stop-opacity="0"/>
</linearGradient>
<linearGradient id="paint10_linear_2063_249372" x1="381.77" y1="143.156" x2="383.27" y2="219.156" gradientUnits="userSpaceOnUse">
<stop stop-color="#9CC5ED" stop-opacity="0.11"/>
<stop offset="0.821091" stop-color="#ADB5BD" stop-opacity="0"/>
</linearGradient>
<linearGradient id="paint11_linear_2063_249372" x1="78.5" y1="193.701" x2="80" y2="269.701" gradientUnits="userSpaceOnUse">
<stop stop-color="#9CC5ED" stop-opacity="0.11"/>
<stop offset="0.821091" stop-color="#ADB5BD" stop-opacity="0"/>
</linearGradient>
<linearGradient id="paint12_linear_2063_249372" x1="331.225" y1="193.701" x2="332.725" y2="269.701" gradientUnits="userSpaceOnUse">
<stop stop-color="#9CC5ED" stop-opacity="0.11"/>
<stop offset="0.821091" stop-color="#ADB5BD" stop-opacity="0"/>
</linearGradient>
<linearGradient id="paint13_linear_2063_249372" x1="127" y1="105.471" x2="-25" y2="107.971" gradientUnits="userSpaceOnUse">
<stop stop-color="#D9D9D9"/>
<stop offset="0.615621" stop-color="#D9D9D9" stop-opacity="0"/>
</linearGradient>
<linearGradient id="paint14_linear_2063_249372" x1="42" y1="25" x2="11" y2="25" gradientUnits="userSpaceOnUse">
<stop stop-color="#F8F9FA"/>
<stop offset="1" stop-color="#F8F9FA" stop-opacity="0"/>
</linearGradient>
<linearGradient id="paint15_linear_2063_249372" x1="42" y1="25" x2="11" y2="25" gradientUnits="userSpaceOnUse">
<stop stop-color="#F8F9FA"/>
<stop offset="1" stop-color="#F8F9FA" stop-opacity="0"/>
</linearGradient>
<linearGradient id="paint16_linear_2063_249372" x1="42" y1="25" x2="11" y2="25" gradientUnits="userSpaceOnUse">
<stop stop-color="#F8F9FA"/>
<stop offset="1" stop-color="#F8F9FA" stop-opacity="0"/>
</linearGradient>
<linearGradient id="paint17_linear_2063_249372" x1="250.428" y1="41.9796" x2="263.343" y2="226.046" gradientUnits="userSpaceOnUse">
<stop offset="0.518661" stop-color="#D9D9D9"/>
<stop offset="0.698711" stop-color="#D9D9D9" stop-opacity="0.05"/>
</linearGradient>
<linearGradient id="paint18_linear_2063_249372" x1="174" y1="36" x2="372.745" y2="234.02" gradientUnits="userSpaceOnUse">
<stop stop-color="#E9ECEF"/>
<stop offset="0.739985" stop-color="#E9ECEF" stop-opacity="0"/>
</linearGradient>
<clipPath id="clip0_2063_249372">
<rect width="405" height="218" fill="white" transform="translate(0 -0.979614)"/>
</clipPath>
<clipPath id="clip1_2063_249372">
<rect x="177.984" y="45.0204" width="389.522" height="189" rx="6" fill="white"/>
</clipPath>
<clipPath id="clip2_2063_249372">
<rect x="197.984" y="110.02" width="303" height="67" rx="4" fill="white"/>
</clipPath>
<clipPath id="clip3_2063_249372">
<rect x="197.984" y="195.02" width="303" height="67" rx="4" fill="white"/>
</clipPath>
</defs>
</svg>
