<svg width="405" height="218" viewBox="0 0 405 218" fill="none" xmlns="http://www.w3.org/2000/svg">
<g clip-path="url(#clip0_2063_249622)">
<rect width="405" height="218" transform="translate(0 -0.979614)" fill="white"/>
<g opacity="0.2">
<rect x="0.319905" y="-43.1147" width="50.545" height="50.545" stroke="#E9ECEF" stroke-width="0.63981"/>
<rect x="50.8648" y="-43.1145" width="50.545" height="50.545" stroke="#E9ECEF" stroke-width="0.63981"/>
<rect x="101.41" y="-43.1145" width="50.545" height="50.545" stroke="#E9ECEF" stroke-width="0.63981"/>
<rect x="151.955" y="-43.1145" width="50.545" height="50.545" stroke="#E9ECEF" stroke-width="0.63981"/>
<rect x="202.5" y="-43.1145" width="50.545" height="50.545" stroke="#E9ECEF" stroke-width="0.63981"/>
<rect x="253.045" y="-43.1145" width="50.545" height="50.545" stroke="#E9ECEF" stroke-width="0.63981"/>
<rect x="303.59" y="-43.1145" width="50.545" height="50.545" stroke="#E9ECEF" stroke-width="0.63981"/>
<rect x="354.135" y="-43.1145" width="50.545" height="50.545" stroke="#E9ECEF" stroke-width="0.63981"/>
<rect x="0.319905" y="7.43038" width="50.545" height="50.545" stroke="#E9ECEF" stroke-width="0.63981"/>
<rect opacity="0.5" x="50.8648" y="7.43062" width="50.545" height="50.545" fill="url(#paint0_linear_2063_249622)" stroke="#E9ECEF" stroke-width="0.63981"/>
<rect x="101.41" y="7.43062" width="50.545" height="50.545" stroke="#E9ECEF" stroke-width="0.63981"/>
<rect x="151.955" y="7.43062" width="50.545" height="50.545" stroke="#E9ECEF" stroke-width="0.63981"/>
<rect x="202.5" y="7.43062" width="50.545" height="50.545" stroke="#E9ECEF" stroke-width="0.63981"/>
<rect x="253.045" y="7.43062" width="50.545" height="50.545" stroke="#E9ECEF" stroke-width="0.63981"/>
<rect x="303.59" y="7.43062" width="50.545" height="50.545" fill="url(#paint1_linear_2063_249622)" stroke="#E9ECEF" stroke-width="0.63981"/>
<rect x="354.135" y="7.43062" width="50.545" height="50.545" fill="url(#paint2_linear_2063_249622)" stroke="#E9ECEF" stroke-width="0.63981"/>
<rect x="0.319905" y="57.9754" width="50.545" height="50.545" stroke="#E9ECEF" stroke-width="0.63981"/>
<rect x="50.8648" y="57.9754" width="50.545" height="50.545" stroke="#E9ECEF" stroke-width="0.63981"/>
<rect x="101.41" y="57.9754" width="50.545" height="50.545" stroke="#E9ECEF" stroke-width="0.63981"/>
<rect x="151.955" y="57.9754" width="50.545" height="50.545" stroke="#E9ECEF" stroke-width="0.63981"/>
<rect x="202.5" y="57.9754" width="50.545" height="50.545" stroke="#E9ECEF" stroke-width="0.63981"/>
<rect x="253.045" y="57.9754" width="50.545" height="50.545" stroke="#E9ECEF" stroke-width="0.63981"/>
<rect x="303.59" y="57.9754" width="50.545" height="50.545" stroke="#E9ECEF" stroke-width="0.63981"/>
<rect x="354.135" y="57.9754" width="50.545" height="50.545" stroke="#E9ECEF" stroke-width="0.63981"/>
<rect opacity="0.5" x="0.319905" y="108.52" width="50.545" height="50.545" fill="url(#paint3_linear_2063_249622)" stroke="#E9ECEF" stroke-width="0.63981"/>
<rect x="50.8648" y="108.52" width="50.545" height="50.545" stroke="#E9ECEF" stroke-width="0.63981"/>
<rect x="101.41" y="108.52" width="50.545" height="50.545" stroke="#E9ECEF" stroke-width="0.63981"/>
<rect x="151.955" y="108.52" width="50.545" height="50.545" fill="url(#paint4_linear_2063_249622)" stroke="#E9ECEF" stroke-width="0.63981"/>
<rect x="202.5" y="108.52" width="50.545" height="50.545" stroke="#E9ECEF" stroke-width="0.63981"/>
<rect x="253.045" y="108.52" width="50.545" height="50.545" fill="url(#paint5_linear_2063_249622)" stroke="#E9ECEF" stroke-width="0.63981"/>
<rect x="303.59" y="108.52" width="50.545" height="50.545" fill="url(#paint6_linear_2063_249622)" stroke="#E9ECEF" stroke-width="0.63981"/>
<rect x="354.135" y="108.52" width="50.545" height="50.545" stroke="#E9ECEF" stroke-width="0.63981"/>
<rect x="0.319905" y="159.065" width="50.545" height="50.545" stroke="#E9ECEF" stroke-width="0.63981"/>
<rect x="50.8648" y="159.065" width="50.545" height="50.545" fill="url(#paint7_linear_2063_249622)" stroke="#E9ECEF" stroke-width="0.63981"/>
<rect x="101.41" y="159.065" width="50.545" height="50.545" stroke="#E9ECEF" stroke-width="0.63981"/>
<rect x="151.955" y="159.065" width="50.545" height="50.545" stroke="#E9ECEF" stroke-width="0.63981"/>
<rect x="202.5" y="159.065" width="50.545" height="50.545" stroke="#E9ECEF" stroke-width="0.63981"/>
<rect x="253.045" y="159.065" width="50.545" height="50.545" stroke="#E9ECEF" stroke-width="0.63981"/>
<rect x="303.59" y="159.065" width="50.545" height="50.545" stroke="#E9ECEF" stroke-width="0.63981"/>
<rect x="354.135" y="159.065" width="50.545" height="50.545" fill="url(#paint8_linear_2063_249622)" stroke="#E9ECEF" stroke-width="0.63981"/>
<rect x="0.319905" y="209.61" width="50.545" height="50.545" stroke="#E9ECEF" stroke-width="0.63981"/>
<rect opacity="0.5" x="50.8648" y="209.61" width="50.545" height="50.545" fill="url(#paint9_linear_2063_249622)" stroke="#E9ECEF" stroke-width="0.63981"/>
<rect x="101.41" y="209.61" width="50.545" height="50.545" stroke="#E9ECEF" stroke-width="0.63981"/>
<rect x="151.955" y="209.61" width="50.545" height="50.545" stroke="#E9ECEF" stroke-width="0.63981"/>
<rect x="202.5" y="209.61" width="50.545" height="50.545" stroke="#E9ECEF" stroke-width="0.63981"/>
<rect x="253.045" y="209.61" width="50.545" height="50.545" stroke="#E9ECEF" stroke-width="0.63981"/>
<rect opacity="0.5" x="303.59" y="209.61" width="50.545" height="50.545" fill="url(#paint10_linear_2063_249622)" stroke="#E9ECEF" stroke-width="0.63981"/>
<rect x="354.135" y="209.61" width="50.545" height="50.545" stroke="#E9ECEF" stroke-width="0.63981"/>
</g>
<rect width="110" height="110" transform="translate(148 53.0204)" fill="white"/>
<rect x="155.417" y="60.4371" width="95.1667" height="95.1667" rx="8.02083" stroke="#E9ECEF" stroke-opacity="0.5" stroke-width="0.833333"/>
<rect x="162" y="67.0204" width="81" height="81" rx="7.59375" fill="white"/>
<path d="M212.763 99.4174L206.416 93.0695C205.704 92.3575 204.754 91.9423 203.746 91.9423H194.906C192.771 91.9423 191.109 93.6627 191.109 95.7391V118.52C191.109 120.656 192.771 122.317 194.906 122.317H210.094C212.17 122.317 213.891 120.656 213.891 118.52V102.087C213.891 101.078 213.475 100.129 212.763 99.4174ZM204.398 94.0187C204.636 94.078 204.873 94.1967 205.11 94.434L211.399 100.723C211.636 100.96 211.755 101.197 211.814 101.434H205.348C204.814 101.434 204.398 101.019 204.398 100.485V94.0187ZM211.992 118.52C211.992 119.588 211.102 120.419 210.094 120.419H194.906C193.838 120.419 193.008 119.588 193.008 118.52V95.7391C193.008 94.7306 193.838 93.8407 194.906 93.8407H202.5V100.485C202.5 102.087 203.746 103.333 205.348 103.333H211.992V118.52ZM196.805 108.079C196.805 108.613 197.22 109.028 197.754 109.028H207.246C207.721 109.028 208.195 108.613 208.195 108.079C208.195 107.604 207.721 107.13 207.246 107.13H197.754C197.22 107.13 196.805 107.604 196.805 108.079ZM207.246 110.927H197.754C197.22 110.927 196.805 111.401 196.805 111.876C196.805 112.41 197.22 112.825 197.754 112.825H207.246C207.721 112.825 208.195 112.41 208.195 111.876C208.195 111.401 207.721 110.927 207.246 110.927ZM207.246 114.724H197.754C197.22 114.724 196.805 115.198 196.805 115.673C196.805 116.207 197.22 116.622 197.754 116.622H207.246C207.721 116.622 208.195 116.207 208.195 115.673C208.195 115.198 207.721 114.724 207.246 114.724Z" fill="#6C757D"/>
<rect x="162.375" y="67.3954" width="80.25" height="80.25" rx="7.21875" stroke="#ADB5BD" stroke-opacity="0.7" stroke-width="0.75"/>
<rect x="148.417" y="53.4371" width="109.167" height="109.167" rx="8.02083" stroke="#E9ECEF" stroke-opacity="0.8" stroke-width="0.833333"/>
<path d="M213 87.7704C213 83.9149 216.117 80.7704 220 80.7704C223.855 80.7704 227 83.9149 227 87.7704C227 91.6532 223.855 94.7704 220 94.7704C216.117 94.7704 213 91.6532 213 87.7704ZM223.145 86.5673C223.445 86.2665 223.445 85.8016 223.145 85.5009C222.844 85.2001 222.379 85.2001 222.078 85.5009L219.125 88.454L217.895 87.2509C217.594 86.9501 217.129 86.9501 216.828 87.2509C216.527 87.5516 216.527 88.0165 216.828 88.3173L218.578 90.0673C218.879 90.368 219.344 90.368 219.645 90.0673L223.145 86.5673Z" fill="#00A186"/>
<g opacity="0.7">
<rect x="345" y="48.4706" width="18.4502" height="18.4502" rx="1.72971" fill="white"/>
<path d="M356.563 55.4122L355.549 54.3987C355.387 54.2365 355.171 54.142 354.941 54.142H352.495C352.009 54.142 351.63 54.5338 351.63 55.0068V60.1959C351.63 60.6824 352.009 61.0608 352.495 61.0608H355.955C356.428 61.0608 356.819 60.6824 356.819 60.1959V56.0203C356.819 55.7906 356.725 55.5744 356.563 55.4122ZM356.171 60.1959C356.171 60.3175 356.063 60.4121 355.955 60.4121H352.495C352.374 60.4121 352.279 60.3175 352.279 60.1959V55.0203C352.279 54.8987 352.374 54.8041 352.495 54.8041H354.657V55.8717C354.657 56.1149 354.846 56.3041 355.09 56.3041H356.157V60.1959H356.171ZM352.928 57.9257C352.928 58.1149 353.063 58.25 353.252 58.25H355.198C355.373 58.25 355.522 58.1149 355.522 57.9257C355.522 57.75 355.373 57.6014 355.198 57.6014H353.252C353.063 57.6014 352.928 57.75 352.928 57.9257ZM355.198 58.8986H353.252C353.063 58.8986 352.928 59.0473 352.928 59.223C352.928 59.4121 353.063 59.5473 353.252 59.5473H355.198C355.373 59.5473 355.522 59.4121 355.522 59.223C355.522 59.0473 355.373 58.8986 355.198 58.8986Z" fill="#CED4DA"/>
<rect x="345.085" y="48.556" width="18.2794" height="18.2794" rx="1.64429" stroke="#ADB5BD" stroke-opacity="0.7" stroke-width="0.170835"/>
</g>
<g opacity="0.7">
<rect x="391" y="-7" width="18.4502" height="18.4502" rx="1.72971" fill="white"/>
<path d="M402.563 -0.0583758L401.549 -1.07188C401.387 -1.23404 401.171 -1.32863 400.941 -1.32863H398.495C398.009 -1.32863 397.63 -0.936742 397.63 -0.463776V4.72534C397.63 5.21182 398.009 5.59019 398.495 5.59019H401.955C402.428 5.59019 402.819 5.21182 402.819 4.72534V0.549724C402.819 0.319997 402.725 0.103784 402.563 -0.0583758ZM402.171 4.72534C402.171 4.84696 402.063 4.94156 401.955 4.94156H398.495C398.374 4.94156 398.279 4.84696 398.279 4.72534V-0.450262C398.279 -0.571882 398.374 -0.666476 398.495 -0.666476H400.657V0.401077C400.657 0.644317 400.846 0.833504 401.09 0.833504H402.157V4.72534H402.171ZM398.928 2.4551C398.928 2.64429 399.063 2.77942 399.252 2.77942H401.198C401.373 2.77942 401.522 2.64429 401.522 2.4551C401.522 2.27943 401.373 2.13078 401.198 2.13078H399.252C399.063 2.13078 398.928 2.27943 398.928 2.4551ZM401.198 3.42806H399.252C399.063 3.42806 398.928 3.57671 398.928 3.75238C398.928 3.94157 399.063 4.0767 399.252 4.0767H401.198C401.373 4.0767 401.522 3.94157 401.522 3.75238C401.522 3.57671 401.373 3.42806 401.198 3.42806Z" fill="#CED4DA"/>
<rect x="391.085" y="-6.91458" width="18.2794" height="18.2794" rx="1.64429" stroke="#ADB5BD" stroke-opacity="0.7" stroke-width="0.170835"/>
</g>
<g opacity="0.7">
<rect x="33" y="-5.52942" width="18.4502" height="18.4502" rx="1.72971" fill="white"/>
<path d="M44.5627 1.41221L43.5492 0.398706C43.387 0.236546 43.1708 0.141953 42.9411 0.141953H40.4951C40.0087 0.141953 39.6303 0.533839 39.6303 1.00681V6.19592C39.6303 6.6824 40.0087 7.06078 40.4951 7.06078H43.9546C44.4275 7.06078 44.8194 6.6824 44.8194 6.19592V2.0203C44.8194 1.79058 44.7248 1.57437 44.5627 1.41221ZM44.1708 6.19592C44.1708 6.31754 44.0627 6.41214 43.9546 6.41214H40.4951C40.3735 6.41214 40.2789 6.31754 40.2789 6.19592V1.02032C40.2789 0.898699 40.3735 0.804106 40.4951 0.804106H42.6573V1.87166C42.6573 2.1149 42.8465 2.30408 43.0897 2.30408H44.1573V6.19592H44.1708ZM40.9276 3.92568C40.9276 4.11487 41.0627 4.25 41.2519 4.25H43.1978C43.3735 4.25 43.5221 4.11487 43.5221 3.92568C43.5221 3.75001 43.3735 3.60136 43.1978 3.60136H41.2519C41.0627 3.60136 40.9276 3.75001 40.9276 3.92568ZM43.1978 4.89864H41.2519C41.0627 4.89864 40.9276 5.04729 40.9276 5.22296C40.9276 5.41215 41.0627 5.54728 41.2519 5.54728H43.1978C43.3735 5.54728 43.5221 5.41215 43.5221 5.22296C43.5221 5.04729 43.3735 4.89864 43.1978 4.89864Z" fill="#CED4DA"/>
<rect x="33.0854" y="-5.444" width="18.2794" height="18.2794" rx="1.64429" stroke="#ADB5BD" stroke-opacity="0.7" stroke-width="0.170835"/>
</g>
<g opacity="0.7">
<rect x="-8" y="150" width="18.4502" height="18.4502" rx="1.72971" fill="white"/>
<path d="M3.56266 156.942L2.54916 155.928C2.387 155.766 2.17079 155.671 1.94106 155.671H-0.504852C-0.991332 155.671 -1.36971 156.063 -1.36971 156.536V161.725C-1.36971 162.212 -0.991332 162.59 -0.504852 162.59H2.95456C3.42753 162.59 3.81941 162.212 3.81941 161.725V157.55C3.81941 157.32 3.72482 157.104 3.56266 156.942ZM3.17077 161.725C3.17077 161.847 3.06267 161.942 2.95456 161.942H-0.504852C-0.626472 161.942 -0.721066 161.847 -0.721066 161.725V156.55C-0.721066 156.428 -0.626472 156.334 -0.504852 156.334H1.65728V157.401C1.65728 157.644 1.84647 157.834 2.08971 157.834H3.15726V161.725H3.17077ZM-0.0724258 159.455C-0.0724258 159.644 0.0627074 159.779 0.251894 159.779H2.19781C2.37349 159.779 2.52213 159.644 2.52213 159.455C2.52213 159.279 2.37349 159.131 2.19781 159.131H0.251894C0.0627074 159.131 -0.0724258 159.279 -0.0724258 159.455ZM2.19781 160.428H0.251894C0.0627074 160.428 -0.0724258 160.577 -0.0724258 160.752C-0.0724258 160.942 0.0627074 161.077 0.251894 161.077H2.19781C2.37349 161.077 2.52213 160.942 2.52213 160.752C2.52213 160.577 2.37349 160.428 2.19781 160.428Z" fill="#CED4DA"/>
<rect x="-7.91458" y="150.085" width="18.2794" height="18.2794" rx="1.64429" stroke="#ADB5BD" stroke-opacity="0.7" stroke-width="0.170835"/>
</g>
<g opacity="0.7">
<rect x="395" y="191.471" width="18.4502" height="18.4502" rx="1.72971" fill="white"/>
<path d="M406.563 198.412L405.549 197.399C405.387 197.237 405.171 197.142 404.941 197.142H402.495C402.009 197.142 401.63 197.534 401.63 198.007V203.196C401.63 203.682 402.009 204.061 402.495 204.061H405.955C406.428 204.061 406.819 203.682 406.819 203.196V199.02C406.819 198.791 406.725 198.574 406.563 198.412ZM406.171 203.196C406.171 203.318 406.063 203.412 405.955 203.412H402.495C402.374 203.412 402.279 203.318 402.279 203.196V198.02C402.279 197.899 402.374 197.804 402.495 197.804H404.657V198.872C404.657 199.115 404.846 199.304 405.09 199.304H406.157V203.196H406.171ZM402.928 200.926C402.928 201.115 403.063 201.25 403.252 201.25H405.198C405.373 201.25 405.522 201.115 405.522 200.926C405.522 200.75 405.373 200.601 405.198 200.601H403.252C403.063 200.601 402.928 200.75 402.928 200.926ZM405.198 201.899H403.252C403.063 201.899 402.928 202.047 402.928 202.223C402.928 202.412 403.063 202.547 403.252 202.547H405.198C405.373 202.547 405.522 202.412 405.522 202.223C405.522 202.047 405.373 201.899 405.198 201.899Z" fill="#CED4DA"/>
<rect x="395.085" y="191.556" width="18.2794" height="18.2794" rx="1.64429" stroke="#ADB5BD" stroke-opacity="0.7" stroke-width="0.170835"/>
</g>
<path d="M1 108.02L148 108.02" stroke="url(#paint11_linear_2063_249622)"/>
<path d="M405 108.02L258 108.02" stroke="url(#paint12_linear_2063_249622)"/>
<path d="M203 -0.979614L203 53.0204" stroke="url(#paint13_linear_2063_249622)"/>
<path d="M203 173L203 163" stroke="url(#paint14_linear_2063_249622)"/>
<rect x="160.846" y="172.062" width="82.9988" height="13.1562" rx="6.57808" fill="#ADB5BD" fill-opacity="0.1"/>
<path d="M169.956 180.139C169.956 180.025 169.938 179.923 169.903 179.835C169.87 179.746 169.81 179.664 169.724 179.591C169.638 179.517 169.516 179.446 169.358 179.377C169.203 179.306 169.005 179.234 168.764 179.16C168.5 179.079 168.256 178.989 168.033 178.89C167.812 178.788 167.619 178.672 167.454 178.54C167.289 178.405 167.161 178.251 167.069 178.079C166.978 177.904 166.932 177.702 166.932 177.473C166.932 177.247 166.979 177.042 167.073 176.856C167.17 176.671 167.305 176.511 167.481 176.376C167.658 176.239 167.868 176.134 168.109 176.06C168.35 175.984 168.617 175.946 168.909 175.946C169.32 175.946 169.674 176.022 169.971 176.174C170.271 176.327 170.501 176.531 170.661 176.788C170.823 177.044 170.904 177.327 170.904 177.637H169.956C169.956 177.454 169.917 177.293 169.838 177.153C169.762 177.011 169.645 176.899 169.488 176.818C169.333 176.737 169.136 176.696 168.897 176.696C168.671 176.696 168.483 176.731 168.334 176.799C168.184 176.868 168.072 176.96 167.999 177.077C167.925 177.194 167.888 177.326 167.888 177.473C167.888 177.577 167.912 177.673 167.96 177.759C168.009 177.843 168.082 177.921 168.181 177.995C168.28 178.066 168.405 178.133 168.555 178.197C168.704 178.26 168.881 178.321 169.084 178.38C169.391 178.471 169.659 178.573 169.888 178.684C170.116 178.794 170.307 178.918 170.459 179.058C170.611 179.197 170.725 179.356 170.802 179.534C170.878 179.709 170.916 179.908 170.916 180.132C170.916 180.365 170.869 180.576 170.775 180.764C170.681 180.949 170.546 181.108 170.371 181.24C170.199 181.369 169.99 181.47 169.747 181.541C169.505 181.609 169.236 181.644 168.939 181.644C168.673 181.644 168.41 181.608 168.151 181.537C167.894 181.466 167.661 181.358 167.45 181.213C167.239 181.066 167.072 180.883 166.947 180.665C166.823 180.444 166.761 180.186 166.761 179.892H167.717C167.717 180.072 167.747 180.226 167.808 180.352C167.872 180.479 167.959 180.584 168.071 180.665C168.183 180.744 168.312 180.802 168.459 180.84C168.609 180.878 168.769 180.897 168.939 180.897C169.163 180.897 169.349 180.865 169.499 180.802C169.651 180.738 169.766 180.65 169.842 180.535C169.918 180.421 169.956 180.289 169.956 180.139Z" fill="#495057"/>
<path d="M171.417 179.553V179.465C171.417 179.168 171.46 178.893 171.546 178.639C171.633 178.382 171.757 178.16 171.92 177.972C172.085 177.782 172.285 177.634 172.521 177.53C172.76 177.424 173.029 177.37 173.329 177.37C173.631 177.37 173.9 177.424 174.136 177.53C174.375 177.634 174.577 177.782 174.742 177.972C174.907 178.16 175.032 178.382 175.119 178.639C175.205 178.893 175.248 179.168 175.248 179.465V179.553C175.248 179.85 175.205 180.125 175.119 180.379C175.032 180.633 174.907 180.855 174.742 181.046C174.577 181.234 174.376 181.381 174.14 181.487C173.904 181.592 173.636 181.644 173.336 181.644C173.034 181.644 172.764 181.592 172.525 181.487C172.289 181.381 172.088 181.234 171.923 181.046C171.758 180.855 171.633 180.633 171.546 180.379C171.46 180.125 171.417 179.85 171.417 179.553ZM172.335 179.465V179.553C172.335 179.738 172.354 179.913 172.392 180.078C172.43 180.243 172.49 180.388 172.571 180.512C172.652 180.637 172.756 180.735 172.883 180.806C173.01 180.877 173.161 180.912 173.336 180.912C173.506 180.912 173.654 180.877 173.778 180.806C173.905 180.735 174.009 180.637 174.09 180.512C174.172 180.388 174.231 180.243 174.269 180.078C174.31 179.913 174.33 179.738 174.33 179.553V179.465C174.33 179.282 174.31 179.11 174.269 178.947C174.231 178.782 174.17 178.636 174.087 178.509C174.005 178.382 173.901 178.283 173.774 178.212C173.65 178.138 173.501 178.102 173.329 178.102C173.156 178.102 173.006 178.138 172.879 178.212C172.755 178.283 172.652 178.382 172.571 178.509C172.49 178.636 172.43 178.782 172.392 178.947C172.354 179.11 172.335 179.282 172.335 179.465Z" fill="#495057"/>
<path d="M178.419 180.596V177.447H179.341V181.567H178.472L178.419 180.596ZM178.548 179.739L178.857 179.732C178.857 180.008 178.827 180.264 178.766 180.497C178.705 180.728 178.611 180.93 178.484 181.103C178.357 181.273 178.194 181.406 177.996 181.503C177.798 181.597 177.561 181.644 177.284 181.644C177.083 181.644 176.899 181.614 176.732 181.556C176.564 181.498 176.419 181.407 176.298 181.286C176.178 181.164 176.086 181.005 176.02 180.81C175.954 180.614 175.921 180.38 175.921 180.109V177.447H176.838V180.116C176.838 180.266 176.856 180.392 176.892 180.493C176.927 180.592 176.976 180.672 177.036 180.733C177.097 180.794 177.169 180.837 177.25 180.863C177.331 180.888 177.417 180.901 177.509 180.901C177.77 180.901 177.976 180.85 178.126 180.749C178.278 180.644 178.386 180.505 178.449 180.33C178.515 180.154 178.548 179.958 178.548 179.739Z" fill="#495057"/>
<path d="M181.125 178.231V181.567H180.207V177.447H181.083L181.125 178.231ZM182.386 177.42L182.378 178.273C182.322 178.263 182.261 178.255 182.195 178.25C182.132 178.245 182.068 178.243 182.005 178.243C181.847 178.243 181.709 178.265 181.59 178.311C181.47 178.354 181.37 178.418 181.289 178.502C181.21 178.583 181.149 178.682 181.106 178.799C181.063 178.915 181.037 179.046 181.03 179.191L180.82 179.206C180.82 178.947 180.846 178.707 180.897 178.486C180.947 178.265 181.024 178.071 181.125 177.904C181.229 177.736 181.359 177.605 181.514 177.511C181.671 177.417 181.853 177.37 182.058 177.37C182.114 177.37 182.174 177.375 182.237 177.386C182.303 177.396 182.353 177.407 182.386 177.42Z" fill="#495057"/>
<path d="M184.49 180.912C184.64 180.912 184.774 180.883 184.894 180.825C185.016 180.764 185.113 180.68 185.187 180.573C185.263 180.467 185.305 180.344 185.313 180.204H186.177C186.172 180.471 186.093 180.713 185.941 180.931C185.789 181.15 185.587 181.324 185.336 181.453C185.084 181.58 184.806 181.644 184.501 181.644C184.187 181.644 183.912 181.59 183.679 181.484C183.445 181.374 183.251 181.225 183.096 181.034C182.941 180.844 182.824 180.624 182.746 180.375C182.67 180.127 182.631 179.86 182.631 179.576V179.442C182.631 179.158 182.67 178.891 182.746 178.642C182.824 178.391 182.941 178.17 183.096 177.98C183.251 177.789 183.445 177.641 183.679 177.534C183.912 177.425 184.185 177.37 184.498 177.37C184.828 177.37 185.117 177.436 185.366 177.568C185.615 177.698 185.81 177.879 185.953 178.113C186.097 178.344 186.172 178.613 186.177 178.92H185.313C185.305 178.768 185.267 178.631 185.198 178.509C185.132 178.385 185.038 178.286 184.917 178.212C184.797 178.138 184.654 178.102 184.486 178.102C184.301 178.102 184.147 178.14 184.025 178.216C183.904 178.29 183.808 178.391 183.74 178.521C183.671 178.648 183.622 178.791 183.591 178.951C183.563 179.108 183.549 179.272 183.549 179.442V179.576C183.549 179.746 183.563 179.911 183.591 180.071C183.619 180.231 183.667 180.374 183.736 180.501C183.807 180.625 183.904 180.726 184.025 180.802C184.147 180.876 184.302 180.912 184.49 180.912Z" fill="#495057"/>
<path d="M188.621 181.644C188.316 181.644 188.04 181.594 187.794 181.495C187.55 181.394 187.342 181.253 187.169 181.072C186.999 180.892 186.869 180.68 186.777 180.436C186.686 180.193 186.64 179.93 186.64 179.648V179.496C186.64 179.173 186.687 178.881 186.781 178.62C186.875 178.358 187.006 178.135 187.173 177.949C187.341 177.761 187.539 177.618 187.767 177.519C187.996 177.42 188.244 177.37 188.51 177.37C188.805 177.37 189.062 177.42 189.283 177.519C189.504 177.618 189.687 177.758 189.832 177.938C189.979 178.116 190.088 178.328 190.159 178.574C190.233 178.82 190.27 179.092 190.27 179.389V179.781H187.086V179.122H189.363V179.05C189.358 178.885 189.325 178.73 189.264 178.585C189.206 178.441 189.116 178.324 188.994 178.235C188.872 178.146 188.709 178.102 188.506 178.102C188.354 178.102 188.218 178.135 188.099 178.201C187.982 178.264 187.884 178.357 187.806 178.479C187.727 178.601 187.666 178.748 187.623 178.92C187.582 179.091 187.562 179.282 187.562 179.496V179.648C187.562 179.828 187.586 179.996 187.634 180.151C187.685 180.303 187.759 180.436 187.855 180.551C187.952 180.665 188.068 180.755 188.205 180.821C188.343 180.884 188.499 180.916 188.674 180.916C188.895 180.916 189.092 180.872 189.264 180.783C189.437 180.694 189.587 180.568 189.714 180.406L190.197 180.874C190.108 181.004 189.993 181.128 189.851 181.248C189.709 181.364 189.535 181.46 189.329 181.533C189.126 181.607 188.89 181.644 188.621 181.644Z" fill="#495057"/>
<path d="M196.139 179.762H197.091C197.061 180.125 196.959 180.449 196.786 180.733C196.614 181.015 196.371 181.237 196.059 181.4C195.747 181.562 195.367 181.644 194.92 181.644C194.577 181.644 194.269 181.583 193.995 181.461C193.72 181.336 193.486 181.161 193.29 180.935C193.095 180.707 192.945 180.431 192.841 180.109C192.739 179.786 192.688 179.426 192.688 179.027V178.566C192.688 178.168 192.74 177.807 192.844 177.485C192.951 177.162 193.103 176.887 193.301 176.658C193.5 176.427 193.737 176.251 194.014 176.129C194.293 176.007 194.607 175.946 194.954 175.946C195.396 175.946 195.769 176.027 196.074 176.19C196.379 176.352 196.615 176.577 196.783 176.864C196.953 177.151 197.057 177.48 197.095 177.85H196.143C196.117 177.612 196.061 177.407 195.975 177.237C195.891 177.067 195.767 176.937 195.602 176.849C195.437 176.757 195.221 176.711 194.954 176.711C194.736 176.711 194.546 176.752 194.383 176.833C194.221 176.915 194.085 177.034 193.976 177.191C193.866 177.349 193.784 177.543 193.728 177.774C193.675 178.003 193.648 178.264 193.648 178.559V179.027C193.648 179.306 193.672 179.56 193.72 179.789C193.771 180.015 193.847 180.209 193.949 180.372C194.053 180.534 194.185 180.66 194.345 180.749C194.505 180.837 194.697 180.882 194.92 180.882C195.192 180.882 195.411 180.839 195.579 180.752C195.749 180.666 195.877 180.54 195.964 180.375C196.053 180.208 196.111 180.003 196.139 179.762Z" fill="#495057"/>
<path d="M197.615 179.553V179.465C197.615 179.168 197.658 178.893 197.744 178.639C197.831 178.382 197.955 178.16 198.118 177.972C198.283 177.782 198.483 177.634 198.719 177.53C198.958 177.424 199.227 177.37 199.527 177.37C199.829 177.37 200.098 177.424 200.334 177.53C200.573 177.634 200.775 177.782 200.94 177.972C201.105 178.16 201.23 178.382 201.317 178.639C201.403 178.893 201.446 179.168 201.446 179.465V179.553C201.446 179.85 201.403 180.125 201.317 180.379C201.23 180.633 201.105 180.855 200.94 181.046C200.775 181.234 200.574 181.381 200.338 181.487C200.102 181.592 199.834 181.644 199.534 181.644C199.232 181.644 198.962 181.592 198.723 181.487C198.487 181.381 198.286 181.234 198.121 181.046C197.956 180.855 197.831 180.633 197.744 180.379C197.658 180.125 197.615 179.85 197.615 179.553ZM198.533 179.465V179.553C198.533 179.738 198.552 179.913 198.59 180.078C198.628 180.243 198.688 180.388 198.769 180.512C198.85 180.637 198.954 180.735 199.081 180.806C199.208 180.877 199.359 180.912 199.534 180.912C199.704 180.912 199.852 180.877 199.976 180.806C200.103 180.735 200.207 180.637 200.288 180.512C200.37 180.388 200.429 180.243 200.467 180.078C200.508 179.913 200.528 179.738 200.528 179.553V179.465C200.528 179.282 200.508 179.11 200.467 178.947C200.429 178.782 200.368 178.636 200.285 178.509C200.203 178.382 200.099 178.283 199.972 178.212C199.848 178.138 199.699 178.102 199.527 178.102C199.354 178.102 199.204 178.138 199.077 178.212C198.953 178.283 198.85 178.382 198.769 178.509C198.688 178.636 198.628 178.782 198.59 178.947C198.552 179.11 198.533 179.282 198.533 179.465Z" fill="#495057"/>
<path d="M204.651 180.714V175.717H205.573V181.567H204.739L204.651 180.714ZM201.97 179.553V179.473C201.97 179.16 202.007 178.876 202.08 178.62C202.154 178.361 202.261 178.138 202.4 177.953C202.54 177.765 202.71 177.622 202.911 177.523C203.111 177.421 203.337 177.37 203.589 177.37C203.837 177.37 204.056 177.419 204.244 177.515C204.432 177.612 204.592 177.75 204.724 177.93C204.856 178.108 204.961 178.321 205.04 178.57C205.118 178.816 205.174 179.091 205.207 179.393V179.648C205.174 179.942 205.118 180.212 205.04 180.455C204.961 180.699 204.856 180.91 204.724 181.088C204.592 181.265 204.43 181.402 204.24 181.499C204.052 181.595 203.832 181.644 203.581 181.644C203.332 181.644 203.107 181.592 202.907 181.487C202.709 181.383 202.54 181.237 202.4 181.049C202.261 180.862 202.154 180.641 202.08 180.387C202.007 180.13 201.97 179.852 201.97 179.553ZM202.888 179.473V179.553C202.888 179.741 202.904 179.916 202.937 180.078C202.973 180.241 203.028 180.384 203.101 180.509C203.175 180.631 203.27 180.727 203.387 180.798C203.506 180.867 203.648 180.901 203.813 180.901C204.022 180.901 204.193 180.855 204.328 180.764C204.462 180.672 204.567 180.549 204.644 180.394C204.722 180.237 204.776 180.062 204.804 179.869V179.179C204.788 179.03 204.757 178.89 204.708 178.76C204.663 178.631 204.6 178.518 204.522 178.422C204.443 178.323 204.345 178.246 204.228 178.193C204.114 178.137 203.978 178.109 203.821 178.109C203.653 178.109 203.511 178.145 203.394 178.216C203.278 178.287 203.181 178.385 203.105 178.509C203.031 178.634 202.977 178.778 202.941 178.943C202.906 179.108 202.888 179.285 202.888 179.473Z" fill="#495057"/>
<path d="M208.271 181.644C207.967 181.644 207.691 181.594 207.445 181.495C207.201 181.394 206.993 181.253 206.82 181.072C206.65 180.892 206.519 180.68 206.428 180.436C206.337 180.193 206.291 179.93 206.291 179.648V179.496C206.291 179.173 206.338 178.881 206.432 178.62C206.526 178.358 206.657 178.135 206.824 177.949C206.992 177.761 207.19 177.618 207.418 177.519C207.647 177.42 207.894 177.37 208.161 177.37C208.455 177.37 208.713 177.42 208.934 177.519C209.155 177.618 209.338 177.758 209.483 177.938C209.63 178.116 209.739 178.328 209.81 178.574C209.884 178.82 209.921 179.092 209.921 179.389V179.781H206.737V179.122H209.014V179.05C209.009 178.885 208.976 178.73 208.915 178.585C208.857 178.441 208.767 178.324 208.645 178.235C208.523 178.146 208.36 178.102 208.157 178.102C208.005 178.102 207.869 178.135 207.75 178.201C207.633 178.264 207.535 178.357 207.456 178.479C207.378 178.601 207.317 178.748 207.274 178.92C207.233 179.091 207.213 179.282 207.213 179.496V179.648C207.213 179.828 207.237 179.996 207.285 180.151C207.336 180.303 207.409 180.436 207.506 180.551C207.602 180.665 207.719 180.755 207.856 180.821C207.993 180.884 208.15 180.916 208.325 180.916C208.546 180.916 208.742 180.872 208.915 180.783C209.088 180.694 209.237 180.568 209.364 180.406L209.848 180.874C209.759 181.004 209.644 181.128 209.502 181.248C209.359 181.364 209.185 181.46 208.98 181.533C208.777 181.607 208.541 181.644 208.271 181.644Z" fill="#495057"/>
<path d="M214.415 180.554L215.873 176.022H216.928L214.94 181.567H214.228L214.415 180.554ZM213.067 176.022L214.514 180.554L214.712 181.567H213.996L212.015 176.022H213.067Z" fill="#495057"/>
<path d="M219.029 181.644C218.724 181.644 218.449 181.594 218.203 181.495C217.959 181.394 217.751 181.253 217.578 181.072C217.408 180.892 217.277 180.68 217.186 180.436C217.094 180.193 217.049 179.93 217.049 179.648V179.496C217.049 179.173 217.095 178.881 217.189 178.62C217.283 178.358 217.414 178.135 217.582 177.949C217.749 177.761 217.947 177.618 218.176 177.519C218.404 177.42 218.652 177.37 218.919 177.37C219.213 177.37 219.471 177.42 219.692 177.519C219.913 177.618 220.095 177.758 220.24 177.938C220.387 178.116 220.497 178.328 220.568 178.574C220.641 178.82 220.678 179.092 220.678 179.389V179.781H217.494V179.122H219.772V179.05C219.767 178.885 219.734 178.73 219.673 178.585C219.614 178.441 219.524 178.324 219.402 178.235C219.28 178.146 219.118 178.102 218.915 178.102C218.762 178.102 218.627 178.135 218.507 178.201C218.39 178.264 218.293 178.357 218.214 178.479C218.135 178.601 218.074 178.748 218.031 178.92C217.991 179.091 217.97 179.282 217.97 179.496V179.648C217.97 179.828 217.994 179.996 218.043 180.151C218.093 180.303 218.167 180.436 218.263 180.551C218.36 180.665 218.477 180.755 218.614 180.821C218.751 180.884 218.907 180.916 219.082 180.916C219.303 180.916 219.5 180.872 219.673 180.783C219.845 180.694 219.995 180.568 220.122 180.406L220.606 180.874C220.517 181.004 220.401 181.128 220.259 181.248C220.117 181.364 219.943 181.46 219.737 181.533C219.534 181.607 219.298 181.644 219.029 181.644Z" fill="#495057"/>
<path d="M222.238 178.231V181.567H221.32V177.447H222.196L222.238 178.231ZM223.498 177.42L223.491 178.273C223.435 178.263 223.374 178.255 223.308 178.25C223.245 178.245 223.181 178.243 223.118 178.243C222.96 178.243 222.822 178.265 222.702 178.311C222.583 178.354 222.483 178.418 222.402 178.502C222.323 178.583 222.262 178.682 222.219 178.799C222.176 178.915 222.15 179.046 222.143 179.191L221.933 179.206C221.933 178.947 221.959 178.707 222.009 178.486C222.06 178.265 222.136 178.071 222.238 177.904C222.342 177.736 222.471 177.605 222.626 177.511C222.784 177.417 222.965 177.37 223.171 177.37C223.227 177.37 223.286 177.375 223.35 177.386C223.416 177.396 223.465 177.407 223.498 177.42Z" fill="#495057"/>
<path d="M224.978 177.447V181.567H224.056V177.447H224.978ZM223.996 176.365C223.996 176.225 224.041 176.11 224.133 176.018C224.227 175.924 224.356 175.877 224.521 175.877C224.684 175.877 224.812 175.924 224.906 176.018C225 176.11 225.047 176.225 225.047 176.365C225.047 176.502 225 176.616 224.906 176.708C224.812 176.799 224.684 176.845 224.521 176.845C224.356 176.845 224.227 176.799 224.133 176.708C224.041 176.616 223.996 176.502 223.996 176.365Z" fill="#495057"/>
<path d="M227.086 181.567H226.165V177.18C226.165 176.847 226.231 176.567 226.363 176.338C226.497 176.11 226.689 175.936 226.938 175.816C227.189 175.697 227.487 175.637 227.833 175.637C228.036 175.637 228.231 175.659 228.419 175.702C228.61 175.745 228.807 175.8 229.01 175.866L228.869 176.612C228.739 176.569 228.596 176.529 228.438 176.491C228.281 176.45 228.099 176.43 227.894 176.43C227.617 176.43 227.413 176.493 227.281 176.62C227.151 176.744 227.086 176.931 227.086 177.18V181.567ZM227.913 177.447V178.117H225.532V177.447H227.913ZM229.444 177.447V181.567H228.526V177.447H229.444Z" fill="#495057"/>
<path d="M232.207 181.644C231.902 181.644 231.627 181.594 231.381 181.495C231.137 181.394 230.929 181.253 230.756 181.072C230.586 180.892 230.455 180.68 230.364 180.436C230.272 180.193 230.227 179.93 230.227 179.648V179.496C230.227 179.173 230.274 178.881 230.367 178.62C230.461 178.358 230.592 178.135 230.76 177.949C230.927 177.761 231.125 177.618 231.354 177.519C231.582 177.42 231.83 177.37 232.097 177.37C232.391 177.37 232.649 177.42 232.87 177.519C233.091 177.618 233.273 177.758 233.418 177.938C233.565 178.116 233.675 178.328 233.746 178.574C233.819 178.82 233.856 179.092 233.856 179.389V179.781H230.672V179.122H232.95V179.05C232.945 178.885 232.912 178.73 232.851 178.585C232.792 178.441 232.702 178.324 232.58 178.235C232.458 178.146 232.296 178.102 232.093 178.102C231.94 178.102 231.805 178.135 231.685 178.201C231.568 178.264 231.471 178.357 231.392 178.479C231.313 178.601 231.252 178.748 231.209 178.92C231.169 179.091 231.148 179.282 231.148 179.496V179.648C231.148 179.828 231.172 179.996 231.221 180.151C231.271 180.303 231.345 180.436 231.442 180.551C231.538 180.665 231.655 180.755 231.792 180.821C231.929 180.884 232.085 180.916 232.26 180.916C232.481 180.916 232.678 180.872 232.851 180.783C233.023 180.694 233.173 180.568 233.3 180.406L233.784 180.874C233.695 181.004 233.579 181.128 233.437 181.248C233.295 181.364 233.121 181.46 232.915 181.533C232.712 181.607 232.476 181.644 232.207 181.644Z" fill="#495057"/>
<path d="M237.008 180.714V175.717H237.93V181.567H237.095L237.008 180.714ZM234.327 179.553V179.473C234.327 179.16 234.363 178.876 234.437 178.62C234.511 178.361 234.617 178.138 234.757 177.953C234.897 177.765 235.067 177.622 235.267 177.523C235.468 177.421 235.694 177.37 235.945 177.37C236.194 177.37 236.412 177.419 236.6 177.515C236.788 177.612 236.948 177.75 237.08 177.93C237.212 178.108 237.318 178.321 237.396 178.57C237.475 178.816 237.531 179.091 237.564 179.393V179.648C237.531 179.942 237.475 180.212 237.396 180.455C237.318 180.699 237.212 180.91 237.08 181.088C236.948 181.265 236.787 181.402 236.597 181.499C236.409 181.595 236.189 181.644 235.938 181.644C235.689 181.644 235.464 181.592 235.264 181.487C235.065 181.383 234.897 181.237 234.757 181.049C234.617 180.862 234.511 180.641 234.437 180.387C234.363 180.13 234.327 179.852 234.327 179.553ZM235.244 179.473V179.553C235.244 179.741 235.261 179.916 235.294 180.078C235.33 180.241 235.384 180.384 235.458 180.509C235.531 180.631 235.627 180.727 235.743 180.798C235.863 180.867 236.005 180.901 236.17 180.901C236.378 180.901 236.55 180.855 236.684 180.764C236.819 180.672 236.924 180.549 237 180.394C237.079 180.237 237.132 180.062 237.16 179.869V179.179C237.145 179.03 237.113 178.89 237.065 178.76C237.019 178.631 236.957 178.518 236.878 178.422C236.8 178.323 236.702 178.246 236.585 178.193C236.471 178.137 236.335 178.109 236.178 178.109C236.01 178.109 235.868 178.145 235.751 178.216C235.634 178.287 235.538 178.385 235.462 178.509C235.388 178.634 235.333 178.778 235.298 178.943C235.262 179.108 235.244 179.285 235.244 179.473Z" fill="#495057"/>
<rect x="160.846" y="172.062" width="82.9988" height="13.1562" rx="6.57808" stroke="#E9ECEF" stroke-width="0.65"/>
<rect x="33" y="99" width="18.4502" height="18.4502" rx="1.72971" fill="white"/>
<path d="M44.5627 105.942L43.5492 104.928C43.387 104.766 43.1708 104.671 42.9411 104.671H40.4951C40.0087 104.671 39.6303 105.063 39.6303 105.536V110.725C39.6303 111.212 40.0087 111.59 40.4951 111.59H43.9546C44.4275 111.59 44.8194 111.212 44.8194 110.725V106.55C44.8194 106.32 44.7248 106.104 44.5627 105.942ZM44.1708 110.725C44.1708 110.847 44.0627 110.942 43.9546 110.942H40.4951C40.3735 110.942 40.2789 110.847 40.2789 110.725V105.55C40.2789 105.428 40.3735 105.334 40.4951 105.334H42.6573V106.401C42.6573 106.644 42.8465 106.834 43.0897 106.834H44.1573V110.725H44.1708ZM40.9276 108.455C40.9276 108.644 41.0627 108.779 41.2519 108.779H43.1978C43.3735 108.779 43.5221 108.644 43.5221 108.455C43.5221 108.279 43.3735 108.131 43.1978 108.131H41.2519C41.0627 108.131 40.9276 108.279 40.9276 108.455ZM43.1978 109.428H41.2519C41.0627 109.428 40.9276 109.577 40.9276 109.752C40.9276 109.942 41.0627 110.077 41.2519 110.077H43.1978C43.3735 110.077 43.5221 109.942 43.5221 109.752C43.5221 109.577 43.3735 109.428 43.1978 109.428Z" fill="#CED4DA"/>
<rect x="33.25" y="99.25" width="17.9502" height="17.9502" rx="1.47971" stroke="#ADB5BD" stroke-opacity="0.7" stroke-width="0.5"/>
</g>
<defs>
<linearGradient id="paint0_linear_2063_249622" x1="78.5" y1="-8.47913" x2="80" y2="67.5209" gradientUnits="userSpaceOnUse">
<stop stop-color="#9CC5ED" stop-opacity="0.11"/>
<stop offset="0.821091" stop-color="#ADB5BD" stop-opacity="0"/>
</linearGradient>
<linearGradient id="paint1_linear_2063_249622" x1="331.225" y1="-8.47913" x2="332.725" y2="67.5209" gradientUnits="userSpaceOnUse">
<stop stop-color="#9CC5ED" stop-opacity="0.11"/>
<stop offset="0.821091" stop-color="#ADB5BD" stop-opacity="0"/>
</linearGradient>
<linearGradient id="paint2_linear_2063_249622" x1="381.77" y1="-8.47913" x2="383.27" y2="67.5209" gradientUnits="userSpaceOnUse">
<stop stop-color="#9CC5ED" stop-opacity="0.11"/>
<stop offset="0.821091" stop-color="#ADB5BD" stop-opacity="0"/>
</linearGradient>
<linearGradient id="paint3_linear_2063_249622" x1="27.9551" y1="92.6106" x2="29.4551" y2="168.611" gradientUnits="userSpaceOnUse">
<stop stop-color="#9CC5ED" stop-opacity="0.11"/>
<stop offset="0.821091" stop-color="#ADB5BD" stop-opacity="0"/>
</linearGradient>
<linearGradient id="paint4_linear_2063_249622" x1="179.59" y1="92.6106" x2="181.09" y2="168.611" gradientUnits="userSpaceOnUse">
<stop stop-color="#9CC5ED" stop-opacity="0.11"/>
<stop offset="0.821091" stop-color="#ADB5BD" stop-opacity="0"/>
</linearGradient>
<linearGradient id="paint5_linear_2063_249622" x1="280.68" y1="92.6106" x2="282.18" y2="168.611" gradientUnits="userSpaceOnUse">
<stop stop-color="#9CC5ED" stop-opacity="0.11"/>
<stop offset="0.821091" stop-color="#ADB5BD" stop-opacity="0"/>
</linearGradient>
<linearGradient id="paint6_linear_2063_249622" x1="331.225" y1="92.6106" x2="332.725" y2="168.611" gradientUnits="userSpaceOnUse">
<stop stop-color="#9CC5ED" stop-opacity="0.11"/>
<stop offset="0.821091" stop-color="#ADB5BD" stop-opacity="0"/>
</linearGradient>
<linearGradient id="paint7_linear_2063_249622" x1="78.5" y1="143.156" x2="80" y2="219.156" gradientUnits="userSpaceOnUse">
<stop stop-color="#9CC5ED" stop-opacity="0.11"/>
<stop offset="0.821091" stop-color="#ADB5BD" stop-opacity="0"/>
</linearGradient>
<linearGradient id="paint8_linear_2063_249622" x1="381.77" y1="143.156" x2="383.27" y2="219.156" gradientUnits="userSpaceOnUse">
<stop stop-color="#9CC5ED" stop-opacity="0.11"/>
<stop offset="0.821091" stop-color="#ADB5BD" stop-opacity="0"/>
</linearGradient>
<linearGradient id="paint9_linear_2063_249622" x1="78.5" y1="193.701" x2="80" y2="269.701" gradientUnits="userSpaceOnUse">
<stop stop-color="#9CC5ED" stop-opacity="0.11"/>
<stop offset="0.821091" stop-color="#ADB5BD" stop-opacity="0"/>
</linearGradient>
<linearGradient id="paint10_linear_2063_249622" x1="331.225" y1="193.701" x2="332.725" y2="269.701" gradientUnits="userSpaceOnUse">
<stop stop-color="#9CC5ED" stop-opacity="0.11"/>
<stop offset="0.821091" stop-color="#ADB5BD" stop-opacity="0"/>
</linearGradient>
<linearGradient id="paint11_linear_2063_249622" x1="148" y1="108.021" x2="26.5" y2="108.471" gradientUnits="userSpaceOnUse">
<stop stop-color="#0784C3"/>
<stop offset="1" stop-color="#E9ECEF" stop-opacity="0"/>
</linearGradient>
<linearGradient id="paint12_linear_2063_249622" x1="258" y1="108.02" x2="408.5" y2="108.02" gradientUnits="userSpaceOnUse">
<stop stop-color="#E9ECEF"/>
<stop offset="0.76242" stop-color="#E9ECEF" stop-opacity="0"/>
</linearGradient>
<linearGradient id="paint13_linear_2063_249622" x1="203" y1="53.0204" x2="203" y2="17.0204" gradientUnits="userSpaceOnUse">
<stop stop-color="#0784C3"/>
<stop offset="1" stop-color="#E9ECEF" stop-opacity="0"/>
</linearGradient>
<linearGradient id="paint14_linear_2063_249622" x1="203" y1="159" x2="203" y2="173.5" gradientUnits="userSpaceOnUse">
<stop stop-color="#0784C3"/>
<stop offset="0.935659" stop-color="#E9ECEF" stop-opacity="0"/>
</linearGradient>
<clipPath id="clip0_2063_249622">
<rect width="405" height="218" fill="white" transform="translate(0 -0.979614)"/>
</clipPath>
</defs>
</svg>
